<svg width="102" height="103" viewBox="0 0 102 103" version="1.1" xmlns="http://www.w3.org/2000/svg" xmlns:xlink="http://www.w3.org/1999/xlink">
<title>ddg-logo</title>
<desc>Created using Figma</desc>
<g id="Canvas" transform="translate(-4584 -2238)">
<g id="ddg-logo">
<g id="backing-white">
<use xlink:href="#path0_fill" transform="translate(4588 2242.45)" fill="#FFFFFF"/>
<mask id="mask0_outline_out">
<rect id="mask0_outline_inv" fill="white" x="-4" y="-4" width="102" height="102" transform="translate(4588 2242.45)"/>
<use xlink:href="#path0_fill" fill="black" transform="translate(4588 2242.45)"/>
</mask>
<g mask="url(#mask0_outline_out)">
<use xlink:href="#path1_stroke_2x" transform="translate(4588 2242.45)" fill="#DE5833"/>
</g>
</g>
<g id="Vector">
<use xlink:href="#path2_fill" transform="translate(4592.3 2246.75)" fill="#DE5833"/>
</g>
<g id="Group">
<mask id="mask1_alpha" mask-type="alpha">
<g id="Vector">
<use xlink:href="#path2_fill" transform="translate(4592.3 2246.75)" fill="#DE5833"/>
</g>
</mask>
<g id="Group" mask="url(#mask1_alpha)">
<g id="Group">
<g id="Group">
<g id="Group">
<g id="Group">
<g id="Group">
<g id="Group">
<g id="Group">
<g id="Group">
<g id="Group">
<g id="Group">
<g id="Group">
<g id="Vector">
<use xlink:href="#path3_fill" transform="translate(4610.82 2256.23)" fill="#D5D7D8"/>
</g>
<g id="Vector">
<use xlink:href="#path4_fill" transform="translate(4612.54 2255.95)" fill="#FFFFFF"/>
</g>
<g id="Vector">
<use xlink:href="#path5_fill" transform="translate(4619.71 2279.38)" fill="#2D4F8E"/>
</g>
<g id="Vector">
<use xlink:href="#path6_fill" transform="translate(4623.46 2280.67)" fill="#FFFFFF"/>
</g>
<g id="Vector">
<use xlink:href="#path7_fill" transform="translate(4641.29 2277.95)" fill="#2D4F8E"/>
</g>
<g id="Vector">
<use xlink:href="#path8_fill" transform="translate(4644.51 2279.06)" fill="#FFFFFF"/>
</g>
<g id="Vector">
<use xlink:href="#path9_fill" transform="translate(4616.62 2272.17)" fill="url(#paint10_linear)"/>
</g>
<g id="Vector">
<use xlink:href="#path10_fill" transform="translate(4639.13 2271.07)" fill="url(#paint11_linear)"/>
</g>
</g>
</g>
</g>
</g>
</g>
</g>
</g>
</g>
</g>
</g>
</g>
<g id="Vector">
<use xlink:href="#path11_fill" transform="translate(4632.5 2284.28)" fill="#FDD20A"/>
</g>
</g>
<g id="Group" mask="url(#mask1_alpha)">
<g id="Vector">
<use xlink:href="#path12_fill" transform="translate(4624.32 2315.68)" fill="#65BC46"/>
</g>
<g id="Vector">
<use xlink:href="#path13_fill" transform="translate(4640.48 2313.92)" fill="#65BC46"/>
</g>
<g id="Vector">
<use xlink:href="#path14_fill" transform="translate(4633.4 2318.69)" fill="#43A244"/>
</g>
<g id="Vector">
<use xlink:href="#path15_fill" transform="translate(4634.15 2317.77)" fill="#65BC46"/>
</g>
</g>
</g>
</g>
</g>
<defs>
<linearGradient id="paint10_linear" x1="0" y1="0" x2="1" y2="0" gradientUnits="userSpaceOnUse" gradientTransform="matrix(7.15267 0 0 -7.15266 9.05935e-05 5.84168)">
<stop offset="0.0056" stop-color="#6176B9"/>
<stop offset="0.691" stop-color="#394A9F"/>
</linearGradient>
<linearGradient id="paint11_linear" x1="0" y1="0" x2="1" y2="0" gradientUnits="userSpaceOnUse" gradientTransform="matrix(6.51523 0 0 -6.51521 0.000333913 4.44525)">
<stop offset="0.0056" stop-color="#6176B9"/>
<stop offset="0.691" stop-color="#394A9F"/>
</linearGradient>
<path id="path0_fill" d="M 94 47C 94 72.9574 72.9574 94 47 94C 21.0426 94 0 72.9574 0 47C 0 21.0426 21.0426 0 47 0C 72.9574 0 94 21.0426 94 47Z"/>
<path id="path1_stroke_2x" d="M 90 47C 90 70.7482 70.7482 90 47 90L 47 98C 75.1665 98 98 75.1665 98 47L 90 47ZM 47 90C 23.2518 90 4 70.7482 4 47L -4 47C -4 75.1665 18.8335 98 47 98L 47 90ZM 4 47C 4 23.2518 23.2518 4 47 4L 47 -4C 18.8335 -4 -4 18.8335 -4 47L 4 47ZM 47 4C 70.7482 4 90 23.2518 90 47L 98 47C 98 18.8335 75.1665 -4 47 -4L 47 4Z"/>
<path id="path2_fill" d="M 42.6991 85.3983C 66.2812 85.3983 85.3982 66.2812 85.3982 42.6991C 85.3982 19.1171 66.2812 0 42.6991 0C 19.117 0 0 19.1171 0 42.6991C 0 66.2812 19.117 85.3983 42.6991 85.3983Z"/>
<path id="path3_fill" d="M 41.6805 96.8199C 40.177 89.9038 31.4444 74.2483 28.1319 67.6284C 24.822 61.0069 21.5054 51.6757 23.0156 45.6553C 23.2894 44.56 20.1473 36.2156 21.0505 35.6254C 28.076 31.0432 29.9259 36.1254 32.7391 34.071C 34.1866 33.0083 36.1534 34.945 36.6534 33.1861C 38.4549 26.8693 34.1441 15.856 29.3315 11.0427C 27.758 9.47413 25.3488 8.48826 22.6282 7.96485C 21.5814 6.53486 19.8943 5.15998 17.5043 3.89194C 14.843 2.47532 9.0555 0.604569 6.05362 0.106204C 3.97334 -0.236057 3.50336 0.345786 2.61515 0.491038C 3.44326 0.564499 7.37258 2.5062 8.13724 2.6189C 7.37258 3.13563 5.12618 2.59553 3.69286 3.23831C 2.97077 3.56554 2.43066 4.80519 2.43567 5.39205C 6.53446 4.97799 12.9322 5.37869 16.7105 7.06161C 13.7036 7.40387 9.13063 7.78537 7.16388 8.81883C 1.44729 11.8307 -1.07793 18.8654 0.427187 27.2951C 1.93313 35.7055 8.5563 66.4046 10.6633 76.6549C 12.7711 86.8927 6.14879 93.5084 1.93564 95.3157L 6.45014 95.6187L 4.9467 98.9303C 10.3594 99.5305 16.379 97.729 16.379 97.729C 15.1786 101.039 7.04952 102.247 7.04952 102.247C 7.04952 102.247 10.9655 103.447 17.2823 101.039C 23.6083 98.6322 27.5192 97.1255 27.5192 97.1255L 30.5278 104.95L 36.2494 99.2341L 38.6577 105.254C 38.6694 105.253 43.1856 103.744 41.6805 96.8199Z"/>
<path id="path4_fill" d="M 41.7747 95.7011C 40.2763 88.7816 31.5437 73.1261 28.2279 66.5013C 24.9138 59.8764 21.6039 50.5469 23.1107 44.5289C 23.3903 43.4362 23.3953 38.9626 24.3036 38.3691C 31.3249 33.7828 30.8249 38.2155 33.6423 36.1611C 35.0948 35.1001 36.2577 33.8187 36.7627 32.0606C 38.5692 25.7397 34.2534 14.7305 29.4392 9.91468C 27.8706 8.34613 25.4589 7.35858 22.7417 6.83768C 21.6966 5.40352 20.0111 4.03197 17.6245 2.76227C 13.1242 0.373119 7.54533 -0.581872 2.37635 0.355588C 3.20279 0.430719 5.09441 2.14035 5.85573 2.25305C 4.70289 3.03441 1.63757 2.9334 1.65761 4.67058C 5.7614 4.25987 10.2584 4.90849 14.0408 6.58807C 11.0339 6.93034 8.23486 7.67329 6.26811 8.71093C 0.546512 11.7186 -0.957766 17.7366 0.546512 26.1696C 2.05496 34.5984 8.67896 65.2983 10.7776 75.5269C 12.8871 85.7614 6.26811 92.3795 2.05496 94.1876L 6.56947 94.4873L 5.06602 97.8039C 10.4788 98.4058 16.4984 96.6027 16.4984 96.6027C 15.298 99.9201 7.16884 101.116 7.16884 101.116C 7.16884 101.116 11.0806 102.317 17.4016 99.9092C 23.7301 97.5026 27.6435 95.9958 27.6435 95.9958L 30.6521 103.82L 36.3729 98.0994L 38.7862 104.122C 38.7729 104.128 43.284 102.622 41.7747 95.7011Z"/>
<path id="path5_fill" d="M 0 3.16132C 0 1.41412 1.41329 0 3.16299 0C 4.90768 0 6.32264 1.41412 6.32264 3.16132C 6.32264 4.90936 4.90768 6.32181 3.16299 6.32181C 1.41329 6.32264 0 4.90936 0 3.16132Z"/>
<path id="path6_fill" d="M 0 0.82059C 0 0.365634 0.368138 0 0.818085 0C 1.27137 0 1.63951 0.365634 1.63951 0.82059C 1.63951 1.27388 1.27137 1.64202 0.818085 1.64202C 0.368973 1.64285 0 1.27388 0 0.82059Z"/>
<path id="path7_fill" d="M 0 2.71304C 0 1.21628 1.21962 0 2.71471 0C 4.21816 0 5.43276 1.21628 5.43276 2.71304C 5.43276 4.21649 4.21816 5.43276 2.71471 5.43276C 1.21962 5.43276 0 4.21649 0 2.71304Z"/>
<path id="path8_fill" d="M 0 0.703721C 0 0.317217 0.316383 0 0.699548 0C 1.09941 0 1.40577 0.317217 1.40577 0.703721C 1.40577 1.09523 1.09941 1.40661 0.699548 1.40661C 0.316383 1.40661 0 1.09523 0 0.703721Z"/>
<path id="path9_fill" d="M 7.15217 1.21227C 7.15217 1.21227 4.7697 0.134566 2.45318 1.59043C 0.140835 3.04462 0.225983 4.53136 0.225983 4.53136C 0.225983 4.53136 -1.00365 1.79077 2.2737 0.447609C 5.5544 -0.895555 7.15217 1.21227 7.15217 1.21227Z"/>
<path id="path10_fill" d="M 6.51548 2.09497C 6.51548 2.09497 4.80334 1.11661 3.47436 1.1333C 0.743791 1.1692 2.37259e-14 2.37546 2.37259e-14 2.37546C 2.37259e-14 2.37546 0.458295 -0.500363 3.95019 0.0764704C 5.84348 0.391183 6.51548 2.09497 6.51548 2.09497Z"/>
<path id="path11_fill" d="M 0.0551791 10.4542C 0.371562 8.54166 5.31347 4.92371 8.81288 4.705C 12.3198 4.48378 13.4125 4.53387 16.3343 3.83432C 19.2644 3.13477 26.7983 1.25651 28.8836 0.293174C 30.9739 -0.671835 39.8225 0.77067 33.5842 4.24838C 30.8862 5.7585 23.6144 8.53165 18.4146 10.081C 13.223 11.6345 10.0751 8.59843 8.34707 11.1504C 6.97302 13.1806 8.06826 15.9604 14.2732 16.5372C 22.6519 17.3136 30.685 12.7632 31.5691 15.1807C 32.4573 17.5974 24.3691 20.6135 19.4438 20.7095C 14.5245 20.8021 4.60892 17.4571 3.11967 16.4212C 1.62874 15.3877 -0.357203 12.9735 0.0551791 10.4542Z"/>
<path id="path12_fill" d="M 12.0295 4.3395C 12.0295 4.3395 0.257423 -1.93891 0.0654228 0.608015C -0.133255 3.15911 0.0654228 13.5547 1.43697 14.341C 2.81102 15.1241 12.6197 9.24218 12.6197 9.24218L 12.0295 4.3395Z"/>
<path id="path13_fill" d="M 0.378156 5.70724C 0.378156 5.70724 8.42129 -0.374148 10.1902 0.0181997C 11.9524 0.41806 12.3456 12.9657 10.7754 13.5659C 9.20515 14.1419 0 10.3829 0 10.3829L 0.378156 5.70724Z"/>
<path id="path14_fill" d="M 0.0951266 1.9991C 0.0951266 6.11625 -0.496734 7.88348 1.27217 8.27583C 3.03273 8.67068 6.36768 8.27583 7.54806 7.4928C 8.72511 6.70978 7.74173 1.41643 7.3544 0.426375C 6.9562 -0.553659 0.0951266 0.232705 0.0951266 1.9991Z"/>
<path id="path15_fill" d="M 0.0946983 1.99878C 0.0946983 6.11676 -0.495493 7.884 1.27091 8.27551C 3.02896 8.67537 6.36642 8.27551 7.54764 7.49248C 8.72468 6.70695 7.74047 1.4161 7.35063 0.42521C 6.95578 -0.55399 0.0946983 0.235715 0.0946983 1.99878Z"/>
</defs>
</svg>
