<?xml version="1.0" encoding="UTF-8"?>
<svg width="98px" height="100px" viewBox="0 0 98 100" version="1.1" xmlns="http://www.w3.org/2000/svg" xmlns:xlink="http://www.w3.org/1999/xlink">
    <!-- Generator: Sketch 49 (51002) - http://www.bohemiancoding.com/sketch -->
    <title>v5 / Icons / Major Tracker Network</title>
    <desc>Created with Sketch.</desc>
    <defs>
        <path d="M22,37.5 C10.1,37.5 0.5,29.2 0.5,19 C0.5,8.8 10.1,0.5 22,0.5 C33.9,0.5 43.5,8.8 43.5,19 C43.5,29.2 33.9,37.5 22,37.5 Z M22,3.5 C11.8,3.5 3.5,10.5 3.5,19 C3.5,27.5 11.8,34.5 22,34.5 C32.2,34.5 40.5,27.5 40.5,19 C40.5,10.5 32.2,3.5 22,3.5 Z" id="path-1"></path>
        <path d="M20,31 C12.8202983,31 7,26.0751322 7,20 C7,13.9248678 12.8202983,9 20,9 C27.1797017,9 33,13.9248678 33,20 C33,26.0751322 27.1797017,31 20,31 Z M17,3.8 L17,2.3 C17,1.1 18,0.1 19.2,0.1 L20.7,0.1 C21.9,0.1 22.9,1.1 22.9,2.3 L22.9,3.8 C22.9,5 21.9,6 20.7,6 L19.2,6 C18,6 17,5 17,3.8 Z M34,30.8 L34,29.3 C34,28.1 35,27.1 36.2,27.1 L37.7,27.1 C38.9,27.1 39.9,28.1 39.9,29.3 L39.9,30.8 C39.9,32 38.9,33 37.7,33 L36.2,33 C35,33 34,32 34,30.8 Z M0,30.8 L0,29.3 C0,28.1 1,27.1 2.2,27.1 L3.7,27.1 C4.9,27.1 5.9,28.1 5.9,29.3 L5.9,30.8 C5.9,32 4.9,33 3.7,33 L2.2,33 C1,33 0,32 0,30.8 Z" id="path-3"></path>
        <ellipse id="path-5" cx="9" cy="8" rx="8.9" ry="7.5"></ellipse>
        <path d="M37,18 C32.0294373,18 28,13.9705627 28,9 C28,4.02943725 32.0294373,0 37,0 C41.9705627,0 46,4.02943725 46,9 C46,13.9705627 41.9705627,18 37,18 Z M9,18 C4.02943725,18 0,13.9705627 0,9 C0,4.02943725 4.02943725,0 9,0 C13.9705627,0 18,4.02943725 18,9 C18,13.9705627 13.9705627,18 9,18 Z M23,38 C18.0294373,38 14,33.9705627 14,29 C14,24.0294373 18.0294373,20 23,20 C27.9705627,20 32,24.0294373 32,29 C32,33.9705627 27.9705627,38 23,38 Z" id="path-7"></path>
    </defs>
    <g id="v5-/-Icons-/-Major-Tracker-Network" stroke="none" stroke-width="1" fill="none" fill-rule="evenodd">
        <g id="light" transform="translate(27.000000, 31.000000)">
            <mask id="mask-2" fill="white">
                <use xlink:href="#path-1"></use>
            </mask>
            <use id="Shape" fill="#E5E5E5" fill-rule="nonzero" xlink:href="#path-1"></use>
            <g id="v5-/-Color-/-Icon-Light" mask="url(#mask-2)">
                <g transform="translate(-2.000000, -3.000000)"></g>
            </g>
        </g>
        <g id="med" transform="translate(29.000000, 30.000000)">
            <mask id="mask-4" fill="white">
                <use xlink:href="#path-3"></use>
            </mask>
            <use id="Combined-Shape" fill="#DE5833" fill-rule="nonzero" xlink:href="#path-3"></use>
            <g id="v5-/-Color-/-Icon-Med" mask="url(#mask-4)">
                <g transform="translate(-4.000000, -2.000000)"></g>
            </g>
        </g>
        <g id="light" transform="translate(40.000000, 42.000000)">
            <mask id="mask-6" fill="white">
                <use xlink:href="#path-5"></use>
            </mask>
            <use id="Oval" fill="#FF8D6E" fill-rule="nonzero" xlink:href="#path-5"></use>
            <g id="v5-/-Color-/-Icon-Light" mask="url(#mask-6)">
                <g transform="translate(-15.000000, -14.000000)"></g>
            </g>
        </g>
        <g id="dark" transform="translate(26.000000, 34.000000)">
            <mask id="mask-8" fill="white">
                <use xlink:href="#path-7"></use>
            </mask>
            <use id="Combined-Shape" fill="#7D3623" fill-rule="nonzero" xlink:href="#path-7"></use>
            <g id="v5-/-Color-/-Icon-Dark" mask="url(#mask-8)">
                <g transform="translate(-1.000000, -6.000000)"></g>
            </g>
        </g>
        <g id="icons" transform="translate(29.000000, 38.000000)" fill="#FFFFFF" fill-rule="nonzero">
            <path d="M35.4,2 C35.5,2 36.1,2 36.5,2 L36.5,0 L34.9,0 C33.8,0 32.5,0.9 32.5,2 L32.5,4 L31.5,4 L31.5,6 L32.5,6 L32.5,10 L34.5,10 L34.5,6 L36,6 L36.5,4 L34.5,4 C34.5,3.8 34.5,3.2 34.5,3 C34.5,2.4 34.9,2 35.4,2 Z" id="Shape"></path>
            <path d="M10.6,4 L12.6,3 L10.5,3 C10.3,1.9 9.3,1 8.1,1 C8.1,1 8.1,1 8.1,1 C6.8,1 5.8,1.9 5.6,3.1 C3.4,2.8 2.1,2.1 0.6,1 C0.6,3 1.9,4 1.9,4 L0.9,4 C1.6,6 3.1,6 3.1,6 L1.6,6 C2.2,6.7 3,7.3 3.9,7.7 C3,8.4 1.9,8.7 0.5,8.8 C1.6,9.6 2.8,10.1 4.3,10.1 C6.9,10.1 9.9,8 10.5,5.1 L12.2,5.1 L10.6,4 Z" id="Shape"></path>
            <path d="M20,24 L20,26 L23.9,26 C23.5,27.7 21.9,29 20,29 C17.8,29 16,27.2 16,25 C16,22.8 17.8,21 20,21 C21.1,21 22.1,21.4 22.8,22.2 L24.2,20.8 C23.1,19.7 21.6,19 20,19 C16.7,19 14,21.7 14,25 C14,28.3 16.7,31 20,31 C23.3,31 26,28.3 26,25 L26,24 L20,24 Z" id="Shape"></path>
        </g>
        <g id="white" transform="translate(28.000000, 29.000000)" fill="#FFFFFF" fill-rule="nonzero">
            <path d="M21.8,8 L20.3,8 C18.5,8 17.1,6.5 17.1,4.8 L17.1,3.3 C17.1,1.5 18.6,0.1 20.3,0.1 L21.8,0.1 C23.6,0.1 25,1.6 25,3.3 L25,4.8 C25,6.5 23.5,8 21.8,8 Z M20.2,2 C19.5,2 19,2.6 19,3.2 L19,4.7 C19,5.4 19.6,5.9 20.2,5.9 L21.7,5.9 C22.4,5.9 22.9,5.3 22.9,4.7 L22.9,3.2 C22.9,2.5 22.3,2 21.7,2 L20.2,2 Z" id="Shape"></path>
            <path d="M38.8,35 L37.3,35 C35.5,35 34.1,33.5 34.1,31.8 L34.1,30.3 C34.1,28.5 35.6,27.1 37.3,27.1 L38.8,27.1 C40.6,27.1 42,28.6 42,30.3 L42,31.8 C42,33.5 40.5,35 38.8,35 Z M37.2,29 C36.5,29 36,29.6 36,30.2 L36,31.7 C36,32.4 36.6,32.9 37.2,32.9 L38.7,32.9 C39.4,32.9 39.9,32.3 39.9,31.7 L39.9,30.2 C39.9,29.5 39.3,29 38.7,29 L37.2,29 Z" id="Shape"></path>
            <path d="M4.8,35 L3.3,35 C1.5,35 0.1,33.5 0.1,31.8 L0.1,30.3 C0.1,28.5 1.6,27.1 3.3,27.1 L4.8,27.1 C6.6,27.1 8,28.6 8,30.3 L8,31.8 C8,33.5 6.5,35 4.8,35 Z M3.2,29 C2.5,29 2,29.6 2,30.2 L2,31.7 C2,32.4 2.6,32.9 3.2,32.9 L4.7,32.9 C5.4,32.9 5.9,32.3 5.9,31.7 L5.9,30.2 C5.9,29.5 5.3,29 4.7,29 L3.2,29 Z" id="Shape"></path>
        </g>
    </g>
</svg>