<?xml version="1.0" encoding="UTF-8"?>
<svg width="98px" height="100px" viewBox="0 0 98 100" version="1.1" xmlns="http://www.w3.org/2000/svg" xmlns:xlink="http://www.w3.org/1999/xlink">
    <!-- Generator: Sketch 49 (51002) - http://www.bohemiancoding.com/sketch -->
    <title>v5 / Icons / Shield</title>
    <desc>Created with Sketch.</desc>
    <defs>
        <path d="M20.0007389,15 C19.9899456,16.551564 20.2435743,18.0936265 20.7507389,19.56 L18.4207389,21.85 C17.4626466,19.6945987 16.9784047,17.358643 17.0007389,15 L17.0007389,4 L20.0007389,4 C21.1053084,4 22.0007389,3.1045695 22.0007389,2 L22.0007389,0 L40.0007389,0 L40.0007389,1.53 L37.4207389,4.06 C37.3200496,3.84808372 37.2396897,3.62709389 37.1807389,3.4 C37.1407389,3.27 37.0507389,3.14 37.0507389,3 L24.9007389,3 C24.6362345,4.25626891 23.8986393,5.36266178 22.8407389,6.09 C22.0086792,6.6751619 21.0179327,6.9926194 20.0007389,7 L20.0007389,15 Z M41.7707389,4 L45.0007389,4 L45.0007389,7 L45.0007389,15 C45.0007389,28.46 31.0007389,32 31.0007389,32 C27.5215621,30.9868786 24.3404258,29.1440844 21.7307389,26.63 L19.6007389,24.5 L25.6707389,18.57 C26.042395,18.2065871 26.5409384,18.0021485 27.0607389,18 L34.0007389,18 C34.5530236,18 35.0007389,17.5522847 35.0007389,17 L35.0007389,11.3 C35.0000869,10.75215 35.2241993,10.2280164 35.6207389,9.85 L41.7707389,4 Z M59,16 C57.3431458,16 56,14.6568542 56,13 C56,11.3431458 57.3431458,10 59,10 C60.6568542,10 62,11.3431458 62,13 C62,14.6568542 60.6568542,16 59,16 Z M3,16 C1.34314575,16 0,14.6568542 0,13 C0,11.3431458 1.34314575,10 3,10 C4.65685425,10 6,11.3431458 6,13 C6,14.6568542 4.65685425,16 3,16 Z" id="path-1"></path>
        <path d="M29.0007389,39.87 C26.3414629,38.967858 23.9162063,37.4853772 21.9007389,35.53 L25.5407389,32 L30.3807389,32 C33.4845792,32 36.0007389,29.4838403 36.0007389,26.38 L36.0007389,22.67 L40.0007389,18.84 L40.0007389,26 C40.0007389,35.42 31.5907389,39 29.0007389,39.87 Z M35.1807389,14.4 C35.2365677,14.6441612 35.3169779,14.8820413 35.4207389,15.11 L30.3007389,20.11 C30.1098832,20.2970714 30.0018483,20.5527541 30.0007389,20.82 L30.0007389,25 C30.0007389,25.5522847 29.5530236,26 29.0007389,26 L23.7707389,26 C23.5049359,25.9984632 23.2494577,26.1028135 23.0607389,26.29 L18.7507389,30.55 C18.2435562,29.0870843 17.9899108,27.5483021 18.0007389,26 L18.0007389,18 C19.0179327,17.9926194 20.0086792,17.6751619 20.8407389,17.09 C21.8986393,16.3626618 22.6362345,15.2562689 22.9007389,14 L35.0507389,14 C35.0807389,14.14 35.1807389,14.27 35.1807389,14.4 Z" id="path-3"></path>
        <path d="M52.79,21.38 L44.79,10.38 C44.4517696,9.92592364 44.40013,9.31938032 44.6567307,8.81466143 C44.9133315,8.30994253 45.4338266,7.99427444 46,8 L52,8 L52,11 L49,11 L55.26,19.62 L52.79,21.38 Z M3.21,21.38 L0.79,19.62 L7.05,11 L4,11 L4,8 L10,8 C10.5661734,7.99427444 11.0866685,8.30994253 11.3432693,8.81466143 C11.59987,9.31938032 11.5482304,9.92592364 11.21,10.38 L3.21,21.38 Z M51,0 L52,0 C52.5522847,-1.01453063e-16 53,0.44771525 53,1 L53,2 C53,2.55228475 52.5522847,3 52,3 L51,3 C50.4477153,3 50,2.55228475 50,2 L50,1 C50,0.44771525 50.4477153,1.01453063e-16 51,0 Z M4,0 L5,0 C5.55228475,-1.01453063e-16 6,0.44771525 6,1 L6,2 C6,2.55228475 5.55228475,3 5,3 L4,3 C3.44771525,3 3,2.55228475 3,2 L3,1 C3,0.44771525 3.44771525,1.01453063e-16 4,0 Z M45,18 L46,18 C46.5522847,18 47,18.4477153 47,19 L47,20 C47,20.5522847 46.5522847,21 46,21 L45,21 C44.4477153,21 44,20.5522847 44,20 L44,19 C44,18.4477153 44.4477153,18 45,18 Z M10,18 L11,18 C11.5522847,18 12,18.4477153 12,19 L12,20 C12,20.5522847 11.5522847,21 11,21 L10,21 C9.44771525,21 9,20.5522847 9,20 L9,19 C9,18.4477153 9.44771525,18 10,18 Z" id="path-5"></path>
    </defs>
    <g id="v5-/-Icons-/-Shield" stroke="none" stroke-width="1" fill="none" fill-rule="evenodd">
        <g id="dark" transform="translate(18.000000, 34.000000)">
            <mask id="mask-2" fill="white">
                <use xlink:href="#path-1"></use>
            </mask>
            <use id="Combined-Shape" fill="#C0C0C0" fill-rule="nonzero" xlink:href="#path-1"></use>
            <g id="v5-/-Color-/-Icon-Dark" mask="url(#mask-2)">
                <g transform="translate(-1.000000, -14.000000)"></g>
            </g>
        </g>
        <g id="med" transform="translate(20.000000, 23.000000)">
            <mask id="mask-4" fill="white">
                <use xlink:href="#path-3"></use>
            </mask>
            <use id="Combined-Shape" fill="#DADADA" fill-rule="nonzero" xlink:href="#path-3"></use>
            <g id="v5-/-Color-/-Icon-Med" mask="url(#mask-4)"></g>
        </g>
        <g id="light" transform="translate(21.000000, 38.000000)">
            <mask id="mask-6" fill="white">
                <use xlink:href="#path-5"></use>
            </mask>
            <use id="Combined-Shape" fill="#E5E5E5" fill-rule="nonzero" xlink:href="#path-5"></use>
            <g id="v5-/-Color-/-Icon-Light" mask="url(#mask-6)">
                <g transform="translate(-1.000000, -15.000000)"></g>
            </g>
        </g>
    </g>
</svg>