<svg width="632" height="434" viewBox="0 0 632 434" version="1.1" xmlns="http://www.w3.org/2000/svg" xmlns:xlink="http://www.w3.org/1999/xlink">
<title>illustration</title>
<desc>Created using Figma</desc>
<g id="Canvas" transform="translate(-5148 -2423)">
<g id="illustration">
<g id="bg elements">
<g id="Vector">
<use xlink:href="#path0_fill" transform="translate(5171.04 2771)" fill="#9EB7DD"/>
</g>
<g id="Vector">
<use xlink:href="#path0_fill" transform="translate(5148.42 2794.56)" fill="#9EB7DD"/>
</g>
<g id="Vector">
<use xlink:href="#path0_fill" transform="translate(5176.85 2621.15)" fill="#9EB7DD"/>
</g>
<g id="Vector">
<use xlink:href="#path0_fill" transform="translate(5703.66 2758.75)" fill="#9EB7DD"/>
</g>
<g id="Vector">
<use xlink:href="#path0_fill" transform="translate(5724.4 2781.36)" fill="#9EB7DD"/>
</g>
<g id="Vector">
<use xlink:href="#path0_fill" transform="translate(5403.97 2541.99)" fill="#9EB7DD"/>
</g>
<g id="Vector">
<use xlink:href="#path0_fill" transform="translate(5424.71 2564.61)" fill="#9EB7DD"/>
</g>
<g id="Vector">
<use xlink:href="#path1_fill" transform="translate(5485.11 2758.09)" fill="#9EB7DD"/>
</g>
<g id="Vector">
<use xlink:href="#path2_fill" transform="translate(5177.79 2852.05)" fill="#9EB7DD"/>
</g>
</g>
<g id="sheep-wolf">
<g id="Vector">
<use xlink:href="#path3_fill" transform="translate(5383.83 2667.09)" fill="#34333A"/>
</g>
<g id="Vector">
<use xlink:href="#path4_fill" transform="translate(5322.99 2628.69)" fill="#4776BA"/>
</g>
<g id="Vector">
<use xlink:href="#path5_fill" transform="translate(5325.75 2656.97)" fill="#34333A"/>
</g>
<g id="Vector">
<use xlink:href="#path6_fill" transform="translate(5242.83 2782.31)" fill="#4776BA"/>
</g>
<g id="Vector">
<use xlink:href="#path7_fill" transform="translate(5243.36 2782.31)" fill="#34333A"/>
</g>
<g id="Vector">
<use xlink:href="#path8_fill" transform="translate(5270.74 2822.83)" fill="#34333A"/>
</g>
<g id="Vector">
<use xlink:href="#path9_fill" transform="translate(5209.83 2743.68)" fill="#FFFFFF"/>
</g>
<g id="Vector">
<use xlink:href="#path10_fill" transform="translate(5262.61 2743.68)" fill="#D1D3D4"/>
</g>
<g id="Vector">
<use xlink:href="#path11_fill" transform="translate(5232.89 2772.88)" fill="#D1D3D4"/>
</g>
<g id="Vector">
<use xlink:href="#path12_fill" transform="translate(5218.51 2743.66)" fill="#D1D3D4"/>
</g>
<g id="Vector">
<use xlink:href="#path13_fill" transform="translate(5256.37 2743.67)" fill="#FFFFFF"/>
</g>
<g id="Vector">
<use xlink:href="#path8_fill" transform="translate(5355.56 2822.83)" fill="#34333A"/>
</g>
<g id="Vector">
<use xlink:href="#path14_fill" transform="translate(5403.34 2628.69)" fill="#34333A"/>
</g>
<g id="Vector">
<use xlink:href="#path15_fill" transform="translate(5329.64 2782.31)" fill="#34333A"/>
</g>
<g id="Vector">
<use xlink:href="#path16_fill" transform="translate(5329.64 2809.64)" fill="#34333A"/>
</g>
<g id="Vector">
<use xlink:href="#path17_fill" transform="translate(5236.61 2590.26)" fill="#FAB95A"/>
</g>
<g id="Vector">
<use xlink:href="#path18_fill" transform="translate(5244.16 2602.62)" fill="#F0785A"/>
</g>
<g id="Vector">
<use xlink:href="#path19_fill" transform="translate(5268.73 2651.4)" fill="#FAB95A"/>
</g>
<g id="Vector">
<use xlink:href="#path20_fill" transform="translate(5275.8 2652.09)" fill="#F0785A"/>
</g>
<g id="Vector">
<use xlink:href="#path21_fill" transform="translate(5207.13 2715.39)" fill="#FAB95A"/>
</g>
<g id="Vector">
<use xlink:href="#path22_fill" transform="translate(5275.46 2638.04)" fill="#D1D3D4"/>
</g>
<g id="Vector">
<use xlink:href="#path23_fill" transform="translate(5267.21 2640.39)" fill="#FFFFFF"/>
</g>
<g id="Vector">
<use xlink:href="#path24_fill" transform="translate(5272.03 2624)" fill="#FFFFFF"/>
</g>
<g id="Vector">
<use xlink:href="#path25_fill" transform="translate(5249.54 2558)" fill="#FFFFFF"/>
</g>
<g id="Vector">
<use xlink:href="#path26_fill" transform="translate(5284.61 2609.84)" fill="#D1D3D4"/>
</g>
<g id="Vector">
<use xlink:href="#path27_fill" transform="translate(5314.44 2571.64)" fill="#D1D3D4"/>
</g>
<g id="Vector">
<use xlink:href="#path28_fill" transform="translate(5262.61 2589.11)" fill="#FAB95A"/>
</g>
<g id="Vector">
<use xlink:href="#path29_fill" transform="translate(5262.61 2589.11)" fill="#F0785A"/>
</g>
<g id="Vector">
<use xlink:href="#path30_fill" transform="translate(5274.61 2595.71)" fill="#F0785A"/>
</g>
<g id="Vector">
<use xlink:href="#path31_fill" transform="translate(5289.59 2574.97)" fill="#FFFFFF"/>
</g>
<g id="Vector">
<use xlink:href="#path32_fill" transform="translate(5271.91 2623.97)" fill="#F0785A"/>
</g>
<g id="Vector">
<use xlink:href="#path33_fill" transform="translate(5283.87 2631.52)" fill="#FFFFFF"/>
</g>
<g id="Vector">
<use xlink:href="#path34_fill" transform="translate(5277.56 2633.85)" fill="#D1D3D4"/>
</g>
<g id="Vector">
<use xlink:href="#path35_fill" transform="translate(5287.11 2692.78)" fill="#D1D3D4"/>
</g>
<g id="Vector">
<use xlink:href="#path36_fill" transform="translate(5307.26 2564.61)" fill="#D1D3D4"/>
</g>
<g id="Vector">
<use xlink:href="#path37_fill" transform="translate(5303.73 2570.5)" fill="#D1D3D4"/>
</g>
<g id="Vector">
<use xlink:href="#path38_fill" transform="translate(5226.8 2813.41)" fill="#F0785A"/>
</g>
<g id="Vector">
<use xlink:href="#path39_fill" transform="translate(5176.04 2672.98)" fill="#E17257"/>
</g>
<g id="Vector">
<use xlink:href="#path40_fill" transform="translate(5299.36 2721.05)" fill="#D1D3D4"/>
</g>
<g id="Vector">
<use xlink:href="#path41_fill" transform="translate(5246.65 2673.04)" fill="#8F3A26"/>
</g>
<g id="Vector">
<use xlink:href="#path42_fill" transform="translate(5192.6 2728.59)" fill="#8F3A26"/>
</g>
<g id="Vector">
<use xlink:href="#path43_fill" transform="translate(5249.48 2822.83)" fill="#FAB95A"/>
</g>
<g id="Vector">
<use xlink:href="#path44_fill" transform="translate(5258.96 2822.83)" fill="#F0785A"/>
</g>
<g id="Vector">
<use xlink:href="#path45_fill" transform="translate(5258.2 2813.41)" fill="#F0785A"/>
</g>
<g id="Vector">
<use xlink:href="#path46_fill" transform="translate(5219.26 2813.41)" fill="#F0785A"/>
</g>
<g id="Vector">
<use xlink:href="#path47_fill" transform="translate(5219.26 2822.83)" fill="#FAB95A"/>
</g>
<g id="Vector">
<use xlink:href="#path48_fill" transform="translate(5310.67 2635.29)" fill="#D1D3D4"/>
</g>
<g id="Vector">
<use xlink:href="#path49_fill" transform="translate(5313.5 2643.59)" fill="#D1D3D4"/>
</g>
<g id="Vector">
<use xlink:href="#path50_fill" transform="translate(5314.44 2643.59)" fill="#FAB95A"/>
</g>
<g id="Vector">
<use xlink:href="#path51_fill" transform="translate(5324.86 2643.54)" fill="#F0785A"/>
</g>
<g id="Vector">
<use xlink:href="#path52_fill" transform="translate(5329.36 2643.59)" fill="#F0785A"/>
</g>
<g id="Vector">
<use xlink:href="#path53_fill" transform="translate(5316.33 2617.98)" fill="#FFFFFF"/>
</g>
<g id="Vector">
<use xlink:href="#path54_fill" transform="translate(5342.71 2631.52)" fill="#D1D3D4"/>
</g>
<g id="Vector">
<use xlink:href="#path36_fill" transform="translate(5344.96 2650.6)" fill="#D1D3D4"/>
</g>
<g id="Vector">
<use xlink:href="#path55_fill" transform="translate(5315.37 2592.3)" fill="#D1D3D4"/>
</g>
<g id="Vector">
<use xlink:href="#path56_fill" transform="translate(5315.38 2592.26)" fill="#FAB95A"/>
</g>
<g id="Vector">
<use xlink:href="#path57_fill" transform="translate(5316.98 2592.27)" fill="#F0785A"/>
</g>
<g id="Vector">
<use xlink:href="#path58_fill" transform="translate(5241.29 2843.56)" fill="#34333A"/>
</g>
<g id="Vector">
<use xlink:href="#path59_fill" transform="translate(5210.68 2843.57)" fill="#34333A"/>
</g>
<g id="Vector">
<use xlink:href="#path60_fill" transform="translate(5329.52 2723.87)" fill="#34333A"/>
</g>
<g id="Vector">
<use xlink:href="#path61_fill" transform="translate(5370.04 2723.88)" fill="#4776BA"/>
</g>
<g id="Vector">
<use xlink:href="#path62_fill" transform="translate(5405.86 2791.73)" fill="#8F3A26"/>
</g>
<g id="Vector">
<use xlink:href="#path63_fill" transform="translate(5438.84 2791.73)" fill="#E17257"/>
</g>
<g id="Vector">
<use xlink:href="#path64_fill" transform="translate(5479.17 2791.73)" fill="#8F3A26"/>
</g>
<g id="Vector">
<use xlink:href="#path65_fill" transform="translate(5403.97 2826.6)" fill="#FAB95A"/>
</g>
<g id="Vector">
<use xlink:href="#path66_fill" transform="translate(5436.02 2812.46)" fill="#FFFFFF"/>
</g>
<g id="Vector">
<use xlink:href="#path67_fill" transform="translate(5433.19 2812.46)" fill="#60A5DA"/>
</g>
<g id="Vector">
<use xlink:href="#path68_fill" transform="translate(5464.29 2812.46)" fill="#34333A"/>
</g>
<g id="Vector">
<use xlink:href="#path69_fill" transform="translate(5471.83 2812.46)" fill="#60A5DA"/>
</g>
<g id="Vector">
<use xlink:href="#path69_fill" transform="translate(5487.85 2812.46)" fill="#60A5DA"/>
</g>
<g id="Vector">
<use xlink:href="#path70_fill" transform="translate(5403.97 2791.73)" fill="#FAB95A"/>
</g>
<g id="Vector">
<use xlink:href="#path71_fill" transform="translate(5446.38 2819.06)" fill="#34333A"/>
</g>
<g id="Vector">
<use xlink:href="#path72_fill" transform="translate(5467.17 2735.42)" fill="#FFFFFF"/>
</g>
<g id="Vector">
<use xlink:href="#path73_fill" transform="translate(5432.36 2766.28)" fill="#FFFFFF"/>
</g>
<g id="Vector">
<use xlink:href="#path74_fill" transform="translate(5442.61 2756.86)" fill="#FFFFFF"/>
</g>
<g id="Vector">
<use xlink:href="#path75_fill" transform="translate(5456.01 2756.86)" fill="#D1D3D4"/>
</g>
<g id="Vector">
<use xlink:href="#path76_fill" transform="translate(5442.61 2761.57)" fill="#E17257"/>
</g>
<g id="Vector">
<use xlink:href="#path77_fill" transform="translate(5469.94 2761.57)" fill="#8F3A26"/>
</g>
<g id="Vector">
<use xlink:href="#path76_fill" transform="translate(5442.61 2771)" fill="#E17257"/>
</g>
<g id="Vector">
<use xlink:href="#path77_fill" transform="translate(5469.94 2771)" fill="#8F3A26"/>
</g>
<g id="Vector">
<use xlink:href="#path78_fill" transform="translate(5265.45 2577.8)" fill="#FFFFFF"/>
</g>
<g id="Vector">
<use xlink:href="#path79_fill" transform="translate(5266.5 2578.22)" fill="#D1D3D4"/>
</g>
<g id="Vector">
<use xlink:href="#path80_fill" transform="translate(5287.23 2727.65)" fill="#286FA6"/>
</g>
<g id="Vector">
<use xlink:href="#path81_fill" transform="translate(5305.02 2727.65)" fill="#34333A"/>
</g>
<g id="Vector">
<use xlink:href="#path3_fill" transform="translate(5379.12 2749.56)" fill="#34333A"/>
</g>
<g id="Vector">
<use xlink:href="#path3_fill" transform="translate(5407.39 2667.09)" fill="#34333A"/>
</g>
<g id="Vector">
<use xlink:href="#path82_fill" transform="translate(5209.83 2700.32)" fill="#FFFFFF"/>
</g>
<g id="Vector">
<use xlink:href="#path83_fill" transform="translate(5259.8 2601.36)" fill="#497DA6"/>
</g>
<g id="Vector">
<use xlink:href="#path84_fill" transform="translate(5269.21 2606.07)" fill="#34333A"/>
</g>
<g id="Vector">
<use xlink:href="#path85_fill" transform="translate(5294.65 2606.07)" fill="#34333A"/>
</g>
<g id="Vector">
<use xlink:href="#path86_fill" transform="translate(5667.85 2492.04)" fill="#FFFFFF"/>
</g>
<g id="Vector">
<use xlink:href="#path87_fill" transform="translate(5677.28 2478.85)" fill="#FFFFFF"/>
</g>
<g id="Vector">
<use xlink:href="#path88_fill" transform="translate(5653.72 2423.24)" fill="#FFFFFF"/>
</g>
<g id="Vector">
<use xlink:href="#path89_fill" transform="translate(5682.87 2433.8)" fill="#E17257"/>
</g>
<g id="Vector">
<use xlink:href="#path90_fill" transform="translate(5716.86 2505.65)" fill="#FFFFFF"/>
</g>
<g id="Vector">
<use xlink:href="#path91_fill" transform="translate(5731.59 2519.95)" fill="#D1D3D4"/>
</g>
<g id="Vector">
<use xlink:href="#path92_fill" transform="translate(5684.82 2600.59)" fill="#4776BA"/>
</g>
<g id="Vector">
<use xlink:href="#path93_fill" transform="translate(5684.82 2600.59)" fill="#34333A"/>
</g>
<g id="Vector">
<use xlink:href="#path94_fill" transform="translate(5562.3 2450.93)" fill="#4776BA"/>
</g>
<g id="Vector">
<use xlink:href="#path95_fill" transform="translate(5646.37 2841.68)" fill="#0D7393"/>
</g>
<g id="Vector">
<use xlink:href="#path96_fill" transform="translate(5597.17 2701.26)" fill="#34333A"/>
</g>
<g id="Vector">
<use xlink:href="#path97_fill" transform="translate(5603.68 2738.36)" fill="#4776BA"/>
</g>
<g id="Vector">
<use xlink:href="#path98_fill" transform="translate(5641.27 2695.6)" fill="#4776BA"/>
</g>
<g id="Vector">
<use xlink:href="#path99_fill" transform="translate(5601.23 2841.68)" fill="#0D7393"/>
</g>
<g id="Vector">
<use xlink:href="#path100_fill" transform="translate(5589.63 2626.81)" fill="#0D7393"/>
</g>
<g id="Vector">
<use xlink:href="#path101_fill" transform="translate(5596.23 2606.07)" fill="#4776BA"/>
</g>
<g id="Vector">
<use xlink:href="#path102_fill" transform="translate(5652.24 2640.94)" fill="#34333A"/>
</g>
<g id="Vector">
<use xlink:href="#path103_fill" transform="translate(5584.34 2485.44)" fill="#D1D3D4"/>
</g>
<g id="Vector">
<use xlink:href="#path104_fill" transform="translate(5531.2 2508.06)" fill="#FFFFFF"/>
</g>
<g id="Vector">
<use xlink:href="#path105_fill" transform="translate(5531.2 2508.06)" fill="#34333A"/>
</g>
<g id="Vector">
<use xlink:href="#path106_fill" transform="translate(5564.7 2525.52)" fill="#D1D3D4"/>
</g>
<g id="Vector">
<use xlink:href="#path107_fill" transform="translate(5575.51 2536.33)" fill="#D1D3D4"/>
</g>
<g id="Vector">
<use xlink:href="#path108_fill" transform="translate(5560.78 2536.33)" fill="#D1D3D4"/>
</g>
<g id="Vector">
<use xlink:href="#path109_fill" transform="translate(5599.05 2596.76)" fill="#FFFFFF"/>
</g>
<g id="Vector">
<use xlink:href="#path110_fill" transform="translate(5596.23 2667.33)" fill="#34333A"/>
</g>
<g id="Vector">
<use xlink:href="#path111_fill" transform="translate(5650.47 2607.36)" fill="#34333A"/>
</g>
<g id="Vector">
<use xlink:href="#path112_fill" transform="translate(5599.05 2648.48)" fill="#D1D3D4"/>
</g>
<g id="Vector">
<use xlink:href="#path113_fill" transform="translate(5667.29 2568.4)" fill="#0D7393"/>
</g>
<g id="Vector">
<use xlink:href="#path114_fill" transform="translate(5541.83 2590.99)" fill="#FFFFFF"/>
</g>
<g id="Vector">
<use xlink:href="#path115_fill" transform="translate(5541.78 2590.99)" fill="#D1D3D4"/>
</g>
<g id="Vector">
<use xlink:href="#path116_fill" transform="translate(5609.9 2593.82)" fill="#8FB3FF"/>
</g>
<g id="Vector">
<use xlink:href="#path117_fill" transform="matrix(0.382683 -0.92388 0.92388 0.382683 5561.33 2604.22)" fill="#34333A"/>
</g>
<g id="Vector">
<use xlink:href="#path118_fill" transform="translate(5589.63 2576.86)" fill="#4776BA"/>
</g>
<g id="Vector">
<use xlink:href="#path119_fill" transform="translate(5495.45 2602.3)" fill="#FAB95A"/>
</g>
<g id="Vector">
<use xlink:href="#path120_fill" transform="translate(5538.74 2581.57)" fill="#FFFFFF"/>
</g>
<g id="Vector">
<use xlink:href="#path121_fill" transform="translate(5502.94 2587.22)" fill="#34333A"/>
</g>
<g id="Vector">
<use xlink:href="#path122_fill" transform="translate(5615.08 2540.87)" fill="#D1D3D4"/>
</g>
<g id="Vector">
<use xlink:href="#path123_fill" transform="translate(5600.94 2483.56)" fill="#34333A"/>
</g>
<g id="Vector">
<use xlink:href="#path124_fill" transform="translate(5623.56 2492.04)" fill="#34333A"/>
</g>
<g id="Vector">
<use xlink:href="#path125_fill" transform="translate(5605.65 2498.64)" fill="#34333A"/>
</g>
<g id="Vector">
<use xlink:href="#path125_fill" transform="translate(5628.27 2498.64)" fill="#34333A"/>
</g>
<g id="Vector">
<use xlink:href="#path126_fill" transform="translate(5650.54 2464.47)" fill="#FFFFFF"/>
</g>
<g id="Vector">
<use xlink:href="#path127_fill" transform="translate(5608.48 2464.47)" fill="#FFFFFF"/>
</g>
<g id="Vector">
<use xlink:href="#path128_fill" transform="translate(5681.99 2763.46)" fill="#34333A"/>
</g>
<g id="Vector">
<use xlink:href="#path129_fill" transform="translate(5634.87 2763.46)" fill="#34333A"/>
</g>
<g id="Vector">
<use xlink:href="#path130_fill" transform="translate(5556.83 2602.3)" fill="#F0785A"/>
</g>
<g id="Vector">
<use xlink:href="#path131_fill" transform="translate(5542.16 2637.15)" fill="#F0785A"/>
</g>
<g id="Vector">
<use xlink:href="#path132_fill" transform="translate(5556.3 2638.85)" fill="#FFFFFF"/>
</g>
<g id="Vector">
<use xlink:href="#path133_fill" transform="translate(5646.36 2701.9)" fill="#34333A"/>
</g>
<g id="Vector">
<use xlink:href="#path134_fill" transform="translate(5655.76 2526.91)" fill="#34333A"/>
</g>
<g id="Vector">
<use xlink:href="#path135_fill" transform="translate(5601.23 2822.83)" fill="#FFFFFF"/>
</g>
<g id="Vector">
<use xlink:href="#path136_fill" transform="translate(5646.37 2822.83)" fill="#FFFFFF"/>
</g>
<g id="Vector">
<use xlink:href="#path137_fill" transform="translate(5625.54 2822.83)" fill="#D1D3D4"/>
</g>
<g id="Vector">
<use xlink:href="#path138_fill" transform="translate(5677.28 2822.83)" fill="#D1D3D4"/>
</g>
<g id="Vector">
<use xlink:href="#path139_fill" transform="translate(5448.32 2717.51)" fill="#FFFFFF"/>
</g>
</g>
</g>
</g>
<defs>
<path id="path0_fill" d="M 40.9955 0L 2.35606 0C 1.05485 0 0 1.05485 0 2.35606L 0 14.6076C 0 15.9088 1.05485 16.9637 2.35606 16.9637L 40.9955 16.9637C 42.2967 16.9637 43.3516 15.9088 43.3516 14.6076L 43.3516 2.35606C 43.3516 1.05485 42.2967 0 40.9955 0Z"/>
<path id="path1_fill" d="M 66.3562 41.1793L 106.061 41.1793C 99.4636 32.6975 89.1911 27.9854 76.3364 27.9854L 66.4033 27.9854L 94.7797 0.249787C 84.1115 -1.09788 72.1615 3.07705 63.0671 11.8982C 58.289 16.5537 55.4052 21.9915 53.0491 27.6084C 50.9891 21.6557 47.5536 16.2731 43.0217 11.8982C 33.9367 3.03935 21.9679 -1.09788 11.2997 0.249787L 39.6573 27.9854L 29.7241 27.9854C 16.8788 27.9854 6.5687 32.6975 -3.45126e-06 41.1793L 39.7044 41.1793C 37.3483 42.1217 35.0959 44.3459 32.9943 46.3909C 23.9093 55.2403 19.9229 66.851 21.2988 77.2459L 34.7849 64.3347L 35.0111 65.6824L 40.9201 93.9551L 65.3007 93.9551L 71.2097 65.6824L 71.4359 64.297L 84.7335 77.1894C 86.1188 66.8227 82.1229 55.2403 73.038 46.3909C 70.9646 44.3459 68.7122 42.1217 66.3562 41.1793Z"/>
<path id="path2_fill" d="M 535.298 0L 1.88485 0C 0.843876 0 0 0.843876 0 1.88485L 0 2.82728C 0 3.86825 0.843876 4.71213 1.88485 4.71213L 535.298 4.71213C 536.339 4.71213 537.182 3.86825 537.182 2.82728L 537.182 1.88485C 537.182 0.843876 536.339 0 535.298 0Z"/>
<path id="path3_fill" d="M 3.5341 7.06819C 5.48593 7.06819 7.06819 5.48592 7.06819 3.53409C 7.06819 1.58227 5.48593 0 3.5341 0C 1.58227 0 4.60169e-06 1.58227 4.60169e-06 3.53409C 4.60169e-06 5.48592 1.58227 7.06819 3.5341 7.06819Z"/>
<path id="path4_fill" d="M 134.978 0L 51.3377 0C 39.9532 0 29.1059 8.99074 27.1174 20.3847L 0.314802 173.529C -1.67372 184.913 5.96935 194.149 17.2785 194.149L 100.919 194.149C 112.303 194.149 123.151 184.8 125.139 173.416L 151.942 20.4506C 153.987 9.0567 146.372 0 134.978 0Z"/>
<path id="path5_fill" d="M 78.2213 125.333L 78.2213 60.1927C 78.2213 26.6895 52.7099 -5.1769e-06 19.2066 -5.1769e-06L 0 -5.1769e-06L 0 125.333L 78.2213 125.333Z"/>
<path id="path6_fill" d="M 87.6361 27.3303L 87.6361 13.194C 87.7069 9.69574 89.1364 6.36241 91.6219 3.89976C 94.1075 1.4371 97.4539 0.03846 100.953 5.35707e-14L 12.6002 5.35707e-14C 5.44722 5.35707e-14 -5.1769e-06 6.04095 -5.1769e-06 13.194L -5.1769e-06 27.3303C -5.1769e-06 34.4833 5.44722 40.5243 12.6096 40.5243L 100.962 40.5243C 97.4617 40.4883 94.1129 39.0907 91.6253 36.6278C 89.1378 34.1649 87.707 30.8302 87.6361 27.3303Z"/>
<path id="path7_fill" d="M 90.7084 8.48183C 91.6462 6.02771 93.2953 3.90941 95.4444 2.39831C 97.5935 0.887214 100.145 0.0521216 102.771 0L 12.063 0C 9.43638 0.0521216 6.88506 0.887214 4.73594 2.39831C 2.58683 3.90941 0.937767 6.02771 1.72563e-06 8.48183L 90.7084 8.48183Z"/>
<path id="path8_fill" d="M 4.60169e-06 0L 3.5341 29.2152L 10.6023 29.2152L 14.1364 0L 4.60169e-06 0Z"/>
<path id="path9_fill" d="M 119.436 10.4798L 119.256 10.0934C 113.602 4.04301 105.506 9.20337e-06 98.1367 9.20337e-06L 29.1041 9.20337e-06C 25.2554 0.00603743 21.446 0.774168 17.8957 2.26007C 14.3455 3.74597 11.1246 5.92021 8.41901 8.65736C 5.7134 11.3945 3.57661 14.6404 2.13196 18.2076C 0.687306 21.7749 -0.0366173 25.5929 0.00196125 29.4414L 0.00196125 61.0692C -0.046191 63.3093 0.793987 65.4774 2.33902 67.1001C 3.88406 68.7229 6.00841 69.6683 8.24818 69.73L 25.0987 69.73C 27.401 69.693 29.6013 68.774 31.246 67.1626C 32.8907 65.5512 33.8545 63.3702 33.9387 61.0692L 33.9387 38.63L 102.425 38.63C 118.022 38.63 125.646 26.0863 119.436 10.4798Z"/>
<path id="path10_fill" d="M 81.9917 10.4798L 81.8126 10.0934C 76.158 4.04301 68.0626 9.20337e-06 60.6928 9.20337e-06L 8.2186 9.20337e-06C 6.76378 0.00132201 5.33678 0.398797 4.09078 1.14977C 2.82937 1.89562 1.78703 2.961 1.06891 4.23839C 0.350786 5.51579 -0.0176934 6.96 0.00065311 8.42529L 0.00065311 38.63L 64.9526 38.63C 80.5592 38.63 88.1834 26.0863 81.9917 10.4798Z"/>
<path id="path11_fill" d="M 8.42538 0C 6.1663 0.0518371 4.01783 0.988354 2.44218 2.60806C 0.866533 4.22777 -0.0103791 6.40124 9.38915e-05 8.66089L 0.0472108 40.5243L 2.02631 40.5243C 4.32856 40.4872 6.52884 39.5682 8.17356 37.9568C 9.81829 36.3454 10.7821 34.1644 10.8663 31.8634L 10.8663 9.42425L 81.7084 9.42425C 90.0771 9.42425 96.1463 5.65455 99.0301 0L 8.42538 0Z"/>
<path id="path12_fill" d="M 53.5203 4.13497L 53.5203 0.0071394L 20.4224 0.0071394C 16.6152 -0.0798947 12.8319 0.62966 9.31501 2.09029C 5.79813 3.55093 2.62531 5.7304 -8.62816e-07 8.48897L 48.6951 8.48897C 51.2868 8.48897 53.5203 6.39679 53.5203 4.13497Z"/>
<path id="path13_fill" d="M 112.731 0L 33.1907 0C 31.5545 0.0315623 29.9454 0.42417 28.4786 1.14976C 25.3089 2.63082 22.7889 5.21789 21.3915 8.42528L 0.658162 61.2011C -1.22669 65.8567 1.08226 69.7395 5.72842 69.7395L 22.6355 69.7395C 27.2911 69.7395 32.5593 65.7342 34.4064 61.0786L 42.9919 38.6394L 101.545 38.6394C 105.239 38.6631 108.901 37.9549 112.319 36.5556C 115.738 35.1564 118.845 33.0939 121.463 30.4872C 124.08 27.8805 126.155 24.7812 127.568 21.3682C 128.981 17.9552 129.704 14.2962 129.695 10.6023L 129.695 10.1593C 126.868 4.10897 120.101 0 112.731 0Z"/>
<path id="path14_fill" d="M 54.623 0C 43.2385 0 32.3912 8.75514 30.4026 20.1491L 17.5197 93.8938L -1.26546e-05 194.14L 28.2727 194.14C 35.4258 194.14 42.2489 188.221 43.5023 181.068L 71.6432 20.2056C 73.6317 8.8211 66.0169 0 54.623 0Z"/>
<path id="path15_fill" d="M 131.817 0L 12.9584 0C 9.50009 0.0617645 6.20437 1.47907 3.78075 3.94675C 1.35713 6.41443 -0.000546742 9.73514 4.76964e-06 13.194L 131.817 13.194L 131.817 0Z"/>
<path id="path16_fill" d="M 131.817 13.194L 12.9584 13.194C 9.50009 13.1322 6.20437 11.7149 3.78075 9.2472C 1.35713 6.77952 -0.000546742 3.45881 4.76964e-06 0L 131.817 0L 131.817 13.194Z"/>
<path id="path17_fill" d="M 16.5207 3.78856L 3.45126e-06 10.3855C 1.33731 13.6154 3.63467 16.3564 6.58113 18.2375C 9.5276 20.1187 12.9809 21.0492 16.4736 20.903C 18.4931 20.8256 20.4834 20.395 22.3543 19.6307L 26.0015 18.2077L 26.0015 1.15042e-06L 16.5207 3.78856Z"/>
<path id="path18_fill" d="M 8.90592 3.77913C 4.25033 5.56974 1.866 6.45562 -1.72563e-06 6.45562C 2.72403 7.96873 5.81101 8.70543 8.92477 8.58549C 10.9443 8.50809 12.9346 8.0775 14.8055 7.31323L 18.4527 5.89015L 18.4527 -3.45126e-06L 8.90592 3.77913Z"/>
<path id="path19_fill" d="M 18.3773 9.49973C 18.8283 7.50017 19.7738 5.64573 21.1273 4.10627C 22.4807 2.5668 24.1987 1.39152 26.124 0.688063C 25.0588 0.228923 23.9101 -0.00528655 22.7501 9.64782e-05C 20.0628 0.0965898 17.4831 1.07995 15.4134 2.79673C 13.3437 4.51351 11.9005 6.86712 11.3091 9.49031L 0 63.9813L 7.06819 63.9813L 18.3773 9.49973Z"/>
<path id="path20_fill" d="M 23.325 8.92477C 24.1261 4.89119 22.3072 1.38537 19.0558 1.72563e-06C 17.1305 0.70346 15.4125 1.87874 14.0591 3.41821C 12.7057 4.95767 11.7601 6.81211 11.3091 8.81167L 0 63.3027L 12.2515 63.3027L 23.325 8.92477Z"/>
<path id="path21_fill" d="M 68.6745 0L 16.9637 0C 12.4646 0 8.14984 1.78722 4.96854 4.96853C 1.78724 8.14983 -2.58845e-06 12.4646 -2.58845e-06 16.9637L 77.5993 16.9637L 80.9261 0L 68.6745 0Z"/>
<path id="path22_fill" d="M 25.9073 0.071829L 9.41483 0.071829C 8.63154 0.00188162 7.84452 -0.0170045 7.05877 0.0152858C 4.55635 0.31205 2.14807 1.14803 -5.75211e-07 2.46558C 2.52179 4.04462 4.60092 6.23862 6.0422 8.84159C 7.48348 11.4446 8.23962 14.3711 8.23962 17.3465C 8.23962 20.3218 7.48348 23.2484 6.0422 25.8514C 4.60092 28.4543 2.52179 30.6483 -5.75211e-07 32.2274C 2.14129 33.5776 4.54924 34.4489 7.05877 34.7814C 7.8397 34.887 8.62679 34.9405 9.41483 34.9416L 25.9073 34.9416C 30.5313 34.9416 34.9659 33.1047 38.2356 29.835C 41.5053 26.5653 43.3421 22.1307 43.3421 17.5067C 43.3421 12.8827 41.5053 8.44805 38.2356 5.17838C 34.9659 1.90871 30.5313 0.071829 25.9073 0.071829Z"/>
<path id="path23_fill" d="M 16.4942 14.928C 16.4945 11.9465 15.7392 9.01348 14.2988 6.40295C 12.8584 3.79242 10.7799 1.58952 8.25736 3.45126e-06C 5.72987 1.58468 3.64628 3.78533 2.20198 6.39557C 0.757683 9.00581 3.016e-06 11.9401 3.016e-06 14.9233C 3.016e-06 17.9065 0.757683 20.8408 2.20198 23.451C 3.64628 26.0613 5.72987 28.2619 8.25736 29.8466C 10.7785 28.2579 12.8562 26.0565 14.2965 23.4478C 15.7368 20.839 16.4929 17.908 16.4942 14.928Z"/>
<path id="path24_fill" d="M 112.152 119.669L 112.152 96.7023C 112.152 92.4708 108.383 89.521 104.142 89.521L 103.557 89.521C 102.308 89.521 101.109 89.0245 100.225 88.1408C 99.3417 87.2571 98.8452 86.0586 98.8452 84.8089C 98.8452 83.5591 99.3417 82.3606 100.225 81.4769C 101.109 80.5932 102.308 80.0967 103.557 80.0967L 104.151 80.0967C 106.265 80.0048 108.267 79.1161 109.753 77.6091C 111.239 76.1021 112.099 74.0885 112.162 71.973L 112.162 60.1927C 112.162 26.6895 86.4146 4.02648e-06 52.9114 4.02648e-06L 25.4491 4.02648e-06L 25.4491 17.2652C 19.7946 21.1103 15.0824 29.1398 15.0824 38.4038L 15.0824 74.904C 10.3605 78.1582 6.51397 82.5269 3.88376 87.6229C 1.25356 92.7189 -0.0791692 98.385 0.00363586 104.119L 0.00363586 119.669L 112.152 119.669Z"/>
<path id="path25_fill" d="M 78.0988 46.956L 78.0988 40.6418C 80.5165 39.48 82.5566 37.6586 83.984 35.3876C 85.4113 33.1165 86.1677 30.4883 86.1659 27.806C 86.1381 24.2527 84.7588 20.8433 82.3083 18.2703C 79.8577 15.6972 76.5196 14.1533 72.972 13.9523C 71.9259 5.38566 65.5457 0.00440358 56.5738 0.00440358L 31.4205 0.00440358C 26.8455 -0.091007 22.3731 1.36644 18.7328 4.13905C 15.0925 6.91167 12.4989 10.8359 11.3751 15.2717C 8.21944 15.7582 5.34067 17.3539 3.25578 19.7722C 1.1709 22.1904 0.0165337 25.2728 4.60169e-06 28.4656C 4.60169e-06 34.1862 3.5341 38.4177 8.24623 40.7737C 9.98029 41.6408 12.9583 41.9235 15.9081 41.9235C 25.9261 41.9235 32.9943 49.7927 32.9943 59.2264C 32.9943 59.8201 32.9943 60.2725 32.9001 61.2149L 32.9943 61.2149C 33.0407 64.9497 34.545 68.5184 37.1861 71.1595C 39.8272 73.8006 43.3959 75.3049 47.1307 75.3513L 83.8382 75.3513C 86.6654 71.5816 88.5503 67.8684 88.5503 63.3354C 88.4597 59.9135 87.439 56.5809 85.5977 53.6952C 83.7564 50.8096 81.164 48.4798 78.0988 46.956Z"/>
<path id="path26_fill" d="M 12.8696 0L 12.8696 29.0456C 10.9848 30.4592 1.74901 37.0467 0.0903408 39.4688C -0.0698715 39.7044 0.0337884 40.5337 0.0243641 40.5337L 4.22759 40.5337C 4.22759 40.5337 4.18047 40.6845 4.22759 40.6562C 10.1794 40.229 15.7474 37.5594 19.8073 33.1863C 23.8672 28.8133 26.1166 23.0627 26.1013 17.0956L 26.1013 0L 12.8696 0Z"/>
<path id="path27_fill" d="M 9.42425 26.8968L 13.194 26.8968L 13.194 27.0099C 16.0467 25.6799 18.374 23.4359 19.807 20.6335C 21.24 17.8311 21.6968 14.6306 21.1049 11.5392C 20.5131 8.44785 18.9064 5.64241 16.5396 3.56752C 14.1727 1.49263 11.1812 0.266989 8.03889 0.0848212C 8.03889 0.0848212 8.03889 0.0282791 8.03889 6.32732e-06C 7.58131 2.2468 6.62017 4.36056 5.22776 6.18229C 3.83535 8.00401 2.04794 9.48624 2.67853e-14 10.5175L 2.67853e-14 16.8317C 2.21591 17.7106 4.20999 19.0687 5.83931 20.8089C 7.46863 22.549 8.69285 24.628 9.42425 26.8968Z"/>
<path id="path28_fill" d="M 0.00121788 6.7195L 0.00121788 30.789C 0.00121788 43.8039 10.4339 54.6701 23.4488 54.6701L 24.6268 54.6701C 37.6417 54.6701 48.0743 43.8039 48.0743 30.789L 48.0743 0L 6.36259 0C 4.63272 0.061501 2.99632 0.800441 1.8063 2.05746C 0.616279 3.31447 -0.0320215 4.98885 0.00121788 6.7195Z"/>
<path id="path29_fill" d="M 48.0649 8.48183L 48.0649 0L 6.36259 0C 4.63272 0.061501 2.99632 0.800441 1.8063 2.05746C 0.616279 3.31447 -0.0320215 4.98885 0.00121788 6.7195L 0.00121788 8.48183L 48.0649 8.48183Z"/>
<path id="path30_fill" d="M 5.90901 5.65455L 13.4484 5.65455C 14.9644 5.63521 16.4163 5.04029 17.51 3.99034C 18.6037 2.94039 19.2574 1.51393 19.3386 0L -4.02648e-06 0C 0.0814039 1.51714 0.737722 2.94629 1.83542 3.99672C 2.93312 5.04715 4.38975 5.63996 5.90901 5.65455Z"/>
<path id="path31_fill" d="M 25.9167 0L 9.42426 0C 6.92479 0 4.52769 0.992902 2.7603 2.76029C 0.992907 4.52768 4.60169e-06 6.92479 4.60169e-06 9.42425C 4.60169e-06 11.9237 0.992907 14.3208 2.7603 16.0882C 4.52769 17.8556 6.92479 18.8485 9.42426 18.8485L 25.9167 18.8485C 28.4162 18.8485 30.8133 17.8556 32.5806 16.0882C 34.348 14.3208 35.341 11.9237 35.341 9.42425C 35.341 6.92479 34.348 4.52768 32.5806 2.76029C 30.8133 0.992902 28.4162 0 25.9167 0Z"/>
<path id="path32_fill" d="M 2.40033 0.0137182C 1.11863 0.0137182 0.326998 -0.061673 0.0819677 0.532055C -0.163063 1.12578 0.138513 1.66297 1.02439 2.41691L 1.80659 3.04833L 2.58881 3.72688C 3.52448 4.46944 4.68336 4.87455 5.87788 4.87664C 7.07063 4.913 8.23713 4.52194 9.16695 3.774L 9.94915 2.95408L 10.7314 2.13418C 11.6738 1.38023 11.9377 1.08809 11.6738 0.503783C 11.4099 -0.0805204 10.6371 0.0042991 9.35543 0.0042991L 2.38147 0.0042991L 2.40033 0.0137182Z"/>
<path id="path33_fill" d="M 12.3929 3.7697C 12.1856 1.88485 10.6306 0 8.72686 0L 3.66603 0C 1.78118 0 0.197907 1.88485 -2.30084e-06 3.7697L 12.3929 3.7697Z"/>
<path id="path34_fill" d="M 108.501 47.9789C 108.465 38.7192 106.326 29.5888 102.244 21.2772C 98.1628 12.9655 92.246 5.68998 84.9408 1.15042e-06L 84.9408 13.6934C 91.7538 23.8214 95.3656 35.7633 95.3075 47.9694L 95.3075 61.7571L 95.6279 61.7571C 95.6399 61.9926 95.6399 62.2285 95.6279 62.4639C 95.633 64.5064 94.8323 66.4685 93.3996 67.9242C 91.9668 69.3799 90.0177 70.2117 87.9754 70.239L 87.3911 70.239C 86.1414 70.239 84.9428 70.7354 84.0591 71.6191C 83.1754 72.5028 82.679 73.7013 82.679 74.9511C 82.679 76.2008 83.1754 77.3994 84.0591 78.2831C 84.9428 79.1667 86.1414 79.6632 87.3911 79.6632L 87.9848 79.6632C 88.9717 79.6227 89.9567 79.7813 90.881 80.1294C 91.8054 80.4776 92.6502 81.0083 93.3651 81.6898C 94.0801 82.3713 94.6505 83.1898 95.0425 84.0964C 95.4345 85.003 95.64 85.9793 95.6467 86.967C 95.6467 87.1649 95.6467 87.2026 95.6467 87.2026L 95.3075 87.2026L 95.3075 120.423C 95.3427 122.867 94.8894 125.293 93.9742 127.559C 93.0589 129.825 91.7003 131.886 89.9779 133.619C 88.2554 135.353 86.204 136.725 83.944 137.656C 81.684 138.586 79.2609 139.055 76.8171 139.036L 23.7774 139.036C 19.1218 139.036 13.8537 143.041 12.0065 147.697L -4.60169e-06 179.56L 1.4419 179.56C 6.09749 179.56 11.3656 175.555 13.2128 170.899L 21.7983 148.46L 80.3512 148.46C 84.045 148.484 87.7069 147.776 91.1256 146.376C 94.5442 144.977 97.6519 142.915 100.269 140.308C 102.886 137.701 104.961 134.602 106.374 131.189C 107.787 127.776 108.51 124.117 108.501 120.423L 108.501 87.2026L 108.586 87.2026C 108.586 87.2026 108.586 87.2026 108.586 86.967C 108.579 85.9826 108.375 85.0096 107.985 84.1055C 107.596 83.2015 107.029 82.3848 106.318 81.7038C 105.607 81.0228 104.767 80.4913 103.847 80.1408C 102.927 79.7903 101.946 79.6279 100.962 79.6632L 100.378 79.6632C 99.128 79.6632 97.9294 79.1667 97.0457 78.2831C 96.162 77.3994 95.6656 76.2008 95.6656 74.9511C 95.6656 73.7013 96.162 72.5028 97.0457 71.6191C 97.9294 70.7354 99.128 70.239 100.378 70.239L 100.962 70.239C 103.006 70.2141 104.957 69.3834 106.392 67.9275C 107.827 66.4715 108.629 64.508 108.624 62.4639C 108.636 62.2285 108.636 61.9926 108.624 61.7571L 108.501 61.7571L 108.501 47.9789Z"/>
<path id="path35_fill" d="M 8.36874 0L 0 0L 0 6.59698L 14.2589 6.59698C 14.2589 2.82728 11.6201 0 8.36874 0Z"/>
<path id="path36_fill" d="M 2.35607 4.71213C 3.65729 4.71213 4.71213 3.65728 4.71213 2.35606C 4.71213 1.05485 3.65729 0 2.35607 0C 1.05485 0 4.60169e-06 1.05485 4.60169e-06 2.35606C 4.60169e-06 3.65728 1.05485 4.71213 2.35607 4.71213Z"/>
<path id="path37_fill" d="M 1.17804 2.35606C 1.82865 2.35606 2.35607 1.82864 2.35607 1.17803C 2.35607 0.527423 1.82865 0 1.17804 0C 0.527427 0 4.60169e-06 0.527423 4.60169e-06 1.17803C 4.60169e-06 1.82864 0.527427 2.35606 1.17804 2.35606Z"/>
<path id="path38_fill" d="M 6.59698 0L 0 0L 0 30.1576L 6.59698 30.1576L 6.59698 0Z"/>
<path id="path39_fill" d="M 19.4256 63.9813C 20.1589 65.8828 21.4298 67.5297 23.0831 68.7213C 24.7365 69.9128 26.701 70.5973 28.7368 70.6913L 95.8846 70.6913C 99.7768 70.6913 101.944 67.6756 100.719 63.9813L 81.6257 6.71007C 80.8931 4.80998 79.6237 3.16397 77.9721 1.97258C 76.3206 0.781177 74.3582 0.0958209 72.324 5.1769e-06L 5.17617 5.1769e-06C 1.29338 5.1769e-06 -0.883624 3.01576 0.341529 6.71007L 19.4256 63.9813Z"/>
<path id="path40_fill" d="M 50.6554 0L 5.89016 0C 2.63711 0 0 2.63711 0 5.89016L 0 6.36137C 0 9.61442 2.63711 12.2515 5.89016 12.2515L 50.6554 12.2515C 53.9084 12.2515 56.5455 9.61442 56.5455 6.36137L 56.5455 5.89016C 56.5455 2.63711 53.9084 0 50.6554 0Z"/>
<path id="path41_fill" d="M 58.2523 54.6041L 28.8015 54.6041C 28.5376 54.6041 28.2832 54.3874 28.0287 54.4062L 12.1866 6.76662C 10.952 3.08174 7.3048 -2.30084e-06 4.06286 -2.30084e-06C 0.820917 -2.30084e-06 -0.818908 2.98749 0.406245 6.67237L 19.4998 63.9247C 20.7344 67.6096 24.3815 70.6254 27.6235 70.6254C 27.8056 70.6354 27.988 70.6354 28.1701 70.6254C 28.3774 70.6254 28.5942 70.6254 28.8015 70.6254L 58.2523 70.6254C 60.3769 70.6254 62.4144 69.7814 63.9167 68.2791C 65.419 66.7768 66.2629 64.7393 66.2629 62.6147C 66.2629 60.4902 65.419 58.4527 63.9167 56.9504C 62.4144 55.4481 60.3769 54.6041 58.2523 54.6041Z"/>
<path id="path42_fill" d="M -8.62816e-07 0L 1.17803 3.7697L 82.4622 3.7697L 81.2842 0L -8.62816e-07 0Z"/>
<path id="path43_fill" d="M 8.71744 0L 6.90253e-06 20.7334L 9.4808 20.7334L 18.2453 0L 8.71744 0Z"/>
<path id="path44_fill" d="M 8.76455 0L 4.60169e-06 20.7334L 5.89016 20.7334L 14.6547 0L 8.76455 0Z"/>
<path id="path45_fill" d="M 13.4201 0L 3.87336 0L 6.90253e-06 9.42425L 9.52791 9.42425L 15.4181 9.42425L 19.3103 0L 13.4201 0Z"/>
<path id="path46_fill" d="M 14.1364 0L 0 0L 0 9.42425L 14.1364 9.42425L 14.1364 0Z"/>
<path id="path47_fill" d="M 7.5394 0L 0 0L 0 20.7334L 7.5394 20.7334L 7.5394 0Z"/>
<path id="path48_fill" d="M 53.1716 0L 38.6394 0L 38.6394 19.7909L 14.1364 19.7909L 14.1364 7.06819C 14.1364 5.19359 13.3917 3.39577 12.0662 2.07023C 10.7406 0.744684 8.94279 0 7.06819 0C 5.19359 0 3.39577 0.744684 2.07023 2.07023C 0.744684 3.39577 0 5.19359 0 7.06819L 0 30.3367C 0 42.051 9.15095 52.7758 20.8559 52.7758L 36.4059 52.7758C 48.1202 52.7758 57.4879 42.0416 57.4879 30.3367L 57.4879 8.94362C 56.4566 5.78239 55.0049 2.77421 53.1716 0Z"/>
<path id="path49_fill" d="M 56.6303 89.4268L 40.0531 9.60331C 39.007 4.33516 33.8802 -2.30084e-06 28.612 -2.30084e-06C 23.3439 -2.30084e-06 19.9229 4.976 20.969 10.2442L 35.8122 84.0549L 0 84.0549L 0 100.076L 48.1862 100.076C 54.0198 100.076 57.8178 95.1378 56.6303 89.4268Z"/>
<path id="path50_fill" d="M 46.2637 89.4268L 29.6864 9.60331C 28.6403 4.33516 23.5135 -2.30084e-06 18.2454 -2.30084e-06C 12.9772 -2.30084e-06 9.55619 4.976 10.6023 10.2442L 25.4455 84.0549L 0 84.0549L 0 100.076L 37.8195 100.076C 43.6531 100.076 47.4511 95.1378 46.2637 89.4268Z"/>
<path id="path51_fill" d="M 7.83124 -5.1769e-06C 2.56308 -5.1769e-06 -0.857925 4.71213 0.188167 10.0086L 7.79355 47.649C 9.3479 48.073 10.9511 48.2917 12.5622 48.2993L 16.3319 48.2993C 20.0021 48.2784 23.5932 47.2304 26.6986 45.2741L 19.2723 9.65044C 18.2262 4.33516 13.1465 -5.1769e-06 7.83124 -5.1769e-06Z"/>
<path id="path52_fill" d="M 31.3451 89.4269L 14.7678 9.60342C 13.7217 4.33526 8.59492 9.99678e-05 3.32676 9.99678e-05C 2.17897 -0.00574094 1.0437 0.238689 1.72563e-06 0.716352C 1.91406 1.45224 3.6176 2.64784 4.96037 4.1977C 6.30315 5.74756 7.2439 7.60405 7.69961 9.60342L 24.2769 89.474C 25.4643 95.1851 21.6664 100.123 15.795 100.123L 22.8632 100.123C 28.7345 100.076 32.5325 95.138 31.3451 89.4269Z"/>
<path id="path53_fill" d="M 25.9084 2.22412L 22.1387 2.22412C 20.0571 2.17876 17.9786 2.40689 15.9564 2.90267L 10.0945 -5.75211e-07C 7.0161 1.62744 4.44554 4.07154 2.665 7.06403C 0.88447 10.0565 -0.0372091 13.4817 0.00114484 16.9637L 0.00114484 40.5243C 0.00114484 52.2386 9.4254 63.4346 21.0926 63.4346L 24.8623 63.4346C 36.5767 63.4346 46.18 52.2292 46.18 40.5243L 46.18 16.9637C 46.1988 16.3161 46.1831 15.6681 46.1329 15.0223C 43.1831 7.15301 35.1819 2.22412 25.9084 2.22412Z"/>
<path id="path54_fill" d="M 9.42425 4.71213C 9.42425 3.46239 8.9278 2.26384 8.04411 1.38015C 7.16041 0.496451 5.96186 5.35707e-14 4.71213 2.67853e-14C 3.46239 2.67853e-14 2.26384 0.496451 1.38015 1.38015C 0.496451 2.26384 5.35707e-14 3.46239 2.67853e-14 4.71213L 2.67853e-14 9.42425C 2.67853e-14 10.674 0.496451 11.8725 1.38015 12.7562C 2.26384 13.6399 3.46239 14.1364 4.71213 14.1364C 5.96186 14.1364 7.16041 13.6399 8.04411 12.7562C 8.9278 11.8725 9.42425 10.674 9.42425 9.42425L 9.42425 4.71213Z"/>
<path id="path55_fill" d="M 25.8225 23.197L 22.0528 23.197C 21.8643 23.197 21.8643 23.0934 21.6758 23.1028C 19.8925 18.6043 16.5463 14.9 12.2515 12.6702L 12.2515 2.09614L 7.31323 0.211291C 6.64549 -0.0137801 5.93043 -0.0600013 5.23927 0.0772379C 4.54812 0.214477 3.90497 0.53039 3.37388 0.993506L 1.77176 2.49196C 0.744101 3.59505 0.119685 5.01326 -4.02648e-06 6.51612L -4.02648e-06 15.6576C 0.0401406 17.3537 0.495936 19.014 1.32737 20.4928C 2.1588 21.9716 3.34045 23.2238 4.76867 24.1395L 15.8233 29.6527C 17.8497 29.1156 19.9376 28.8463 22.0339 28.8516L 25.8036 28.8516C 36.3399 28.8516 45.2364 35.3543 47.1213 45.1932L 47.1213 42.6958C 47.1401 30.9815 37.5368 23.197 25.8225 23.197Z"/>
<path id="path56_fill" d="M 7.13417 0.211912C 6.48036 -0.0137199 5.77806 -0.0601837 5.10024 0.0773706C 4.42241 0.214925 3.79377 0.531467 3.27964 0.994113L 1.72464 2.502C 0.708432 3.60795 0.100028 5.02756 0 6.52616L 0 8.61835C 0.0401446 10.3144 0.495925 11.9747 1.32736 13.4535C 2.15879 14.9323 3.34045 16.1845 4.76867 17.1002L 9.57504 19.4374C 13.7653 21.1626 18.4681 21.1585 22.6554 19.426C 26.8426 17.6935 30.1736 14.3736 31.9199 10.1922L 7.13417 0.211912Z"/>
<path id="path57_fill" d="M 28.1031 14.0467C 29.013 12.8651 29.764 11.5692 30.3367 10.1922L 5.55089 0.211907C 4.89708 -0.013725 4.19478 -0.0601744 3.51696 0.0773798C 2.83913 0.214934 2.2105 0.531476 1.69637 0.994122L 0.188485 2.49257C 0.122515 2.55854 0.0659721 2.63393 2.30084e-06 2.70933L 28.1031 14.0467Z"/>
<path id="path58_fill" d="M 23.2025 6.12577L 23.2025 0L 8.24623 0L 4.60169e-06 8.48183L 23.0423 8.48183C 23.2593 7.71621 23.3138 6.9137 23.2025 6.12577Z"/>
<path id="path59_fill" d="M 22.3638 6.00325C 22.3638 5.55089 22.2695 9.20337e-06 22.2695 9.20337e-06L 8.22737 9.20337e-06L 1.43803e-06 8.48184L 21.8454 8.48184C 22.1833 7.69896 22.3596 6.85592 22.3638 6.00325Z"/>
<path id="path60_fill" d="M 53.1339 0.00126932C 54.8166 -0.0225625 56.4872 0.289408 58.0478 0.918932C 59.6085 1.54846 61.028 2.4829 62.2232 3.66758C 63.4184 4.85226 64.3653 6.26337 65.0087 7.81841C 65.652 9.37345 65.9787 11.0412 65.9698 12.724L 65.9698 45.7089C 65.9787 47.3917 65.652 49.0595 65.0087 50.6145C 64.3653 52.1695 63.4184 53.5807 62.2232 54.7653C 61.028 55.95 59.6085 56.8845 58.0478 57.514C 56.4872 58.1435 54.8166 58.4555 53.1339 58.4316L 13.0809 58.4316C 9.60663 58.4785 6.28959 59.8872 3.84331 62.3546C 1.39703 64.822 0.0169701 68.1511 2.67853e-14 71.6256L 2.67853e-14 85.762C 0.0169701 89.2365 1.39703 92.5655 3.84331 95.033C 6.28959 97.5004 9.60663 98.9091 13.0809 98.9559L 102.724 98.9559L 102.724 0.00126932L 53.1339 0.00126932Z"/>
<path id="path61_fill" d="M 25.4455 45.7076L 25.4455 12.7227C 25.4455 9.34846 24.105 6.11239 21.7191 3.72642C 19.3331 1.34044 16.097 5.35707e-14 12.7227 5.35707e-14C 9.34846 5.35707e-14 6.11239 1.34044 3.72642 3.72642C 1.34044 6.11239 5.35707e-14 9.34846 5.35707e-14 12.7227L 5.35707e-14 45.7076C 0 49.0819 1.34044 52.318 3.72642 54.704C 6.11239 57.0899 9.34846 58.4304 12.7227 58.4304C 16.097 58.4304 19.3331 57.0899 21.7191 54.704C 24.105 52.318 25.4455 49.0819 25.4455 45.7076Z"/>
<path id="path62_fill" d="M 32.9849 21.1332C 32.9311 18.3429 33.4411 15.5705 34.4845 12.982C 35.5279 10.3935 37.0831 8.04238 39.057 6.0694C 41.0308 4.09643 43.3827 2.54224 45.9716 1.50002C 48.5605 0.457791 51.3332 -0.0510304 54.1235 0.00403675L 22.213 0.00403675C 10.1876 0.00403675 0 9.10788 0 21.1332L 0 61.2617L 32.9849 61.2617L 32.9849 21.1332Z"/>
<path id="path63_fill" d="M 72.5706 21.1327C 72.5706 9.10734 62.006 0.00349784 49.9524 0.00349784L 21.1142 0.00349784C 18.3262 -0.0477176 15.5566 0.463956 12.971 1.5079C 10.3854 2.55185 8.03693 4.10661 6.06611 6.07919C 4.09529 8.05177 2.54262 10.4016 1.50098 12.9882C 0.459335 15.5747 -0.0498576 18.3448 0.00384598 21.1327L 0.00384598 61.2611L 72.5706 61.2611L 72.5706 21.1327Z"/>
<path id="path64_fill" d="M 29.6864 0L 8.05295e-06 0C 12.0254 0 22.8161 9.10384 22.8161 21.1292L 22.8161 61.2576L 52.0313 61.2576L 52.0313 21.1292C 52.0313 9.10384 41.6646 0 29.6864 0Z"/>
<path id="path65_fill" d="M 99.8971 0L 0 0L 0 9.42425L 99.8971 9.42425L 99.8971 0Z"/>
<path id="path66_fill" d="M 24.5031 0L 0 0L 0 14.1364L 24.5031 14.1364L 24.5031 0Z"/>
<path id="path67_fill" d="M 0 0L 0 2.82728L 27.3303 2.82728L 27.3303 10.3667L 0 10.3667L 0 14.1364L 31.1 14.1364L 31.1 0L 0 0Z"/>
<path id="path68_fill" d="M 33.9273 0L 0 0L 0 14.1364L 33.9273 14.1364L 33.9273 0Z"/>
<path id="path69_fill" d="M 2.82728 0L 0 0L 0 14.1364L 2.82728 14.1364L 2.82728 0Z"/>
<path id="path70_fill" d="M 77.4202 0L 22.1187 0C 10.0934 0 0 9.10384 0 21.1292L 0 61.2576L 5.65455 61.2576L 5.65455 23.8811C 5.65455 13.618 14.5134 6.59698 24.7764 6.59698L 74.7249 6.59698C 84.9879 6.59698 93.2624 13.6086 93.2624 23.8811L 93.2624 61.2576L 99.8594 61.2576L 99.8594 21.1292C 99.8971 9.10384 89.4456 0 77.4202 0Z"/>
<path id="path71_fill" d="M 3.7697 0L 0 0L 0 9.42425L 3.7697 9.42425L 3.7697 0Z"/>
<path id="path72_fill" d="M 3.71316 3.71316L 3.71316 0C 2.72837 -5.35707e-14 1.7839 0.391199 1.08755 1.08755C 0.391197 1.7839 -2.30084e-06 2.72837 -2.30084e-06 3.71316C -2.30084e-06 4.69795 0.391197 5.64241 1.08755 6.33877C 1.7839 7.03512 2.72837 7.42632 3.71316 7.42632L 3.71316 11.1395C 6.54043 11.1395 7.42631 9.4808 7.42631 7.42632C 7.42631 5.37183 6.54043 3.71316 3.71316 3.71316Z"/>
<path id="path73_fill" d="M 8.01061 4.71213L 23.4475 4.71213L 23.4475 0L 8.01061 0C 5.88606 0 3.84853 0.843974 2.34625 2.34626C 0.84397 3.84854 -4.60169e-06 5.88607 -4.60169e-06 8.01062C -4.60169e-06 10.1352 0.84397 12.1727 2.34625 13.675C 3.84853 15.1773 5.88606 16.0212 8.01061 16.0212L 23.4475 16.0212L 23.4475 11.3091L 8.01061 11.3091C 7.55648 11.3435 7.10015 11.2837 6.6702 11.1335C 6.24025 10.9833 5.84594 10.7459 5.51198 10.4363C 5.17802 10.1266 4.9116 9.75134 4.72941 9.33395C 4.54721 8.91655 4.45319 8.46604 4.45319 8.01062C 4.45319 7.55519 4.54721 7.10468 4.72941 6.68729C 4.9116 6.26989 5.17802 5.8946 5.51198 5.58495C 5.84594 5.2753 6.24025 5.03796 6.6702 4.88777C 7.10015 4.73758 7.55648 4.67777 8.01061 4.71213Z"/>
<path id="path74_fill" d="M 0 0L 0 20.1208C 0 27.9052 5.65455 34.8697 13.4013 34.8697L 22.3072 34.8697C 30.0917 34.8697 36.7546 27.9052 36.7546 20.1208L 36.7546 0L 0 0Z"/>
<path id="path75_fill" d="M 13.929 0L 13.929 20.1208C 13.929 27.9052 7.78444 34.8697 1.15042e-06 34.8697L 8.90593 34.8697C 16.6904 34.8697 23.3533 27.9052 23.3533 20.1208L 23.3533 0L 13.929 0Z"/>
<path id="path76_fill" d="M 27.3303 0L 0 0L 0 4.71213L 27.3303 4.71213L 27.3303 0Z"/>
<path id="path77_fill" d="M 9.42425 0L 0 0L 0 4.71213L 9.42425 4.71213L 9.42425 0Z"/>
<path id="path78_fill" d="M 13.5427 12.2515C 14.6073 12.2768 15.6661 12.0878 16.6563 11.6958C 17.6464 11.3037 18.5476 10.7166 19.3064 9.96931C 20.0651 9.22202 20.6658 8.32983 21.0728 7.34576C 21.4799 6.36168 21.6849 5.30581 21.6758 4.24091L 21.6758 0.424089C 20.8401 0.145031 19.9651 0.00185078 19.0841 0L 8.24622 0C 6.05918 2.67853e-14 3.96173 0.8688 2.41526 2.41527C 0.868795 3.96173 -4.91121e-06 6.05919 -4.91121e-06 8.24622L -4.91121e-06 8.71743C -0.000365612 10.1345 0.366548 11.5274 1.06494 12.7604C 1.84625 12.4292 2.68549 12.2563 3.53409 12.2515L 13.5427 12.2515Z"/>
<path id="path79_fill" d="M 20.6108 -2.87605e-06L 20.6108 3.81682C 20.6199 4.88091 20.4152 5.93597 20.0087 6.91941C 19.6023 7.90285 19.0024 8.79461 18.2447 9.54177C 17.487 10.2889 16.5869 10.8762 15.5979 11.2689C 14.6088 11.6615 13.551 11.8515 12.4871 11.8274L 2.46915 11.8274C 1.62055 11.8322 0.781316 12.0051 4.60169e-06 12.3363C 0.716127 13.6114 1.75878 14.6728 3.02085 15.4114C 4.28293 16.1501 5.71892 16.5395 7.18128 16.5396L 17.7836 16.5396C 22.9009 16.5396 26.1429 12.685 26.2654 7.6148C 26.2212 5.91787 25.6545 4.27592 24.6425 2.91308C 23.6305 1.55024 22.2225 0.532922 20.6108 -2.87605e-06Z"/>
<path id="path80_fill" d="M 16.9637 0C 7.59595 0 4.60169e-06 6.59698 4.60169e-06 16.0212L 17.7836 16.0212L 17.7836 0L 16.9637 0Z"/>
<path id="path81_fill" d="M 9.42425 0L 0 0L 0 16.0212L 9.42425 16.0212L 9.42425 0Z"/>
<path id="path82_fill" d="M 18.8485 4.71213C 18.8485 3.46239 18.3521 2.26386 17.4684 1.38016C 16.5847 0.496466 15.3861 0 14.1364 0L 4.71213 0C 3.46239 0 2.26384 0.496466 1.38015 1.38016C 0.496451 2.26386 0 3.46239 0 4.71213C 1.33927e-14 5.96186 0.496451 7.1604 1.38015 8.04409C 2.26384 8.92779 3.46239 9.42425 4.71213 9.42425L 14.1364 9.42425C 15.3861 9.42425 16.5847 8.92779 17.4684 8.04409C 18.3521 7.1604 18.8485 5.96186 18.8485 4.71213Z"/>
<path id="path83_fill" d="M 38.7431 8.72483e-05L 30.4969 8.72483e-05C 29.2117 -0.00746926 27.9721 0.476078 27.0314 1.3519C 26.0908 2.22773 25.5201 3.42971 25.4361 4.71221L 25.4361 5.65464L 17.8967 5.65464L 17.8967 3.69439C 17.6653 2.64871 17.0847 1.71302 16.2504 1.04149C 15.4162 0.369961 14.378 0.00265114 13.307 8.72483e-05L 5.06082 8.72483e-05C 3.77559 -0.00746926 2.53599 0.476078 1.59535 1.3519C 0.654713 2.22773 0.0840637 3.42971 4.02647e-06 4.71221L 4.02647e-06 12.3741C 4.02647e-06 14.9658 2.47857 16.9732 5.07024 16.9732L 13.3165 16.9732C 13.9224 16.9833 14.5243 16.8716 15.0862 16.6447C 15.6482 16.4178 16.1588 16.0802 16.5878 15.6521C 17.0168 15.224 17.3553 14.7141 17.5834 14.1526C 17.8115 13.5911 17.9244 12.9895 17.9155 12.3836L 17.9155 9.42434L 25.4549 9.42434L 25.4549 12.3741C 25.4549 14.9658 27.9335 16.9732 30.5252 16.9732L 38.7714 16.9732C 39.3773 16.9833 39.9792 16.8716 40.5411 16.6447C 41.1031 16.4178 41.6137 16.0802 42.0427 15.6521C 42.4716 15.224 42.8102 14.7141 43.0383 14.1526C 43.2664 13.5911 43.3793 12.9895 43.3704 12.3836L 43.3704 3.71325C 43.1414 2.65775 42.5569 1.71294 41.7145 1.03699C 40.8721 0.361041 39.8231 -0.00501908 38.7431 8.72483e-05ZM 15.06 12.3741C 15.06 12.8424 14.8746 13.2916 14.5444 13.6236C 14.2141 13.9556 13.7659 14.1434 13.2976 14.1459L 4.58019 14.1459C 4.11355 14.1434 3.66673 13.9569 3.33676 13.627C 3.00679 13.297 2.82032 12.8502 2.81785 12.3836L 2.81785 4.60855C 2.82034 4.14028 3.00811 3.69204 3.34011 3.36181C 3.67211 3.03157 4.12134 2.84621 4.58961 2.84622L 13.307 2.84622C 13.7769 2.84622 14.2276 3.03287 14.5599 3.36514C 14.8921 3.69741 15.0788 4.14807 15.0788 4.61797L 15.0788 12.393L 15.06 12.3741ZM 40.5054 12.3741C 40.5054 12.8424 40.3201 13.2916 39.9898 13.6236C 39.6596 13.9556 39.2114 14.1434 38.7431 14.1459L 30.0257 14.1459C 29.559 14.1434 29.1122 13.9569 28.7822 13.627C 28.4523 13.297 28.2658 12.8502 28.2633 12.3836L 28.2633 4.60855C 28.2658 4.14028 28.4536 3.69204 28.7856 3.36181C 29.1176 3.03157 29.5668 2.84621 30.0351 2.84622L 38.7525 2.84622C 39.2224 2.84622 39.6731 3.03287 40.0053 3.36514C 40.3376 3.69741 40.5243 4.14807 40.5243 4.61797L 40.5054 12.3741Z"/>
<path id="path84_fill" d="M 4.71213 3.29849C 4.71213 3.92336 4.46389 4.52262 4.02205 4.96447C 3.5802 5.40632 2.98093 5.65455 2.35606 5.65455C 1.7312 5.65455 1.13193 5.40632 0.69008 4.96447C 0.248233 4.52262 0 3.92336 0 3.29849L 0 2.35606C 0 1.7312 0.248233 1.13193 0.69008 0.69008C 1.13193 0.248233 1.7312 0 2.35606 0C 2.98093 2.67853e-14 3.5802 0.248233 4.02205 0.69008C 4.46389 1.13193 4.71213 1.7312 4.71213 2.35606L 4.71213 3.29849Z"/>
<path id="path85_fill" d="M 4.71213 3.29849C 4.71213 3.60789 4.65118 3.91427 4.53278 4.20012C 4.41437 4.48597 4.24083 4.74569 4.02205 4.96447C 3.80327 5.18325 3.54354 5.3568 3.25769 5.4752C 2.97184 5.5936 2.66547 5.65455 2.35606 5.65455C 1.7312 5.65455 1.13193 5.40632 0.69008 4.96447C 0.248233 4.52262 0 3.92336 0 3.29849L 0 2.35606C 0 1.7312 0.248233 1.13193 0.69008 0.69008C 1.13193 0.248233 1.7312 0 2.35606 0C 2.66547 0 2.97184 0.0609475 3.25769 0.179351C 3.54354 0.297754 3.80327 0.4713 4.02205 0.69008C 4.24083 0.908861 4.41437 1.16858 4.53278 1.45443C 4.65118 1.74029 4.71213 2.04666 4.71213 2.35606L 4.71213 3.29849Z"/>
<path id="path86_fill" d="M 8.98134 0L 3.27019 0C 1.4641 0 0 1.46413 0 3.27022L 0 4.26919C 0 6.07528 1.4641 7.5394 3.27019 7.5394L 8.98134 7.5394C 10.7874 7.5394 12.2515 6.07528 12.2515 4.26919L 12.2515 3.27022C 12.2515 1.46413 10.7874 0 8.98134 0Z"/>
<path id="path87_fill" d="M 10.9887 0L 4.09015 0C 1.83124 0 0 1.83121 0 4.09013L 0 5.33413C 0 7.59305 1.83124 9.42425 4.09015 9.42425L 10.9887 9.42425C 13.2476 9.42425 15.0788 7.59305 15.0788 5.33413L 15.0788 4.09013C 15.0788 1.83121 13.2476 0 10.9887 0Z"/>
<path id="path88_fill" d="M 50.6554 0L 29.4508 0C 13.1856 0 0 13.1856 0 29.4508L 0 29.922C 0 46.1872 13.1856 59.3728 29.4508 59.3728L 50.6554 59.3728C 66.9206 59.3728 80.1062 46.1872 80.1062 29.922L 80.1062 29.4508C 80.1062 13.1856 66.9206 0 50.6554 0Z"/>
<path id="path89_fill" d="M 2.97804 23.3721C 4.67441 24.9554 7.27555 26.4539 9.62219 26.4539C 11.1678 26.4539 13.0714 25.5774 13.0714 23.7774C 13.0714 21.7229 10.2442 21.3554 7.31323 20.2904C 4.38229 19.2255 1.54559 17.5762 1.54559 13.0903C 1.54559 8.75513 4.55194 4.75925 9.03789 4.45767L 9.03789 -1.79753e-07L 12.4495 -1.79753e-07L 12.4495 4.44825C 14.8147 4.61538 17.1056 5.34565 19.1312 6.57813L 16.417 11.9028C 15.0961 10.7856 13.4344 10.1508 11.7049 10.1028C 10.0934 10.1028 8.58548 10.6965 8.58548 12.1573C 8.58548 13.8442 10.8944 14.5793 12.1856 14.9846C 16.3699 16.3794 20.1585 17.9249 20.1585 23.0235C 20.1585 28.122 17.2181 30.8079 12.4495 31.9859L 12.4495 36.5661L 9.03789 36.5661L 9.03789 32.2404C 7.42291 32.2156 5.82602 31.8962 4.32576 31.2979C 2.74122 30.777 1.27233 29.9545 2.30084e-06 28.8759L 2.97804 23.3721Z"/>
<path id="path90_fill" d="M 23.0423 21.7983L 0 2.30084e-06L 0 106.079L 11.3091 94.9776L 11.3091 110.113L 26.3879 94.9776L 26.3879 110.113L 40.5243 94.9776L 40.5243 110.113L 56.5455 94.9776L 56.5455 90.0299C 56.5455 63.1048 42.3432 41.052 23.0423 21.7983Z"/>
<path id="path91_fill" d="M 8.36875 7.49228L 4.60169e-06 2.58845e-06C 15.5029 17.4443 25.7942 37.1127 25.7942 60.5508L 25.7942 95.7693L 41.8154 80.6339L 41.8154 75.6862C 41.8154 48.7988 27.679 26.746 8.36875 7.49228Z"/>
<path id="path92_fill" d="M 72.5668 15.1354L 72.5668 -6.90253e-06L 58.4304 15.1354L 58.4304 -6.90253e-06L 43.3516 15.1354L 43.3516 -6.90253e-06L 31.6278 11.1395C 31.6565 19.8125 31.1656 28.4795 30.1576 37.0939C 26.1712 72.906 14.2966 99.2939 0 101.462L 0 120.508C 27.3303 119.009 38.0834 109.557 48.6291 99.0112C 63.0294 84.6486 74.8474 67.063 81.7554 46.9516C 84.922 37.7441 88.588 32.3346 88.588 14.6641L 88.588 -6.90253e-06L 72.5668 15.1354Z"/>
<path id="path93_fill" d="M 88.588 19.7909L 88.588 15.8516L 88.2204 15.8516C 88.2204 15.4558 88.588 15.0694 88.588 14.6736L 88.588 -6.90253e-06L 72.5667 15.1354L 72.5667 14.438C 72.5667 30.9492 60.5603 64.7917 40.8259 84.5356C 28.8099 96.5421 19.7909 105.014 0 107.889L 0 120.517C 43.3516 120.517 95.185 70.0505 95.185 26.0204L 95.185 14.1364L 88.588 19.7909Z"/>
<path id="path94_fill" d="M 115.777 117.445C 107.295 104.251 101.707 90.1147 100.5 75.9783L 109.236 75.9783C 103.799 67.7321 99.8971 58.0157 99.8971 47.7056L 99.8971 -7.90915e-07L 83.8004 17.548L 57.8178 17.548L 41.4667 -7.90915e-07L 41.4667 34.5116L 46.7255 34.5116C 51.2114 34.5116 55.1225 37.7536 57.3749 40.006C 59.6273 37.7536 63.0294 34.5116 68.0243 34.5116L 70.6254 34.5116C 77.4108 34.5116 81.991 38.8656 81.991 45.6417L 81.991 57.8932C 81.991 65.9415 79.8423 73.7259 77.6559 80.9072C 73.8862 93.1588 67.8735 103.525 52.8041 115.636C 48.2993 137.839 27.745 155.142 3.88279 155.142L 0 155.142L 49.4962 204.45L 99.8971 154.36L 99.8971 126.869L 113.807 126.869C 111.329 124.042 109.095 119.33 107.21 117.445L 115.777 117.445Z"/>
<path id="path95_fill" d="M 38.4415 0L 9.82008 0C 4.40113 0 2.07076e-05 4.47652 2.07076e-05 10.3667L 38.4415 10.3667L 38.4415 0Z"/>
<path id="path96_fill" d="M 0 0L 6.50276 37.1033C 11.4316 40.5526 12.7887 45.8678 13.8348 51.8334L 31.1471 150.788L 41.4667 150.788L 41.4667 0L 0 0Z"/>
<path id="path97_fill" d="M -2.53093e-05 -4.60169e-06L 19.9229 113.685L 27.0005 113.685L 9.68813 14.7301C 8.51787 8.73856 5.03799 3.44768 -2.53093e-05 -4.60169e-06Z"/>
<path id="path98_fill" d="M -1.15042e-05 0L 27.4905 156.443L 36.0006 156.443L 36.0006 0L -1.15042e-05 0Z"/>
<path id="path99_fill" d="M 26.0958 0L 9.81062 0C 4.39167 0 -2.30084e-06 4.47652 -2.30084e-06 10.3667L 26.0958 10.3667L 26.0958 0Z"/>
<path id="path100_fill" d="M 63.1425 0L 0 0L 0 27.3303L 63.1425 27.3303L 63.1425 0Z"/>
<path id="path101_fill" d="M 94.9494 80.9826C 89.0875 61.0032 84.2811 44.4071 84.2811 44.4071L 78.2213 22.4768C 75.1019 9.90489 61.9362 0 49.0061 0L 23.457 0C 10.4986 0 0 9.57504 0 22.5334L 0 93.2153C 0 106.174 10.4986 117.813 23.457 117.813L 70.5782 117.813C 86.8351 117.803 100.84 100.962 94.9494 80.9826Z"/>
<path id="path102_fill" d="M 28.2822 9.64101L 25.5869 0L 11.0641 0L 13.7311 9.64101C 13.7311 9.64101 18.5281 26.3125 24.3994 46.2919C 30.2707 66.2713 16.2945 82.9334 -6.90253e-06 82.9334L 14.5228 82.9334C 30.8268 82.9334 44.8123 66.2619 38.941 46.2825C 33.0697 26.3031 28.2822 9.64101 28.2822 9.64101Z"/>
<path id="path103_fill" d="M 59.9477 31.2508L 59.9477 11.13C 59.9477 4.354 55.3675 0 48.5915 0L 45.9904 0C 40.9767 0 37.5934 3.24194 35.341 5.49434C 33.0886 3.24194 29.1775 0 24.6916 0L 19.4234 0L 19.4234 2.82728C 19.4234 9.22634 17.4254 13.8537 13.4767 17.8024C 10.3573 20.8747 5.28702 22.6182 1.38051e-05 22.6182L 49.1475 22.6182C 55.3203 22.6182 59.7686 27.1607 60.2964 33.1922C 60.3152 32.6079 59.9477 31.8446 59.9477 31.2508Z"/>
<path id="path104_fill" d="M 102.291 0.00187066L 0 0.00187066L 0 9.61461C 0.0425953 17.8755 2.67682 25.9148 7.53132 32.599C 12.3858 39.2832 19.2158 44.2752 27.0583 46.8714C 34.9008 49.4675 43.3603 49.5368 51.2443 47.0694C 59.1283 44.602 66.039 39.7225 71.0023 33.1187C 74.2443 35.4842 78.2684 37.6895 82.5942 37.6895L 83.8758 37.6895L 83.8758 58.4228C 87.5696 57.1185 90.9453 55.0469 93.7807 52.3442C 104.006 42.0906 112.149 29.104 113.091 13.978L 113.091 10.7644C 113.113 9.34182 112.848 7.92945 112.312 6.61137C 111.777 5.2933 110.982 4.09649 109.974 3.09224C 108.966 2.08799 107.766 1.29684 106.447 0.765916C 105.127 0.23499 103.713 -0.0248529 102.291 0.00187066Z"/>
<path id="path105_fill" d="M 20.7334 0L 0 0L 0 10.0651C 0.00347367 11.1131 0.0885388 12.1592 0.254445 13.194L 7.98234 13.194C 15.0788 13.194 20.7334 7.06819 20.7334 0Z"/>
<path id="path106_fill" d="M 3.92991 7.85983C 6.10035 7.85983 7.85984 6.10034 7.85984 3.92991C 7.85984 1.75948 6.10035 0 3.92991 0C 1.75948 0 -1.15042e-05 1.75948 -1.15042e-05 3.92991C -1.15042e-05 6.10034 1.75948 7.85983 3.92991 7.85983Z"/>
<path id="path107_fill" d="M 1.96025 3.92049C 3.04286 3.92049 3.92048 3.04286 3.92048 1.96025C 3.92048 0.877633 3.04286 0 1.96025 0C 0.877637 0 -1.03538e-05 0.877633 -1.03538e-05 1.96025C -1.03538e-05 3.04286 0.877637 3.92049 1.96025 3.92049Z"/>
<path id="path108_fill" d="M 1.96025 3.92049C 3.04286 3.92049 3.92048 3.04286 3.92048 1.96025C 3.92048 0.877633 3.04286 0 1.96025 0C 0.877632 0 1.38051e-05 0.877633 1.38051e-05 1.96025C 1.38051e-05 3.04286 0.877632 3.92049 1.96025 3.92049Z"/>
<path id="path109_fill" d="M 51.8334 25.7282C 51.791 18.8851 49.041 12.3371 44.1844 7.51586C 39.3279 2.69463 32.76 -0.00759315 25.9167 1.14054e-05C 19.0734 -0.00759315 12.5055 2.69463 7.64898 7.51586C 2.79243 12.3371 0.0423458 18.8851 1.07141e-13 25.7282L 1.07141e-13 78.193C 0.0423458 85.0362 2.79243 91.5842 7.64898 96.4054C 12.5055 101.227 19.0734 103.929 25.9167 103.921C 32.76 103.929 39.3279 101.227 44.1844 96.4054C 49.041 91.5842 51.791 85.0362 51.8334 78.193L 51.8334 25.7282Z"/>
<path id="path110_fill" d="M 9.22632 24.6916C 5.04954 19.9935 2.76877 13.9102 2.82728 7.62422L 2.82728 0L 0 0L 0 24.5596C 1.88485 24.701 4.23149 24.7858 6.30483 24.7858C 7.17186 24.7858 8.25563 24.7481 9.22632 24.6916Z"/>
<path id="path111_fill" d="M 0.414667 41.118L 0.414667 67.619C 0.353616 68.7705 0.215078 69.9166 -2.30084e-06 71.0495C 1.32882 70.3049 2.54455 69.551 3.7697 68.7593C 14.1961 61.9556 23.1109 53.0793 29.9597 42.6824L 23.8339 21.0632C 21.4307 11.3657 13.6086 3.24194 3.24194 -4.60169e-06L 3.24194 39.2332L 0.414667 41.118Z"/>
<path id="path112_fill" d="M 51.8345 0L 19.1041 17.0579L 18.6611 18.8485L 0.00109841 18.8485L 0.00109841 26.4727C -0.0574105 32.7587 2.22336 38.842 6.40015 43.5401C 18.3972 42.8238 37.3871 37.7724 51.514 29.9032C 51.7009 28.7684 51.8111 27.6223 51.8439 26.4727L 51.8345 0Z"/>
<path id="path113_fill" d="M 2.44141e-05 0.0761493C 2.44141e-05 0.161246 2.44141e-05 0.236883 2.44141e-05 0.321979C 2.44141e-05 0.321979 2.44141e-05 -0.188596 2.44141e-05 0.0761493Z"/>
<path id="path114_fill" d="M 35.3598 0L 32.3158 0C 34.2006 0.942425 35.3598 4.06185 35.3598 6.59698C 35.378 8.79858 34.5327 10.9196 33.0052 12.5053C 31.4777 14.0909 29.3897 15.0148 27.189 15.0788L -1.15042e-06 15.0788C 0.471212 20.7334 6.36136 26.3879 13.5709 26.3879L 35.3598 26.3879C 42.8992 26.3879 48.9778 20.7334 48.9778 13.194C 48.9778 5.65455 42.8898 0 35.3598 0Z"/>
<path id="path115_fill" d="M 32.3723 0L 13.6181 0C 9.84838 0 6.44624 0.735091 3.97709 3.19482C 1.41034 6.0105 -0.00856124 9.68553 4.93147e-05 13.4955C 4.93147e-05 13.7971 4.93147e-05 14.1364 4.93147e-05 15.0788L 27.1984 15.0788C 29.3992 15.0148 31.4872 14.0909 33.0147 12.5053C 34.5422 10.9196 35.3875 8.79858 35.3693 6.59698C 35.407 4.06185 34.2195 0.942425 32.3723 0Z"/>
<path id="path116_fill" d="M 13.9762 9.97086C 15.0402 9.64326 16.0099 9.06469 16.8035 8.28391L 19.8569 5.11736C 22.6088 2.36548 21.6758 0 17.7836 0L 5.80532 0C 1.92253 0 0.989519 2.36548 3.73198 5.11736L 6.78548 8.22737C 7.5779 9.01606 8.54721 9.60411 9.61276 9.94259L 9.20337e-06 71.8882L 11.7709 83.2539L 23.5795 71.9447L 13.9762 9.97086Z"/>
<path id="path117_fill" d="M 39.2615 4.60169e-06L 9.20337e-06 4.60169e-06L 9.20337e-06 5.89016L 39.2615 5.89016L 39.2615 4.60169e-06Z"/>
<path id="path118_fill" d="M 77.6652 0L 63.1425 0L 63.1425 62.6901L 28.2728 81.3502L 28.0843 82.9334L 0 82.9334L 0 107.144C 4.30882 107.873 8.67326 108.223 13.0432 108.19C 25.7377 108.19 49.204 102.018 64.6221 92.1692C 80.7847 81.8025 93.6299 65.6211 100.642 47.4794C 86.9764 33.8142 77.7406 18.8485 77.6652 0Z"/>
<path id="path119_fill" d="M 114.912 55.1036L 62.1361 2.44088C 60.7601 1.06494 61.1937 0 63.1728 0L 4.27117 0C -0.261895 0 -1.38338 2.61994 1.85856 5.83362L 47.9149 51.7769C 51.1191 54.9811 57.4522 57.4879 61.9947 57.4879L 120.896 57.4879C 118.688 57.3975 116.577 56.5564 114.912 55.1036Z"/>
<path id="path120_fill" d="M 23.9753 0L 8.06716 0C 3.61179 0 0 3.61179 0 8.06716L 0 8.8965C 0 13.3519 3.61179 16.9637 8.06716 16.9637L 23.9753 16.9637C 28.4307 16.9637 32.0425 13.3519 32.0425 8.8965L 32.0425 8.06716C 32.0425 3.61179 28.4307 0 23.9753 0Z"/>
<path id="path121_fill" d="M 33.0915 6.59698L 27.6443 6.59698C 23.6107 3.7697 17.1268 0 13.1215 0L 11.1047 0C 7.08996 0 7.07111 3.7697 11.1047 6.59698L 3.6407 6.59698C -0.873518 6.59698 -1.50496 10.3667 3.53702 15.0788L 49.3389 15.0788C 44.2781 10.3667 37.6057 6.59698 33.0915 6.59698Z"/>
<path id="path122_fill" d="M 0 4.89119L 0 12.129C 7.5394 10.4609 10.3667 6.76661 14.1364 1.88485L 14.1364 -2.30084e-06C 10.1499 3.24893 5.14193 4.98169 0 4.89119Z"/>
<path id="path123_fill" d="M 8.59491 0L 1.77176 0C 0.793248 0 0 0.793241 0 1.77176L 0 1.99794C 0 2.97646 0.793248 3.7697 1.77176 3.7697L 8.59491 3.7697C 9.57343 3.7697 10.3667 2.97646 10.3667 1.99794L 10.3667 1.77176C 10.3667 0.793241 9.57343 0 8.59491 0Z"/>
<path id="path124_fill" d="M 1.76233 1.77533e-10L 8.59491 1.77533e-10C 9.06319 -6.62435e-06 9.51245 0.185364 9.84445 0.515597C 10.1764 0.845831 10.3642 1.29407 10.3667 1.76234L 10.3667 1.99794C 10.3667 2.46622 10.1813 2.91545 9.85106 3.24745C 9.52083 3.57945 9.07261 3.76721 8.60435 3.7697L 1.77176 3.7697C 1.30186 3.7697 0.851225 3.58304 0.518955 3.25077C 0.186686 2.9185 0 2.46784 0 1.99794L 0 1.76234C 0 1.29494 0.185692 0.846675 0.516194 0.516173C 0.846696 0.185671 1.29493 1.77547e-10 1.76233 1.77533e-10Z"/>
<path id="path125_fill" d="M 1.88485 3.06241e-06C 1.40395 -0.000863297 0.940911 0.182119 0.590511 0.511495C 0.240112 0.84087 0.0288534 1.29172 0 1.77176L 0 4.71213L 3.7697 4.71213L 3.7697 1.77176C 3.74085 1.29172 3.52959 0.84087 3.17919 0.511495C 2.82879 0.182119 2.36575 -0.000863297 1.88485 3.06241e-06Z"/>
<path id="path126_fill" d="M 6.94567 0L 4.60169e-06 6.83258L 6.94567 6.83258L 6.94567 0Z"/>
<path id="path127_fill" d="M 0 0L 0 6.83258L 6.7195 6.83258L 0 0Z"/>
<path id="path128_fill" d="M 11.4033 31.1C 6.24826 21.6758 2.82728 14.372 2.82728 1.41364L 2.82728 0L 0 0L 0 40.5243L 10.5081 40.5243C 8.23927 37.5204 6.16784 34.3723 4.30689 31.1L 11.4033 31.1Z"/>
<path id="path129_fill" d="M 12.0913 31.1C 6.93627 21.6758 2.82728 14.372 2.82728 1.41364L 2.82728 0L 0 0L 0 40.5243L 11.196 40.5243C 8.927 37.5205 6.85557 34.3725 4.99484 31.1L 12.0913 31.1Z"/>
<path id="path130_fill" d="M 9.0356 2.49742C 7.36831 1.00213 5.2404 0.121046 3.00409 0L 1.82605 0C -0.115343 0 -0.586561 1.12148 0.78938 2.49742L 53.5369 55.1036C 55.2146 56.5664 57.3441 57.4082 59.5685 57.4879L 60.7465 57.4879C 62.6879 57.4879 63.1591 56.4796 61.7832 55.1036L 9.0356 2.49742Z"/>
<path id="path131_fill" d="M 55.3015 7.44604C 46.8762 -0.979238 39.9306 -2.44943 39.9306 4.03445L 39.9306 16.041L 4.60169e-06 16.041L 1.23458 17.0399C 4.43883 20.2442 10.7719 22.6379 15.3144 22.6379L 70.6819 22.6379C 70.6819 22.6379 63.7268 15.8619 55.3015 7.44604Z"/>
<path id="path132_fill" d="M 57.5351 28.0739L 64.6504 26.01L 61.4179 19.9973L 55.5277 19.9973L 38.696 2.09124C 35.6425 -0.962214 33.3336 -0.82085 33.3336 3.50488L 33.3336 20.9398L 4.60169e-06 20.9398C 4.60169e-06 24.7095 1.17802 31.6645 11.1206 37.451C 21.8454 43.6899 33.7388 46.1402 46.2071 46.1402C 49.5825 46.1607 52.9523 45.8641 56.2722 45.2543L 53.3696 38.1956L 60.4849 35.2269L 57.5351 28.0739Z"/>
<path id="path133_fill" d="M 31.3262 12.8547C 27.2466 17.102 21.8284 19.8143 15.9835 20.5354L 10.0651 21.9774L 1.15042e-05 21.9774L 1.88486 32.344L 12.4023 32.344C 14.8603 32.3487 17.2929 32.8419 19.5587 33.795C 21.8244 34.7481 23.878 36.1421 25.6003 37.8959C 27.3225 39.6497 28.679 41.7284 29.5908 44.011C 30.5025 46.2937 30.9515 48.7348 30.9116 51.1925L 30.9116 150.147L 38.451 150.147L 38.451 -6.90253e-06C 37.3953 4.8936 34.9165 9.36593 31.3262 12.8547Z"/>
<path id="path134_fill" d="M 20.347 50.891C 17.8684 48.0637 15.6348 43.3516 13.75 41.4667L 22.3449 41.4667C 13.8631 28.2728 8.27448 14.1364 7.06817 0L -1.61059e-05 0C 1.20629 14.1364 6.77604 28.2728 15.2767 41.4667L 6.6818 41.4667C 8.6232 43.3516 10.8473 48.0637 13.2788 50.891L 4.55191 50.891C 4.99485 68.7971 13.8159 82.9334 26.8685 97.0698L 33.9367 97.0698C 20.8841 82.9334 12.063 68.7971 11.6201 50.891L 20.347 50.891Z"/>
<path id="path135_fill" d="M 21.9491 0L 17.2369 0L 20.5354 18.8485L 9.81062 18.8485C 4.39167 18.8485 -2.30084e-06 23.325 -2.30084e-06 29.2152L 29.4602 29.2152L 24.3051 0L 21.9491 0Z"/>
<path id="path136_fill" d="M 17.2181 0L 20.5354 18.8485L 9.82008 18.8485C 4.40113 18.8485 2.07076e-05 23.325 2.07076e-05 29.2152L 30.9021 29.2152L 30.9021 0L 17.2181 0Z"/>
<path id="path137_fill" d="M 5.14564 29.2152L 13.0997 29.2152L 13.0997 0L -2.30084e-05 0L 5.14564 29.2152Z"/>
<path id="path138_fill" d="M 0 0L 0 18.6129L 0 29.2152L 7.5394 29.2152L 7.5394 18.6129L 7.5394 0L 0 0Z"/>
<path id="path139_fill" d="M 3.71316 3.71316L 3.71316 5.35707e-14C 2.72837 0 1.7839 0.391199 1.08755 1.08755C 0.391197 1.7839 -2.30084e-06 2.72837 -2.30084e-06 3.71316C -2.30084e-06 4.69795 0.391197 5.64241 1.08755 6.33877C 1.7839 7.03512 2.72837 7.42632 3.71316 7.42632L 3.71316 11.1395C 6.54043 11.1395 7.42631 9.4808 7.42631 7.42632C 7.42631 5.37183 6.54043 3.71316 3.71316 3.71316Z"/>
</defs>
</svg>
