<?xml version="1.0" encoding="utf-8"?>
<!-- Generator: Adobe Illustrator 21.0.0, SVG Export Plug-In . SVG Version: 6.00 Build 0)  -->
<!DOCTYPE svg PUBLIC "-//W3C//DTD SVG 1.1//EN" "http://www.w3.org/Graphics/SVG/1.1/DTD/svg11.dtd">
<svg version="1.1" id="Layer_1" xmlns="http://www.w3.org/2000/svg" xmlns:xlink="http://www.w3.org/1999/xlink" x="0px" y="0px"
	 viewBox="0 0 250 200" style="enable-background:new 0 0 250 200;" xml:space="preserve">
<style type="text/css">
	.st0{fill:#DE5833;}
	.st1{clip-path:url(#SVGID_2_);}
	.st2{fill:#D5D7D8;}
	.st3{fill:#FFFFFF;}
	.st4{fill:#2D4F8E;}
	.st5{fill:url(#SVGID_3_);}
	.st6{fill:url(#SVGID_4_);}
	.st7{fill:#FDD20A;}
	.st8{fill:#65BC46;}
	.st9{fill:#43A244;}
	.st10{fill:none;stroke:#DE5833;stroke-width:5;stroke-miterlimit:10;}
</style>
<g>
	<circle class="st0" cx="127.3" cy="79" r="51.1"/>
	<g>
		<g>
			<g>
				<g>
					<g>
						<g>
							<g>
								<g>
									<g>
										<g>
											<g>
												<g>
													<g>
														<defs>
															<path id="SVGID_1_" d="M178.7,78.8c0,28.3-23,51.4-51.4,51.4c-28.3,0-51.3-23-51.3-51.4c0-28.3,23-51.3,51.3-51.3
																C155.6,27.5,178.7,50.5,178.7,78.8z"/>
														</defs>
														<clipPath id="SVGID_2_">
															<use xlink:href="#SVGID_1_"  style="overflow:visible;"/>
														</clipPath>
														<g class="st1">
															<path class="st2" d="M148.3,155.2c-1.8-8.3-12.3-27-16.2-35c-4-7.9-7.9-19.1-6.1-26.3c0.3-1.3-3.4-11.3-2.4-12
																c8.4-5.5,10.6,0.6,14-1.9c1.7-1.3,4.1,1,4.7-1.1c2.2-7.6-3-20.8-8.8-26.5c-1.9-1.9-4.8-3.1-8-3.7
																c-1.3-1.7-3.3-3.4-6.1-4.9c-3.2-1.7-10.1-3.9-13.7-4.5c-2.5-0.4-3.1,0.3-4.1,0.5c1,0.1,5.7,2.4,6.6,2.5
																c-0.9,0.6-3.6,0-5.3,0.7c-0.9,0.4-1.5,1.9-1.5,2.6c4.9-0.5,12.6,0,17.1,2c-3.6,0.4-9.1,0.9-11.4,2.1
																c-6.8,3.6-9.9,12-8.1,22.1c1.8,10.1,9.7,46.8,12.3,59.1c2.5,12.3-5.4,20.2-10.5,22.4l5.4,0.4l-1.8,4
																c6.5,0.7,13.7-1.4,13.7-1.4c-1.4,4-11.2,5.4-11.2,5.4s4.7,1.4,12.3-1.4c7.6-2.9,12.3-4.7,12.3-4.7l3.6,9.4l6.9-6.8
																l2.9,7.2C144.7,165.3,150.1,163.5,148.3,155.2z"/>
															<path class="st3" d="M150.5,153.5c-1.8-8.3-12.3-27-16.2-35c-4-7.9-7.9-19.1-6.1-26.3c0.3-1.3,0.3-6.7,1.4-7.4
																c8.4-5.5,7.8-0.2,11.2-2.6c1.7-1.3,3.1-2.8,3.7-4.9c2.2-7.6-3-20.8-8.8-26.5c-1.9-1.9-4.8-3.1-8-3.7
																c-1.3-1.7-3.3-3.4-6.1-4.9c-5.4-2.9-12.1-4-18.3-2.9c1,0.1,3.3,2.1,4.2,2.3c-1.4,0.9-5.1,0.8-5,2.9
																c4.9-0.5,10.3,0.3,14.8,2.3c-3.6,0.4-7,1.3-9.3,2.5c-6.9,3.6-8.7,10.8-6.9,20.9c1.8,10.1,9.7,46.9,12.3,59.1
																c2.5,12.3-5.4,20.2-10.4,22.4l5.4,0.4l-1.8,4c6.5,0.7,13.7-1.4,13.7-1.4c-1.4,4-11.2,5.4-11.2,5.4s4.7,1.4,12.3-1.4
																c7.6-2.9,12.3-4.7,12.3-4.7l3.6,9.4l6.9-6.9l2.9,7.2C146.9,163.6,152.3,161.8,150.5,153.5z"/>
															<path class="st4" d="M109,70.7c0-2.1,1.7-3.8,3.8-3.8c2.1,0,3.8,1.7,3.8,3.8c0,2.1-1.7,3.8-3.8,3.8
																C110.7,74.5,109,72.8,109,70.7z"/>
															<path class="st3" d="M113.5,69.4c0-0.5,0.4-1,1-1c0.5,0,1,0.4,1,1c0,0.5-0.4,1-1,1C113.9,70.4,113.5,70,113.5,69.4z"
																/>
															<path class="st4" d="M134.9,68.4c0-1.8,1.5-3.2,3.3-3.2c1.8,0,3.3,1.5,3.3,3.2c0,1.8-1.5,3.3-3.3,3.3
																C136.3,71.7,134.9,70.2,134.9,68.4z"/>
															<path class="st3" d="M138.7,67.4c0-0.5,0.4-0.8,0.8-0.8c0.5,0,0.8,0.4,0.8,0.8c0,0.5-0.4,0.8-0.8,0.8
																C139.1,68.2,138.7,67.8,138.7,67.4z"/>
															
																<linearGradient id="SVGID_3_" gradientUnits="userSpaceOnUse" x1="1893.3182" y1="3729.98" x2="1901.886" y2="3729.98" gradientTransform="matrix(1 0 0 1 -1788 -3669)">
																<stop  offset="5.600000e-03" style="stop-color:#6176B9"/>
																<stop  offset="0.691" style="stop-color:#394A9F"/>
															</linearGradient>
															<path class="st5" d="M113.9,59.7c0,0-2.9-1.3-5.6,0.5c-2.8,1.7-2.7,3.5-2.7,3.5s-1.5-3.3,2.5-4.9
																C112,57.2,113.9,59.7,113.9,59.7z"/>
															
																<linearGradient id="SVGID_4_" gradientUnits="userSpaceOnUse" x1="1920.2729" y1="3727.3711" x2="1928.078" y2="3727.3711" gradientTransform="matrix(1 0 0 1 -1788 -3669)">
																<stop  offset="5.600000e-03" style="stop-color:#6176B9"/>
																<stop  offset="0.691" style="stop-color:#394A9F"/>
															</linearGradient>
															<path class="st6" d="M140.1,59.5c0,0-2.1-1.2-3.6-1.2c-3.3,0-4.2,1.5-4.2,1.5s0.5-3.4,4.7-2.8
																C139.3,57.4,140.1,59.5,140.1,59.5z"/>
														</g>
													</g>
												</g>
											</g>
										</g>
									</g>
								</g>
							</g>
						</g>
					</g>
				</g>
			</g>
			<path class="st7" d="M124.4,85.3c0.4-2.3,6.3-6.6,10.5-6.9c4.2-0.3,5.5-0.2,9-1c3.5-0.8,12.5-3.1,15-4.2
				c2.5-1.2,13.1,0.6,5.6,4.7c-3.2,1.8-11.9,5.1-18.2,7c-6.2,1.9-10-1.8-12.1,1.3c-1.6,2.4-0.3,5.8,7.1,6.5
				c10,0.9,19.7-4.5,20.7-1.6c1.1,2.9-8.6,6.5-14.5,6.6c-5.9,0.1-17.8-3.9-19.6-5.1C126.3,91.2,123.9,88.3,124.4,85.3z"/>
		</g>
		<g>
			<path class="st8" d="M128.9,115.6c0,0-14.1-7.5-14.3-4.5c-0.2,3.1,0,15.5,1.6,16.5c1.6,0.9,13.4-6.1,13.4-6.1L128.9,115.6z"/>
			<path class="st8" d="M134.3,115.1c0,0,9.6-7.3,11.8-6.8c2.1,0.5,2.6,15.5,0.7,16.2c-1.9,0.7-12.9-3.8-12.9-3.8L134.3,115.1z"/>
			<path class="st9" d="M125.5,116.4c0,4.9-0.7,7,1.4,7.5c2.1,0.5,6.1,0,7.5-0.9c1.4-0.9,0.2-7.3-0.2-8.5
				C133.7,113.3,125.5,114.3,125.5,116.4z"/>
			<path class="st8" d="M126.4,115.3c0,4.9-0.7,7.1,1.4,7.5c2.1,0.5,6.1,0,7.5-0.9c1.4-0.9,0.2-7.3-0.2-8.5
				C134.6,112.2,126.4,113.2,126.4,115.3z"/>
		</g>
	</g>
	<circle class="st10" cx="127.3" cy="79" r="57.5"/>
</g>
</svg>
