<?xml version="1.0" encoding="UTF-8"?>
<svg width="56px" height="34px" viewBox="0 0 56 34" version="1.1" xmlns="http://www.w3.org/2000/svg" xmlns:xlink="http://www.w3.org/1999/xlink">
    <!-- Generator: Sketch 49.1 (51147) - http://www.bohemiancoding.com/sketch -->
    <title>lock</title>
    <desc>Created with Sketch.</desc>
    <defs></defs>
    <g id="Page-1" stroke="none" stroke-width="1" fill="none" fill-rule="evenodd">
        <g id="Feature-Icons-V4" transform="translate(-59.000000, -55.000000)">
            <g id="DDG-Privacy-Grade-Icons-v4" transform="translate(54.000000, 55.000000)">
                <g id="lock" transform="translate(5.000000, 0.000000)">
                    <g id="Group" fill-rule="nonzero">
                        <path d="M28,3 C29.8,3 32,4 32,7 L32,15 L24,15 L24,7 C24,4 26.2,3 28,3 Z M28,0 C24.1,0 21,2.7 21,7 L21,18 L35,18 L35,7 C35,2.7 31.9,0 28,0 Z" id="Shape" fill="#447337"></path>
                        <path d="M41,29 C41,31.2 39.2,33 37,33 L19,33 C16.8,33 15,31.2 15,29 L15,13 C15,10.8 16.8,9 19,9 L37,9 C39.2,9 41,10.8 41,13 L41,29 Z" id="Shape" fill="#6FBF5C"></path>
                        <path d="M51,10 L51,16 L45,16 L45,19 L52.5,19 C53.3,19 54,18.3 54,17.5 L54,10 L51,10 Z" id="Shape" fill="#E5E5E5"></path>
                        <path d="M5,10 L2,10 L2,17.5 C2,18.3 2.7,19 3.5,19 L11,19 L11,16 L5,16 L5,10 Z" id="Shape" fill="#E5E5E5"></path>
                        <path d="M2,23.5 L2,30 L5,30 L5,25 L11,25 L11,22 L3.5,22 C2.7,22 2,22.7 2,23.5 Z" id="Shape" fill="#E5E5E5"></path>
                        <path d="M52.5,22 L45,22 L45,25 L51,25 L51,30 L54,30 L54,23.5 C54,22.7 53.3,22 52.5,22 Z" id="Shape" fill="#E5E5E5"></path>
                        <circle id="Oval" fill="#C0C0C0" cx="3" cy="10" r="3"></circle>
                        <circle id="Oval" fill="#C0C0C0" cx="53" cy="10" r="3"></circle>
                        <circle id="Oval" fill="#C0C0C0" cx="3" cy="30" r="3"></circle>
                        <circle id="Oval" fill="#C0C0C0" cx="53" cy="30" r="3"></circle>
                        <path d="M39,9 L37,9 L37,33 L39,33 C40.1,33 41,32.1 41,31 L41,11 C41,9.9 40.1,9 39,9 Z" id="Shape" fill="#447337"></path>
                        <path d="M17,9 L19,9 L19,33 L17,33 C15.9,33 15,32.1 15,31 L15,11 C15,9.9 15.9,9 17,9 Z" id="Shape" fill="#9BD96F"></path>
                    </g>
                    <circle id="Oval" fill="#447337" fill-rule="nonzero" cx="28" cy="20" r="5"></circle>
                    <circle id="Oval" fill="#5A9C4B" fill-rule="nonzero" cx="28" cy="20" r="2"></circle>
                    <rect id="Rectangle-path" fill="#447337" fill-rule="nonzero" x="26" y="24" width="4" height="4"></rect>
                    <rect id="b/w" fill="#FFFFFF" style="mix-blend-mode: color;" x="0" y="1" width="56" height="33"></rect>
                </g>
            </g>
        </g>
    </g>
</svg>