<?xml version="1.0" encoding="UTF-8"?>
<svg width="56px" height="34px" viewBox="0 0 56 34" version="1.1" xmlns="http://www.w3.org/2000/svg" xmlns:xlink="http://www.w3.org/1999/xlink">
    <!-- Generator: Sketch 49.1 (51147) - http://www.bohemiancoding.com/sketch -->
    <title>lock-bad</title>
    <desc>Created with Sketch.</desc>
    <defs></defs>
    <g id="Page-1" stroke="none" stroke-width="1" fill="none" fill-rule="evenodd">
        <g id="Feature-Icons-V4" transform="translate(-155.000000, -55.000000)">
            <g id="DDG-Privacy-Grade-Icons-v4" transform="translate(54.000000, 55.000000)">
                <g id="lock-bad" transform="translate(101.000000, 0.000000)">
                    <g id="Group" fill-rule="nonzero">
                        <path d="M24,15 L24,7 C24,4 26.2,3 28,3 C29.3,3 30.8,3.6 31.6,5 L34.8,5 C34,1.9 31.3,0 28.1,0 C24.2,0 21.1,2.7 21.1,7 L21.1,18 L29.1,18 L29.1,15 L24,15 Z" id="Shape" fill="#7D3623"></path>
                        <path d="M41,31 C41,32.1 40.1,33 39,33 L17,33 C15.9,33 15,32.1 15,31 L15,11 C15,9.9 15.9,9 17,9 L39,9 C40.1,9 41,9.9 41,11 L41,31 Z" id="Shape" fill="#DE5833"></path>
                        <circle id="Oval" fill="#7D3623" cx="28" cy="20" r="5"></circle>
                        <path d="M52.5,19 L45,19 L45,16 L51,16 L51,10 L54,10 L54,17.5 C54,18.3 53.3,19 52.5,19 Z" id="Shape" fill="#E5E5E5"></path>
                        <path d="M11,19 L3.5,19 C2.7,19 2,18.3 2,17.5 L2,10 L5,10 L5,16 L11,16 L11,19 Z" id="Shape" fill="#E5E5E5"></path>
                        <path d="M5,30 L2,30 L2,23.5 C2,22.7 2.7,22 3.5,22 L11,22 L11,25 L5,25 L5,30 Z" id="Shape" fill="#E5E5E5"></path>
                        <path d="M54,30 L51,30 L51,25 L45,25 L45,22 L52.5,22 C53.3,22 54,22.7 54,23.5 L54,30 Z" id="Shape" fill="#E5E5E5"></path>
                        <circle id="Oval" fill="#C0C0C0" cx="3" cy="10" r="3"></circle>
                        <circle id="Oval" fill="#C0C0C0" cx="53" cy="10" r="3"></circle>
                        <circle id="Oval" fill="#C0C0C0" cx="3" cy="30" r="3"></circle>
                        <circle id="Oval" fill="#C0C0C0" cx="53" cy="30" r="3"></circle>
                    </g>
                    <circle id="Oval" fill="#9C452D" fill-rule="nonzero" cx="28" cy="20" r="2"></circle>
                    <path d="M39,9 L37,9 L37,33 L39,33 C40.1,33 41,32.1 41,31 L41,11 C41,9.9 40.1,9 39,9 Z" id="Shape" fill="#9C452D" fill-rule="nonzero"></path>
                    <path d="M17,9 L19,9 L19,33 L17,33 C15.9,33 15,32.1 15,31 L15,11 C15,9.9 15.9,9 17,9 Z" id="Shape" fill="#FF8D6E" fill-rule="nonzero"></path>
                    <rect id="Rectangle-path" fill="#7D3623" fill-rule="nonzero" x="26" y="24" width="4" height="4"></rect>
                    <rect id="b/w" fill="#FFFFFF" style="mix-blend-mode: color;" x="0" y="1" width="56" height="33"></rect>
                </g>
            </g>
        </g>
    </g>
</svg>