<?xml version="1.0" encoding="UTF-8"?>
<svg width="46px" height="43px" viewBox="0 0 46 43" version="1.1" xmlns="http://www.w3.org/2000/svg" xmlns:xlink="http://www.w3.org/1999/xlink">
    <!-- Generator: Sketch 49.1 (51147) - http://www.bohemiancoding.com/sketch -->
    <title>major</title>
    <desc>Created with Sketch.</desc>
    <defs></defs>
    <g id="Page-1" stroke="none" stroke-width="1" fill="none" fill-rule="evenodd">
        <g id="Feature-Icons-V4" transform="translate(-64.000000, -203.000000)">
            <g id="DDG-Privacy-Grade-Icons-v4" transform="translate(54.000000, 55.000000)">
                <g id="major" transform="translate(10.000000, 148.000000)">
                    <path d="M23,39.5 C11.1,39.5 1.5,31.2 1.5,21 C1.5,10.8 11.1,2.5 23,2.5 C34.9,2.5 44.5,10.8 44.5,21 C44.5,31.2 34.9,39.5 23,39.5 Z M23,5.5 C12.8,5.5 4.5,12.5 4.5,21 C4.5,29.5 12.8,36.5 23,36.5 C33.2,36.5 41.5,29.5 41.5,21 C41.5,12.5 33.2,5.5 23,5.5 Z" id="Shape" fill="#E5E5E5" fill-rule="nonzero"></path>
                    <g id="Group" fill-rule="nonzero">
                        <ellipse id="Oval" fill="#6FBF5C" cx="23" cy="21" rx="13" ry="11"></ellipse>
                        <ellipse id="Oval" fill="#9BD96F" cx="23" cy="21" rx="8.9" ry="7.5"></ellipse>
                        <rect id="Rectangle-path" fill="#6FBF5C" transform="translate(22.995300, 20.996700) rotate(-26.731608) translate(-22.995300, -20.996700) " x="12.4955748" y="19.4967393" width="20.9994503" height="2.99992147"></rect>
                        <g transform="translate(28.000000, 5.000000)">
                            <circle id="Oval" fill="#447337" cx="9" cy="9" r="9"></circle>
                            <path d="M10.4,6 C10.5,6 11.1,6 11.5,6 L11.5,4 L9.9,4 C8.8,4 7.5,4.9 7.5,6 L7.5,8 L6.5,8 L6.5,10 L7.5,10 L7.5,14 L9.5,14 L9.5,10 L11,10 L11.5,8 L9.5,8 C9.5,7.8 9.5,7.2 9.5,7 C9.5,6.4 9.9,6 10.4,6 Z" id="Shape" fill="#FFFFFF"></path>
                        </g>
                        <g transform="translate(0.000000, 5.000000)">
                            <circle id="Oval" fill="#447337" cx="9" cy="9" r="9"></circle>
                            <g transform="translate(3.000000, 5.000000)" fill="#FFFFFF" id="Shape">
                                <path d="M10.6,3 L12.6,2 L10.5,2 C10.3,0.9 9.3,0 8.1,0 C8.1,0 8.1,0 8.1,0 C6.8,0 5.8,0.9 5.6,2.1 C3.4,1.8 2.1,1.1 0.6,0 C0.6,2 1.9,3 1.9,3 L0.9,3 C1.6,5 3.1,5 3.1,5 L1.6,5 C2.2,5.7 3,6.3 3.9,6.7 C3,7.4 1.9,7.7 0.5,7.8 C1.6,8.6 2.8,9.1 4.3,9.1 C6.9,9.1 9.9,7 10.5,4.1 L12.2,4.1 L10.6,3 Z"></path>
                            </g>
                        </g>
                        <g transform="translate(14.000000, 25.000000)">
                            <circle id="Oval" fill="#447337" cx="9" cy="9" r="9"></circle>
                            <path d="M9,8 L9,10 L12.9,10 C12.5,11.7 10.9,13 9,13 C6.8,13 5,11.2 5,9 C5,6.8 6.8,5 9,5 C10.1,5 11.1,5.4 11.8,6.2 L13.2,4.8 C12.1,3.7 10.6,3 9,3 C5.7,3 3,5.7 3,9 C3,12.3 5.7,15 9,15 C12.3,15 15,12.3 15,9 L15,8 L9,8 Z" id="Shape" fill="#FFFFFF"></path>
                        </g>
                        <g transform="translate(19.000000, 0.000000)" id="Shape">
                            <path d="M1,4.8 C1,6 2,7 3.2,7 L4.7,7 C5.9,7 6.9,6 6.9,4.8 L6.9,3.3 C6.9,2.1 5.9,1.1 4.7,1.1 L3.2,1.1 C2,1.1 1,2.1 1,3.3 L1,4.8 Z" fill="#C0C0C0"></path>
                            <path d="M4.8,8 L3.3,8 C1.5,8 0.1,6.5 0.1,4.8 L0.1,3.3 C0.1,1.5 1.6,0.1 3.3,0.1 L4.8,0.1 C6.6,0.1 8,1.6 8,3.3 L8,4.8 C8,6.5 6.5,8 4.8,8 Z M3.2,2 C2.5,2 2,2.6 2,3.2 L2,4.7 C2,5.4 2.6,5.9 3.2,5.9 L4.7,5.9 C5.4,5.9 5.9,5.3 5.9,4.7 L5.9,3.2 C5.9,2.5 5.3,2 4.7,2 L3.2,2 Z" fill="#FFFFFF"></path>
                        </g>
                        <g transform="translate(36.000000, 27.000000)" id="Shape">
                            <path d="M1,4.8 C1,6 2,7 3.2,7 L4.7,7 C5.9,7 6.9,6 6.9,4.8 L6.9,3.3 C6.9,2.1 5.9,1.1 4.7,1.1 L3.2,1.1 C2,1.1 1,2.1 1,3.3 L1,4.8 Z" fill="#C0C0C0"></path>
                            <path d="M4.8,8 L3.3,8 C1.5,8 0.1,6.5 0.1,4.8 L0.1,3.3 C0.1,1.5 1.6,0.1 3.3,0.1 L4.8,0.1 C6.6,0.1 8,1.6 8,3.3 L8,4.8 C8,6.5 6.5,8 4.8,8 Z M3.2,2 C2.5,2 2,2.6 2,3.2 L2,4.7 C2,5.4 2.6,5.9 3.2,5.9 L4.7,5.9 C5.4,5.9 5.9,5.3 5.9,4.7 L5.9,3.2 C5.9,2.5 5.3,2 4.7,2 L3.2,2 Z" fill="#FFFFFF"></path>
                        </g>
                        <g transform="translate(2.000000, 27.000000)" id="Shape">
                            <path d="M1,4.8 C1,6 2,7 3.2,7 L4.7,7 C5.9,7 6.9,6 6.9,4.8 L6.9,3.3 C6.9,2.1 5.9,1.1 4.7,1.1 L3.2,1.1 C2,1.1 1,2.1 1,3.3 L1,4.8 Z" fill="#C0C0C0"></path>
                            <path d="M4.8,8 L3.3,8 C1.5,8 0.1,6.5 0.1,4.8 L0.1,3.3 C0.1,1.5 1.6,0.1 3.3,0.1 L4.8,0.1 C6.6,0.1 8,1.6 8,3.3 L8,4.8 C8,6.5 6.5,8 4.8,8 Z M3.2,2 C2.5,2 2,2.6 2,3.2 L2,4.7 C2,5.4 2.6,5.9 3.2,5.9 L4.7,5.9 C5.4,5.9 5.9,5.3 5.9,4.7 L5.9,3.2 C5.9,2.5 5.3,2 4.7,2 L3.2,2 Z" fill="#FFFFFF"></path>
                        </g>
                    </g>
                    <rect id="b/w" fill="#FFFFFF" style="mix-blend-mode: color;" x="0" y="3" width="46" height="40"></rect>
                </g>
            </g>
        </g>
    </g>
</svg>