<?xml version="1.0" encoding="UTF-8"?>
<svg width="50px" height="40px" viewBox="0 0 50 40" version="1.1" xmlns="http://www.w3.org/2000/svg" xmlns:xlink="http://www.w3.org/1999/xlink">
    <!-- Generator: Sketch 49.1 (51147) - http://www.bohemiancoding.com/sketch -->
    <title>policy-bad</title>
    <desc>Created with Sketch.</desc>
    <defs></defs>
    <g id="Page-1" stroke="none" stroke-width="1" fill="none" fill-rule="evenodd">
        <g id="Feature-Icons-V4" transform="translate(-158.000000, -282.000000)">
            <g id="DDG-Privacy-Grade-Icons-v4" transform="translate(54.000000, 55.000000)">
                <g id="policy-bad" transform="translate(104.000000, 227.000000)">
                    <g id="Group" transform="translate(10.000000, 0.000000)" fill-rule="nonzero">
                        <g transform="translate(0.000000, 3.000000)">
                            <polygon id="Shape" fill="#FF8D6E" points="6 16 0 10 0 0 6 0"></polygon>
                            <rect id="Rectangle-path" fill="#FFFFFF" x="6" y="0" width="6" height="16"></rect>
                            <rect id="Rectangle-path" fill="#DE5833" x="12" y="0" width="6" height="16"></rect>
                            <rect id="Rectangle-path" fill="#FFFFFF" x="18" y="0" width="6" height="16"></rect>
                            <polygon id="Shape" fill="#9C452D" points="24 16 30 10 30 0 24 0"></polygon>
                        </g>
                        <circle id="Oval" fill="#7D3623" cx="15" cy="26" r="14"></circle>
                        <circle id="Oval" fill="#DE5833" cx="15" cy="26" r="10"></circle>
                        <rect id="Rectangle-path" fill="#7D3623" x="0" y="0" width="30" height="3"></rect>
                        <polygon id="Shape" fill="#FFFFFF" points="20 29.2 16.8 26 20 22.8 18.2 21 15 24.2 11.8 21 10 22.8 13.2 26 10 29.2 11.8 31 15 27.8 18.2 31"></polygon>
                    </g>
                    <g id="Group" transform="translate(43.000000, 20.000000)" fill-rule="nonzero">
                        <path d="M0,15 C0,15.5 0.5,16 1,16 L2,16 C2.5,16 3,15.5 3,15 L3,14 C3,13.5 2.5,13 2,13 L1,13 C0.5,13 0,13.5 0,14 L0,15 Z" id="Shape" fill="#E5E5E5"></path>
                        <rect id="Rectangle-path" fill="#C0C0C0" x="3" y="0" width="2" height="6"></rect>
                        <rect id="Rectangle-path" fill="#C0C0C0" transform="translate(4.000000, 3.000000) rotate(90.000000) translate(-4.000000, -3.000000) " x="3" y="-5.68434189e-14" width="2" height="6"></rect>
                    </g>
                    <g id="Group" transform="translate(0.000000, 20.000000)" fill-rule="nonzero">
                        <path d="M7,1 C7,0.5 6.5,0 6,0 L5,0 C4.5,0 4,0.5 4,1 L4,2 C4,2.5 4.5,3 5,3 L6,3 C6.5,3 7,2.5 7,2 L7,1 Z" id="Shape" fill="#E5E5E5"></path>
                        <rect id="Rectangle-path" fill="#C0C0C0" transform="translate(3.000000, 13.000000) rotate(-180.000000) translate(-3.000000, -13.000000) " x="2" y="10" width="2" height="6"></rect>
                        <rect id="Rectangle-path" fill="#C0C0C0" transform="translate(3.000000, 13.000000) rotate(-90.000000) translate(-3.000000, -13.000000) " x="2" y="10" width="2" height="6"></rect>
                    </g>
                    <rect id="b/w" fill="#FFFFFF" style="mix-blend-mode: color;" x="10" y="0" width="30" height="40"></rect>
                </g>
            </g>
        </g>
    </g>
</svg>