<?xml version="1.0" encoding="UTF-8"?>
<svg width="72px" height="32px" viewBox="0 0 72 32" version="1.1" xmlns="http://www.w3.org/2000/svg" xmlns:xlink="http://www.w3.org/1999/xlink">
    <!-- Generator: Sketch 49.1 (51147) - http://www.bohemiancoding.com/sketch -->
    <title>shield-bad</title>
    <desc>Created with Sketch.</desc>
    <defs></defs>
    <g id="Page-1" stroke="none" stroke-width="1" fill="none" fill-rule="evenodd">
        <g id="Feature-Icons-V4" transform="translate(-147.000000, -136.000000)" fill-rule="nonzero">
            <g id="DDG-Privacy-Grade-Icons-v4" transform="translate(54.000000, 55.000000)">
                <g id="shield-bad" transform="translate(93.000000, 81.000000)">
                    <path d="M36,28.9 C38.6,28 47,24.5 47,15 L47,7.8 L43,11.6 L43,15.3 C43,18.4 40.5,20.9 37.4,20.9 L32.6,20.9 L29,24.4 C31.5,27.1 34.6,28.4 36,28.9 Z" id="Shape" fill="#DE5833"></path>
                    <g id="Group" transform="translate(0.000000, 4.000000)">
                        <g transform="translate(0.000000, 6.000000)">
                            <path d="M60.8,15.4 L52.8,4.4 C52.5,3.9 52.4,3.3 52.7,2.8 C53,2.3 53.5,2 54,2 L63,2 L63,5 L56.9,5 L63.2,13.6 L60.8,15.4 Z" id="Shape" fill="#E5E5E5"></path>
                            <path d="M11.2,15.4 L8.8,13.6 L15.1,5 L9,5 L9,2 L18,2 C18.6,2 19.1,2.3 19.3,2.8 C19.6,3.3 19.5,3.9 19.2,4.4 L11.2,15.4 Z" id="Shape" fill="#E5E5E5"></path>
                            <circle id="Oval" fill="#C0C0C0" cx="69" cy="3" r="3"></circle>
                            <circle id="Oval" fill="#C0C0C0" cx="3" cy="3" r="3"></circle>
                        </g>
                        <path d="M60,2 C60,2.5 60.5,3 61,3 L62,3 C62.5,3 63,2.5 63,2 L63,1 C63,0.5 62.5,0 62,0 L61,0 C60.5,0 60,0.5 60,1 L60,2 Z" id="Shape" fill="#E5E5E5"></path>
                        <path d="M9,2 C9,2.5 9.5,3 10,3 L11,3 C11.5,3 12,2.5 12,2 L12,1 C12,0.5 11.5,0 11,0 L10,0 C9.5,0 9,0.5 9,1 L9,2 Z" id="Shape" fill="#E5E5E5"></path>
                        <path d="M67,19 C67,19.5 67.5,20 68,20 L69,20 C69.5,20 70,19.5 70,19 L70,18 C70,17.5 69.5,17 69,17 L68,17 C67.5,17 67,17.5 67,18 L67,19 Z" id="Shape" fill="#E5E5E5"></path>
                        <path d="M2,19 C2,19.5 2.5,20 3,20 L4,20 C4.5,20 5,19.5 5,19 L5,18 C5,17.5 4.5,17 4,17 L3,17 C2.5,17 2,17.5 2,18 L2,19 Z" id="Shape" fill="#E5E5E5"></path>
                    </g>
                    <path d="M25,15 L25,7 C26.1,7 27,6.7 27.8,6.1 C28.8,5.4 29.6,4.3 29.9,3 L42,3 L42.1,3 C42.1,3.1 42.2,3.3 42.2,3.4 C42.3,3.6 42.3,3.8 42.4,4.1 L45,1.6 L45,0 L27,0 L27,2 C27,3.1 26.1,4 25,4 L22,4 L22,7 L22,15 C22,17.7 22.5,19.9 23.4,21.8 L25.7,19.5 C25.3,18.2 25,16.7 25,15 Z" id="Shape" fill="#7D3623"></path>
                    <path d="M46.8,4 L40.7,9.8 C40.3,10.2 40.1,10.7 40.1,11.2 L40.1,16.9 C40.1,17.5 39.7,17.9 39.1,17.9 L32.2,17.9 C31.7,17.9 31.2,18.1 30.8,18.5 L24.7,24.4 L26.8,26.5 C30.9,30.6 36,31.9 36,31.9 C36,31.9 50,28.4 50,14.9 L50,6.9 C50,6.9 50,6.9 50,6.9 C50,6.9 50,5.4 50,3.9 L46.8,3.9 L46.8,4 Z M47,15 C47,24.4 38.6,28 36,28.9 C34.6,28.4 31.5,27.1 28.9,24.6 L32.5,21.1 L40,21.1 C41.7,21.1 43,19.8 43,18.1 L43,11.8 L47,8 L47,15 Z" id="Shape" fill="#7D3623"></path>
                    <path d="M42.2,3.4 C42.2,3.3 42.1,3.1 42.1,3 L42,3 L29.9,3 C29.6,4.3 28.9,5.4 27.8,6.1 C27,6.7 26,7 25,7 L25,15 C25,16.7 25.3,18.2 25.7,19.6 L30,15.3 C30.2,15.1 30.4,15 30.7,15 L35.9,15 C36.5,15 36.9,14.6 36.9,14 L36.9,9.8 C36.9,9.5 37,9.3 37.2,9.1 L42.3,4.1 C42.3,3.9 42.2,3.6 42.2,3.4 Z" id="Shape" fill="#DE5833"></path>
                </g>
            </g>
        </g>
    </g>
</svg>