<?xml version="1.0" encoding="UTF-8"?>
<svg width="66px" height="32px" viewBox="0 0 66 32" version="1.1" xmlns="http://www.w3.org/2000/svg" xmlns:xlink="http://www.w3.org/1999/xlink">
    <!-- Generator: Sketch 49.1 (51147) - http://www.bohemiancoding.com/sketch -->
    <title>shield</title>
    <desc>Created with Sketch.</desc>
    <defs></defs>
    <g id="Page-1" stroke="none" stroke-width="1" fill="none" fill-rule="evenodd">
        <g id="Feature-Icons-V4" transform="translate(-54.000000, -136.000000)" fill-rule="nonzero">
            <g id="DDG-Privacy-Grade-Icons-v4" transform="translate(54.000000, 55.000000)">
                <g id="shield" transform="translate(0.000000, 81.000000)">
                    <path d="M44,6 C42.1,6 40.5,4.4 40.5,2.5 C40.5,2.2 40.3,2 40,2 L33,2 L26,2 C25.7,2 25.5,2.2 25.5,2.5 C25.5,4.4 23.9,6 22,6 L21,6 L21,15 C21,15.3 21,15.7 21,16 C21.6,26.2 30.9,29.8 33,30.4 C35,29.8 44.4,26.2 45,16 C45,15.7 45,15.3 45,15 L45,6 L44,6 Z" id="Shape" fill="#6FBF5C"></path>
                    <path d="M44,4 C42.9,4 42,3.1 42,2 L42,0 L24,0 L24,2 C24,3.1 23.1,4 22,4 L19,4 L19,7 L19,15 C19,28.5 33,32 33,32 C33,32 47,28.5 47,15 L47,7 C47,7 47,7 47,7 C47,7 47,5.5 47,4 L44,4 Z M44,15 C44,24.4 35.6,28 33,28.9 C30.4,28 22,24.4 22,15 L22,7 C23.1,7 24,6.7 24.8,6.1 C25.8,5.4 26.6,4.3 26.9,3 L39,3 L39.1,3 C39.4,4.3 40.1,5.4 41.2,6.1 C42,6.7 43,7 44,7 L44,15 Z" id="Shape" fill="#447337"></path>
                    <path d="M57.8,25.4 L49.8,14.4 C49.5,13.9 49.4,13.3 49.7,12.8 C50,12.3 50.5,12 51,12 L57,12 L57,15 L53.9,15 L60.2,23.6 L57.8,25.4 Z" id="Shape" fill="#E5E5E5"></path>
                    <path d="M8.2,25.4 L5.8,23.6 L12.1,15 L9,15 L9,12 L15,12 C15.6,12 16.1,12.3 16.3,12.8 C16.6,13.3 16.5,13.9 16.2,14.4 L8.2,25.4 Z" id="Shape" fill="#E5E5E5"></path>
                    <circle id="Oval" fill="#C0C0C0" cx="62" cy="14" r="3"></circle>
                    <circle id="Oval" fill="#C0C0C0" cx="4" cy="14" r="3"></circle>
                    <path d="M55,6 C55,6.5 55.5,7 56,7 L57,7 C57.5,7 58,6.5 58,6 L58,5 C58,4.5 57.5,4 57,4 L56,4 C55.5,4 55,4.5 55,5 L55,6 Z" id="Shape" fill="#E5E5E5"></path>
                    <path d="M8,6 C8,6.5 8.5,7 9,7 L10,7 C10.5,7 11,6.5 11,6 L11,5 C11,4.5 10.5,4 10,4 L9,4 C8.5,4 8,4.5 8,5 L8,6 Z" id="Shape" fill="#E5E5E5"></path>
                    <path d="M63,22 C63,22.5 63.5,23 64,23 L65,23 C65.5,23 66,22.5 66,22 L66,21 C66,20.5 65.5,20 65,20 L64,20 C63.5,20 63,20.5 63,21 L63,22 Z" id="Shape" fill="#E5E5E5"></path>
                    <path d="M0,22 C0,22.5 0.5,23 1,23 L2,23 C2.5,23 3,22.5 3,22 L3,21 C3,20.5 2.5,20 2,20 L1,20 C0.5,20 0,20.5 0,21 L0,22 Z" id="Shape" fill="#E5E5E5"></path>
                    <path d="M27,9 L27,15 C27,19 30.5,23 33,23 C35.5,23 39,19 39,15 L39,9 L27,9 Z" id="Shape" fill="#9BD96F"></path>
                </g>
            </g>
        </g>
    </g>
</svg>