<svg width="1200" height="5600" viewBox="0 0 1200 5600" version="1.1" xmlns="http://www.w3.org/2000/svg" xmlns:xlink="http://www.w3.org/1999/xlink">
<title>BACKGROUND</title>
<desc>Created using Figma</desc>
<g id="Canvas" transform="translate(-728 0)">
<g id="BACKGROUND">
<g id="Water-right">
<g id="water">
<g filter="url(#filter0_ii)">
<use xlink:href="#path0_fill" transform="translate(1680 156)" fill="#56CCF2"/>
</g>
<mask id="mask0_outline_out">
<rect id="mask0_outline_inv" fill="white" x="-20" y="-37" width="553" height="2402" transform="translate(1680 156)"/>
<use xlink:href="#path0_fill" fill="black" transform="translate(1680 156)"/>
</mask>
<g mask="url(#mask0_outline_out)">
<use xlink:href="#path1_stroke_2x" transform="translate(1680 156)" fill="#369E36"/>
</g>
</g>
<g id="wave">
<g id="Ellipse">
<use xlink:href="#path2_fill" transform="translate(1836 604)" fill="#1A87E0"/>
</g>
<g id="Ellipse">
<use xlink:href="#path2_fill" transform="translate(1884 604)" fill="#1A87E0"/>
</g>
<g id="Ellipse">
<use xlink:href="#path2_fill" transform="matrix(1 0 0 -1 1860 628)" fill="#1A87E0"/>
</g>
</g>
<g id="wave">
<g id="Ellipse">
<use xlink:href="#path2_fill" transform="translate(1720 880)" fill="#1A87E0"/>
</g>
<g id="Ellipse">
<use xlink:href="#path2_fill" transform="translate(1768 880)" fill="#1A87E0"/>
</g>
<g id="Ellipse">
<use xlink:href="#path2_fill" transform="matrix(1 0 0 -1 1744 904)" fill="#1A87E0"/>
</g>
</g>
<g id="wave">
<g id="Ellipse">
<use xlink:href="#path2_fill" transform="translate(1792 1286)" fill="#1A87E0"/>
</g>
<g id="Ellipse">
<use xlink:href="#path2_fill" transform="translate(1840 1286)" fill="#1A87E0"/>
</g>
<g id="Ellipse">
<use xlink:href="#path2_fill" transform="matrix(1 0 0 -1 1816 1310)" fill="#1A87E0"/>
</g>
</g>
<g id="wave">
<g id="Ellipse">
<use xlink:href="#path2_fill" transform="translate(1720 1692)" fill="#1A87E0"/>
</g>
<g id="Ellipse">
<use xlink:href="#path2_fill" transform="translate(1768 1692)" fill="#1A87E0"/>
</g>
<g id="Ellipse">
<use xlink:href="#path2_fill" transform="matrix(1 0 0 -1 1744 1716)" fill="#1A87E0"/>
</g>
</g>
</g>
<g id="Land">
<g id="desert">
<use xlink:href="#path3_fill" transform="translate(886 1844)" fill="#B9A076"/>
</g>
<g id="desertland">
<use xlink:href="#path4_fill" transform="translate(728 2400)" fill="#B9A076"/>
</g>
<g id="bump">
<use xlink:href="#path5_fill" transform="translate(1517.69 2669)" fill="#A2814F"/>
</g>
<g id="bump">
<use xlink:href="#path5_fill" transform="translate(876 2911)" fill="#A2814F"/>
</g>
<g id="bump">
<use xlink:href="#path5_fill" transform="translate(1104.69 3306)" fill="#A2814F"/>
</g>
<g id="bump">
<use xlink:href="#path5_fill" transform="translate(1405.69 2179)" fill="#A2814F"/>
</g>
<g id="bump">
<use xlink:href="#path5_fill" transform="translate(1212 1955)" fill="#A2814F"/>
</g>
<g id="bump">
<use xlink:href="#path5_fill" transform="translate(1176 2357)" fill="#A2814F"/>
</g>
<g id="bump">
<use xlink:href="#path5_fill" transform="translate(1200 2735)" fill="#A2814F"/>
</g>
<g id="bump">
<use xlink:href="#path6_fill" transform="translate(1040.69 2564)" fill="#A2814F"/>
</g>
<g id="bump">
<use xlink:href="#path6_fill" transform="translate(1602 2440)" fill="#A2814F"/>
</g>
<g id="bump">
<use xlink:href="#path6_fill" transform="translate(1756 2976)" fill="#A2814F"/>
</g>
<g id="bump">
<use xlink:href="#path6_fill" transform="translate(1521.69 3294)" fill="#A2814F"/>
</g>
<g id="bump">
<use xlink:href="#path6_fill" transform="translate(1160 3100)" fill="#A2814F"/>
</g>
<g id="land">
<use xlink:href="#path7_fill" transform="translate(782 518)" fill="#50B650"/>
</g>
<g id="bump">
<use xlink:href="#path5_fill" transform="translate(1128 1038)" fill="#78C878"/>
</g>
<g id="bump">
<use xlink:href="#path5_fill" transform="translate(1417 1258)" fill="#78C878"/>
</g>
<g id="bump">
<use xlink:href="#path6_fill" transform="translate(940 1153)" fill="#78C878"/>
</g>
<g id="bump">
<use xlink:href="#path6_fill" transform="translate(1010 904)" fill="#78C878"/>
</g>
<g id="bump">
<use xlink:href="#path5_fill" transform="translate(1417 858)" fill="#78C878"/>
</g>
<g id="bump">
<use xlink:href="#path5_fill" transform="translate(1417 563)" fill="#78C878"/>
</g>
<g id="bump">
<use xlink:href="#path5_fill" transform="translate(1182 643)" fill="#78C878"/>
</g>
<g id="plant">
<g id="Rectangle 2">
<use xlink:href="#path8_fill" transform="translate(884 667)" fill="#369E36"/>
</g>
<g id="Rectangle 2">
<use xlink:href="#path8_fill" transform="matrix(-1 0 0 1 932 655)" fill="#369E36"/>
</g>
</g>
<g id="plant">
<g id="Rectangle 2">
<use xlink:href="#path8_fill" transform="translate(1183 472)" fill="#369E36"/>
</g>
<g id="Rectangle 2">
<use xlink:href="#path8_fill" transform="matrix(-1 0 0 1 1231 460)" fill="#369E36"/>
</g>
</g>
<g id="plant">
<g id="Rectangle 2">
<use xlink:href="#path8_fill" transform="translate(1590 702)" fill="#369E36"/>
</g>
<g id="Rectangle 2">
<use xlink:href="#path8_fill" transform="matrix(-1 0 0 1 1638 690)" fill="#369E36"/>
</g>
</g>
<g id="plant">
<g id="Rectangle 2">
<use xlink:href="#path8_fill" transform="translate(1642 49)" fill="#369E36"/>
</g>
<g id="Rectangle 2">
<use xlink:href="#path8_fill" transform="matrix(-1 0 0 1 1690 37)" fill="#369E36"/>
</g>
</g>
<g id="plant">
<g id="Rectangle 2">
<use xlink:href="#path8_fill" transform="translate(1024 80)" fill="#369E36"/>
</g>
<g id="Rectangle 2">
<use xlink:href="#path8_fill" transform="matrix(-1 0 0 1 1072 68)" fill="#369E36"/>
</g>
</g>
<g id="plant">
<g id="Rectangle 2">
<use xlink:href="#path8_fill" transform="translate(823 263.253)" fill="#369E36"/>
</g>
<g id="Rectangle 2">
<use xlink:href="#path8_fill" transform="matrix(-1 0 0 1 871 251.253)" fill="#369E36"/>
</g>
</g>
<g id="plant">
<g id="Rectangle 2">
<use xlink:href="#path8_fill" transform="matrix(-1 0 0 1 806 514)" fill="#369E36"/>
</g>
<g id="Rectangle 2">
<use xlink:href="#path8_fill" transform="translate(758 502)" fill="#369E36"/>
</g>
</g>
<g id="plant">
<g id="Rectangle 2">
<use xlink:href="#path8_fill" transform="matrix(-1 0 0 1 806 880)" fill="#369E36"/>
</g>
<g id="Rectangle 2">
<use xlink:href="#path8_fill" transform="translate(758 868)" fill="#369E36"/>
</g>
</g>
<g id="plant">
<g id="Rectangle 2">
<use xlink:href="#path8_fill" transform="matrix(-1 0 0 1 1248 1673)" fill="#369E36"/>
</g>
<g id="Rectangle 2">
<use xlink:href="#path8_fill" transform="translate(1200 1661)" fill="#369E36"/>
</g>
</g>
<g id="plant">
<g id="Rectangle 2">
<use xlink:href="#path8_fill" transform="matrix(-1 0 0 1 876 1853.97)" fill="#369E36"/>
</g>
<g id="Rectangle 2">
<use xlink:href="#path8_fill" transform="translate(828 1841.97)" fill="#369E36"/>
</g>
</g>
<g id="plant">
<g id="Rectangle 2">
<use xlink:href="#path8_fill" transform="matrix(-1 0 0 1 1477 476)" fill="#369E36"/>
</g>
<g id="Rectangle 2">
<use xlink:href="#path8_fill" transform="translate(1429 464)" fill="#369E36"/>
</g>
</g>
<g id="plant">
<g id="Rectangle 2">
<use xlink:href="#path8_fill" transform="matrix(-1 0 0 1 1024 311.38)" fill="#369E36"/>
</g>
<g id="Rectangle 2">
<use xlink:href="#path8_fill" transform="translate(976 299.38)" fill="#369E36"/>
</g>
</g>
<g id="plant">
<g id="Rectangle 2">
<use xlink:href="#path8_fill" transform="matrix(-1 0 0 1 1416 43)" fill="#369E36"/>
</g>
<g id="Rectangle 2">
<use xlink:href="#path8_fill" transform="translate(1368 31)" fill="#369E36"/>
</g>
</g>
<g id="plant">
<g id="Rectangle 2">
<use xlink:href="#path8_fill" transform="matrix(-1 0 0 1 1788 239.253)" fill="#369E36"/>
</g>
<g id="Rectangle 2">
<use xlink:href="#path8_fill" transform="translate(1740 227.253)" fill="#369E36"/>
</g>
</g>
<g id="plant">
<g id="Rectangle 2">
<use xlink:href="#path8_fill" transform="translate(1056.15 1423)" fill="#369E36"/>
</g>
<g id="Rectangle 2">
<use xlink:href="#path8_fill" transform="matrix(-1 0 0 1 1104.15 1411)" fill="#369E36"/>
</g>
</g>
<g id="plant">
<g id="Rectangle 2">
<use xlink:href="#path8_fill" transform="translate(840 1535)" fill="#369E36"/>
</g>
<g id="Rectangle 2">
<use xlink:href="#path8_fill" transform="matrix(-1 0 0 1 888 1523)" fill="#369E36"/>
</g>
</g>
<g id="plant">
<g id="Rectangle 2">
<use xlink:href="#path8_fill" transform="translate(940 1789)" fill="#369E36"/>
</g>
<g id="Rectangle 2">
<use xlink:href="#path8_fill" transform="matrix(-1 0 0 1 988 1777)" fill="#369E36"/>
</g>
</g>
<g id="plant">
<g id="Rectangle 2">
<use xlink:href="#path8_fill" transform="translate(1522 1807)" fill="#369E36"/>
</g>
<g id="Rectangle 2">
<use xlink:href="#path8_fill" transform="matrix(-1 0 0 1 1570 1795)" fill="#369E36"/>
</g>
</g>
<g id="plant">
<g id="Rectangle 2">
<use xlink:href="#path8_fill" transform="matrix(-1 0 0 1 1626 1661)" fill="#369E36"/>
</g>
<g id="Rectangle 2">
<use xlink:href="#path8_fill" transform="translate(1578 1649)" fill="#369E36"/>
</g>
</g>
<g id="plant">
<g id="Rectangle 2">
<use xlink:href="#path8_fill" transform="translate(1028.69 2179)" fill="#369E36"/>
</g>
<g id="Rectangle 2">
<use xlink:href="#path8_fill" transform="matrix(-1 0 0 1 1076.69 2167)" fill="#369E36"/>
</g>
</g>
<g id="plant">
<g id="Rectangle 2">
<use xlink:href="#path8_fill" transform="translate(782 2261)" fill="#369E36"/>
</g>
<g id="Rectangle 2">
<use xlink:href="#path8_fill" transform="matrix(-1 0 0 1 830 2249)" fill="#369E36"/>
</g>
</g>
<g id="tree">
<path d="M 852 50L 852 150L 852 50Z" fill="#95593C"/>
<g id="trunk">
<use xlink:href="#path9_stroke" transform="translate(852 120)" fill="#5A3A23"/>
</g>
<g id="leaves">
<use xlink:href="#path10_stroke" transform="translate(852 50)" fill="#247E24"/>
</g>
</g>
<g id="tree">
<path d="M 1828 61L 1828 161L 1828 61Z" fill="#95593C"/>
<g id="trunk">
<use xlink:href="#path9_stroke" transform="translate(1828 131)" fill="#5A3A23"/>
</g>
<g id="leaves">
<use xlink:href="#path10_stroke" transform="translate(1828 61)" fill="#247E24"/>
</g>
</g>
<g id="tree">
<path d="M 1652 170L 1652 270L 1652 170Z" fill="#95593C"/>
<g id="trunk">
<use xlink:href="#path9_stroke" transform="translate(1652 240)" fill="#5A3A23"/>
</g>
<g id="leaves">
<use xlink:href="#path10_stroke" transform="translate(1652 170)" fill="#247E24"/>
</g>
</g>
<g id="tree">
<path d="M 1546 499L 1546 599L 1546 499Z" fill="#95593C"/>
<g id="trunk">
<use xlink:href="#path9_stroke" transform="translate(1546 569)" fill="#5A3A23"/>
</g>
<g id="leaves">
<use xlink:href="#path10_stroke" transform="translate(1546 499)" fill="#247E24"/>
</g>
</g>
<g id="tree">
<path d="M 772 120L 772 220L 772 120Z" fill="#95593C"/>
<g id="trunk">
<use xlink:href="#path9_stroke" transform="translate(772 190)" fill="#5A3A23"/>
</g>
<g id="leaves">
<use xlink:href="#path10_stroke" transform="translate(772 120)" fill="#247E24"/>
</g>
</g>
<g id="tree">
<path d="M 932 170L 932 270L 932 170Z" fill="#95593C"/>
<g id="trunk">
<use xlink:href="#path9_stroke" transform="translate(932 240)" fill="#5A3A23"/>
</g>
<g id="leaves">
<use xlink:href="#path10_stroke" transform="translate(932 170)" fill="#247E24"/>
</g>
</g>
<g id="tree">
<path d="M 1195.5 -36L 1195.5 64L 1195.5 -36Z" fill="#95593C"/>
<g id="trunk">
<use xlink:href="#path9_stroke" transform="translate(1195.5 34)" fill="#5A3A23"/>
</g>
<g id="leaves">
<use xlink:href="#path10_stroke" transform="translate(1195.5 -36)" fill="#247E24"/>
</g>
</g>
<g id="tree">
<path d="M 1010 494L 1010 594L 1010 494Z" fill="#95593C"/>
<g id="trunk">
<use xlink:href="#path9_stroke" transform="translate(1010 564)" fill="#5A3A23"/>
</g>
<g id="leaves">
<use xlink:href="#path10_stroke" transform="translate(1010 494)" fill="#247E24"/>
</g>
</g>
<g id="tree">
<path d="M 1070 675L 1070 775L 1070 675Z" fill="#95593C"/>
<g id="trunk">
<use xlink:href="#path9_stroke" transform="translate(1070 745)" fill="#5A3A23"/>
</g>
<g id="leaves">
<use xlink:href="#path10_stroke" transform="translate(1070 675)" fill="#247E24"/>
</g>
</g>
<g id="tree">
<path d="M 994 904L 994 1004L 994 904Z" fill="#95593C"/>
<g id="trunk">
<use xlink:href="#path9_stroke" transform="translate(994 974)" fill="#5A3A23"/>
</g>
<g id="leaves">
<use xlink:href="#path10_stroke" transform="translate(994 904)" fill="#247E24"/>
</g>
</g>
<g id="tree">
<path d="M 1010 1270L 1010 1370L 1010 1270Z" fill="#95593C"/>
<g id="trunk">
<use xlink:href="#path9_stroke" transform="translate(1010 1340)" fill="#5A3A23"/>
</g>
<g id="leaves">
<use xlink:href="#path10_stroke" transform="translate(1010 1270)" fill="#247E24"/>
</g>
</g>
<g id="tree">
<path d="M 852 1976L 852 2076L 852 1976Z" fill="#95593C"/>
<g id="trunk">
<use xlink:href="#path9_stroke" transform="translate(852 2046)" fill="#5A3A23"/>
</g>
<g id="leaves">
<use xlink:href="#path10_stroke" transform="translate(852 1976)" fill="#247E24"/>
</g>
</g>
<g id="tree">
<path d="M 1796.25 1961L 1796.25 2061L 1796.25 1961Z" fill="#95593C"/>
<g id="trunk">
<use xlink:href="#path9_stroke" transform="translate(1796.25 2031)" fill="#5A3A23"/>
</g>
<g id="leaves">
<use xlink:href="#path10_stroke" transform="translate(1796.25 1961)" fill="#247E24"/>
</g>
</g>
<g id="tree">
<path d="M 1796.25 1961L 1796.25 2061L 1796.25 1961Z" fill="#95593C"/>
<g id="trunk">
<use xlink:href="#path9_stroke" transform="translate(1796.25 2031)" fill="#5A3A23"/>
</g>
<g id="leaves">
<use xlink:href="#path10_stroke" transform="translate(1796.25 1961)" fill="#247E24"/>
</g>
</g>
<g id="tree">
<path d="M 1480 1611L 1480 1711L 1480 1611Z" fill="#95593C"/>
<g id="trunk">
<use xlink:href="#path9_stroke" transform="translate(1480 1681)" fill="#5A3A23"/>
</g>
<g id="leaves">
<use xlink:href="#path10_stroke" transform="translate(1480 1611)" fill="#247E24"/>
</g>
</g>
<g id="tree">
<path d="M 1602 2121L 1602 2221L 1602 2121Z" fill="#95593C"/>
<g id="trunk">
<use xlink:href="#path9_stroke" transform="translate(1602 2191)" fill="#5A3A23"/>
</g>
<g id="leaves">
<use xlink:href="#path10_stroke" transform="translate(1602 2121)" fill="#247E24"/>
</g>
</g>
<g id="tree">
<path d="M 852 1044L 852 1144L 852 1044Z" fill="#95593C"/>
<g id="trunk">
<use xlink:href="#path9_stroke" transform="translate(852 1114)" fill="#5A3A23"/>
</g>
<g id="leaves">
<use xlink:href="#path10_stroke" transform="translate(852 1044)" fill="#247E24"/>
</g>
</g>
<g id="tree">
<path d="M 1546 834L 1546 934L 1546 834Z" fill="#95593C"/>
<g id="trunk">
<use xlink:href="#path9_stroke" transform="translate(1546 904)" fill="#5A3A23"/>
</g>
<g id="leaves">
<use xlink:href="#path10_stroke" transform="translate(1546 834)" fill="#247E24"/>
</g>
</g>
<g id="tree">
<path d="M 852 350L 852 450L 852 350Z" fill="#95593C"/>
<g id="trunk">
<use xlink:href="#path9_stroke" transform="translate(852 420)" fill="#5A3A23"/>
</g>
<g id="leaves">
<use xlink:href="#path10_stroke" transform="translate(852 350)" fill="#247E24"/>
</g>
</g>
<g id="tree">
<path d="M 809.608 625L 809.608 725L 809.608 625Z" fill="#95593C"/>
<g id="trunk">
<use xlink:href="#path9_stroke" transform="translate(809.608 695)" fill="#5A3A23"/>
</g>
<g id="leaves">
<use xlink:href="#path10_stroke" transform="translate(809.608 625)" fill="#247E24"/>
</g>
</g>
</g>
<g id="Water-bottom">
<g id="water">
<g filter="url(#filter1_ii)">
<use xlink:href="#path11_fill" transform="translate(728 3200)" fill="#56CCF2"/>
</g>
<mask id="mask1_outline_out">
<rect id="mask1_outline_inv" fill="white" x="-20" y="-36" width="1240" height="1656" transform="translate(728 3200)"/>
<use xlink:href="#path11_fill" fill="black" transform="translate(728 3200)"/>
</mask>
<g mask="url(#mask1_outline_out)">
<use xlink:href="#path12_stroke_2x" transform="translate(728 3200)" fill="#835735"/>
</g>
</g>
<g id="wave">
<g id="Ellipse">
<use xlink:href="#path2_fill" transform="translate(912 3722)" fill="#1A87E0"/>
</g>
<g id="Ellipse">
<use xlink:href="#path2_fill" transform="translate(960 3722)" fill="#1A87E0"/>
</g>
<g id="Ellipse">
<use xlink:href="#path2_fill" transform="matrix(1 0 0 -1 936 3746)" fill="#1A87E0"/>
</g>
</g>
<g id="wave">
<g id="Ellipse">
<use xlink:href="#path2_fill" transform="translate(1730 3600)" fill="#1A87E0"/>
</g>
<g id="Ellipse">
<use xlink:href="#path2_fill" transform="translate(1778 3600)" fill="#1A87E0"/>
</g>
<g id="Ellipse">
<use xlink:href="#path2_fill" transform="matrix(1 0 0 -1 1754 3624)" fill="#1A87E0"/>
</g>
</g>
<g id="wave">
<g id="Ellipse">
<use xlink:href="#path2_fill" transform="translate(1422.99 3900)" fill="#1A87E0"/>
</g>
<g id="Ellipse">
<use xlink:href="#path2_fill" transform="translate(1470.99 3900)" fill="#1A87E0"/>
</g>
<g id="Ellipse">
<use xlink:href="#path2_fill" transform="matrix(1 0 0 -1 1446.99 3924)" fill="#1A87E0"/>
</g>
</g>
<g id="wave">
<g id="Ellipse">
<use xlink:href="#path2_fill" transform="matrix(-1 0 0 1 1802 4252)" fill="#1A87E0"/>
</g>
<g id="Ellipse">
<use xlink:href="#path2_fill" transform="matrix(-1 0 0 1 1754 4252)" fill="#1A87E0"/>
</g>
<g id="Ellipse">
<use xlink:href="#path2_fill" transform="matrix(-1 0 -0 -1 1778 4276)" fill="#1A87E0"/>
</g>
</g>
<g id="wave">
<g id="Ellipse">
<use xlink:href="#path2_fill" transform="matrix(-1 0 0 1 984 4130)" fill="#1A87E0"/>
</g>
<g id="Ellipse">
<use xlink:href="#path2_fill" transform="matrix(-1 0 0 1 936 4130)" fill="#1A87E0"/>
</g>
<g id="Ellipse">
<use xlink:href="#path2_fill" transform="matrix(-1 0 -0 -1 960 4154)" fill="#1A87E0"/>
</g>
</g>
<g id="wave">
<g id="Ellipse">
<use xlink:href="#path2_fill" transform="matrix(-1 0 0 1 1291.01 4430)" fill="#1A87E0"/>
</g>
<g id="Ellipse">
<use xlink:href="#path2_fill" transform="matrix(-1 0 0 1 1243.01 4430)" fill="#1A87E0"/>
</g>
<g id="Ellipse">
<use xlink:href="#path2_fill" transform="matrix(-1 0 -0 -1 1267.01 4454)" fill="#1A87E0"/>
</g>
</g>
</g>
<g id="ice">
<use xlink:href="#path13_fill" transform="translate(728 4500)" fill="#D4F4FF"/>
<mask id="mask2_outline_out">
<rect id="mask2_outline_inv" fill="white" x="-20" y="-20" width="1240" height="1380" transform="translate(728 4500)"/>
<use xlink:href="#path13_fill" fill="black" transform="translate(728 4500)"/>
</mask>
<g mask="url(#mask2_outline_out)">
<use xlink:href="#path14_stroke_2x" transform="translate(728 4500)" fill="#B3EBFF"/>
</g>
</g>
<g id="Eye-shadow" opacity="0.15">
<g id="shadow">
<use xlink:href="#path15_fill" transform="translate(1253 2867)"/>
</g>
<g id="shadow">
<use xlink:href="#path16_fill" transform="translate(1203 2887)"/>
</g>
<g id="shadow">
<use xlink:href="#path16_fill" transform="translate(1363 2907)"/>
</g>
</g>
<g id="House">
<g id="house">
<use xlink:href="#path17_fill" transform="translate(1128 164)" fill="#B9A076"/>
</g>
<g id="--Roof">
<g id="roof-shadow">
<use xlink:href="#path17_fill" transform="translate(1128 91)" fill="#111111" fill-opacity="0.15"/>
</g>
<g id="roof-edge">
<use xlink:href="#path17_fill" transform="translate(1128 84)" fill="#B9A076"/>
</g>
<g id="roof">
<use xlink:href="#path18_fill" transform="translate(1148 89)" fill="#835735"/>
</g>
<g id="roof-top">
<use xlink:href="#path19_fill" transform="translate(1223 100)" fill="#835735"/>
<mask id="mask3_outline_ins">
<use xlink:href="#path19_fill" fill="white" transform="translate(1223 100)"/>
</mask>
<g mask="url(#mask3_outline_ins)">
<use xlink:href="#path20_stroke_2x" transform="translate(1223 100)" fill="#B9A076"/>
</g>
</g>
<g id="Vector">
<use xlink:href="#path21_stroke" transform="translate(1154 228)" fill="#B9A076"/>
</g>
<g id="Vector">
<use xlink:href="#path21_stroke" transform="matrix(-1 0 0 1 1502 228)" fill="#B9A076"/>
</g>
<g id="Vector">
<use xlink:href="#path22_stroke" transform="matrix(-1 0 0 1 1496 97)" fill="#B9A076"/>
</g>
<g id="Vector">
<use xlink:href="#path22_stroke" transform="translate(1160 97)" fill="#B9A076"/>
</g>
</g>
<g id="--Door">
<g id="door-top">
<use xlink:href="#path23_fill" transform="translate(1258 294)" fill="#B9A076"/>
</g>
<g id="Subtract">
<use xlink:href="#path24_fill" transform="translate(1258 314)" fill="#A2814F"/>
</g>
</g>
<g id="--Window">
<g id="Rectangle">
<use xlink:href="#path25_fill" transform="translate(1172 384)" fill="#B5AA86"/>
<mask id="mask4_outline_ins">
<use xlink:href="#path25_fill" fill="white" transform="translate(1172 384)"/>
</mask>
<g mask="url(#mask4_outline_ins)">
<use xlink:href="#path26_stroke_2x" transform="translate(1172 384)" fill="#534C2D" fill-opacity="0.5"/>
</g>
</g>
<g id="Rectangle">
<use xlink:href="#path27_fill" transform="matrix(6.12323e-17 -1 1 6.12323e-17 1172 392)" fill="#B5AA86"/>
<mask id="mask5_outline_ins">
<use xlink:href="#path27_fill" fill="white" transform="matrix(6.12323e-17 -1 1 6.12323e-17 1172 392)"/>
</mask>
<g mask="url(#mask5_outline_ins)">
<use xlink:href="#path28_stroke_2x" transform="matrix(6.12323e-17 -1 1 6.12323e-17 1172 392)" fill="#534C2D" fill-opacity="0.5"/>
</g>
</g>
<g id="Rectangle">
<use xlink:href="#path27_fill" transform="matrix(6.12323e-17 -1 1 6.12323e-17 1214 392)" fill="#B5AA86"/>
<mask id="mask6_outline_ins">
<use xlink:href="#path27_fill" fill="white" transform="matrix(6.12323e-17 -1 1 6.12323e-17 1214 392)"/>
</mask>
<g mask="url(#mask6_outline_ins)">
<use xlink:href="#path28_stroke_2x" transform="matrix(6.12323e-17 -1 1 6.12323e-17 1214 392)" fill="#534C2D" fill-opacity="0.5"/>
</g>
</g>
<g id="Rectangle">
<use xlink:href="#path29_fill" transform="translate(1168 354)" fill="#B5AA86"/>
<mask id="mask7_outline_ins">
<use xlink:href="#path29_fill" fill="white" transform="translate(1168 354)"/>
</mask>
<g mask="url(#mask7_outline_ins)">
<use xlink:href="#path30_stroke_2x" transform="translate(1168 354)" fill="#534C2D" fill-opacity="0.5"/>
</g>
</g>
</g>
<g id="--Window">
<g id="Rectangle">
<use xlink:href="#path25_fill" transform="translate(1428 384)" fill="#B5AA86"/>
<mask id="mask8_outline_ins">
<use xlink:href="#path25_fill" fill="white" transform="translate(1428 384)"/>
</mask>
<g mask="url(#mask8_outline_ins)">
<use xlink:href="#path26_stroke_2x" transform="translate(1428 384)" fill="#534C2D" fill-opacity="0.5"/>
</g>
</g>
<g id="Rectangle">
<use xlink:href="#path27_fill" transform="matrix(6.12323e-17 -1 1 6.12323e-17 1428 392)" fill="#B5AA86"/>
<mask id="mask9_outline_ins">
<use xlink:href="#path27_fill" fill="white" transform="matrix(6.12323e-17 -1 1 6.12323e-17 1428 392)"/>
</mask>
<g mask="url(#mask9_outline_ins)">
<use xlink:href="#path28_stroke_2x" transform="matrix(6.12323e-17 -1 1 6.12323e-17 1428 392)" fill="#534C2D" fill-opacity="0.5"/>
</g>
</g>
<g id="Rectangle">
<use xlink:href="#path27_fill" transform="matrix(6.12323e-17 -1 1 6.12323e-17 1470 392)" fill="#B5AA86"/>
<mask id="mask10_outline_ins">
<use xlink:href="#path27_fill" fill="white" transform="matrix(6.12323e-17 -1 1 6.12323e-17 1470 392)"/>
</mask>
<g mask="url(#mask10_outline_ins)">
<use xlink:href="#path28_stroke_2x" transform="matrix(6.12323e-17 -1 1 6.12323e-17 1470 392)" fill="#534C2D" fill-opacity="0.5"/>
</g>
</g>
<g id="Rectangle">
<use xlink:href="#path29_fill" transform="translate(1424 354)" fill="#B5AA86"/>
<mask id="mask11_outline_ins">
<use xlink:href="#path29_fill" fill="white" transform="translate(1424 354)"/>
</mask>
<g mask="url(#mask11_outline_ins)">
<use xlink:href="#path30_stroke_2x" transform="translate(1424 354)" fill="#534C2D" fill-opacity="0.5"/>
</g>
</g>
</g>
</g>
</g>
</g>
<defs>
<filter id="filter0_ii" filterUnits="userSpaceOnUse" x="1660" y="119" width="268" height="2402" color-interpolation-filters="sRGB">
<feFlood flood-opacity="0" result="BackgroundImageFix"/>
<feBlend mode="normal" in="SourceGraphic" in2="BackgroundImageFix" result="shape"/>
<feColorMatrix in="SourceAlpha" type="matrix" values="0 0 0 0 0 0 0 0 0 0 0 0 0 0 0 0 0 0 255 0" result="hardAlpha"/>
<feOffset dx="0" dy="140"/>
<feComposite in2="hardAlpha" operator="arithmetic" k2="-1" k3="1"/>
<feColorMatrix type="matrix" values="0 0 0 0 0.227451 0 0 0 0 0.733333 0 0 0 0 0.933333 0 0 0 1 0"/>
<feBlend mode="normal" in2="shape" result="effect1_innerShadow"/>
<feColorMatrix in="SourceAlpha" type="matrix" values="0 0 0 0 0 0 0 0 0 0 0 0 0 0 0 0 0 0 255 0" result="hardAlpha"/>
<feOffset dx="0" dy="100"/>
<feComposite in2="hardAlpha" operator="arithmetic" k2="-1" k3="1"/>
<feColorMatrix type="matrix" values="0 0 0 0 0.72549 0 0 0 0 0.627451 0 0 0 0 0.462745 0 0 0 1 0"/>
<feBlend mode="normal" in2="effect1_innerShadow" result="effect2_innerShadow"/>
</filter>
<filter id="filter1_ii" filterUnits="userSpaceOnUse" x="728" y="3164" width="1200" height="1656" color-interpolation-filters="sRGB">
<feFlood flood-opacity="0" result="BackgroundImageFix"/>
<feBlend mode="normal" in="SourceGraphic" in2="BackgroundImageFix" result="shape"/>
<feColorMatrix in="SourceAlpha" type="matrix" values="0 0 0 0 0 0 0 0 0 0 0 0 0 0 0 0 0 0 255 0" result="hardAlpha"/>
<feOffset dx="0" dy="140"/>
<feComposite in2="hardAlpha" operator="arithmetic" k2="-1" k3="1"/>
<feColorMatrix type="matrix" values="0 0 0 0 0.227451 0 0 0 0 0.733333 0 0 0 0 0.933333 0 0 0 1 0"/>
<feBlend mode="normal" in2="shape" result="effect1_innerShadow"/>
<feColorMatrix in="SourceAlpha" type="matrix" values="0 0 0 0 0 0 0 0 0 0 0 0 0 0 0 0 0 0 255 0" result="hardAlpha"/>
<feOffset dx="0" dy="100"/>
<feComposite in2="hardAlpha" operator="arithmetic" k2="-1" k3="1"/>
<feColorMatrix type="matrix" values="0 0 0 0 0.635294 0 0 0 0 0.505882 0 0 0 0 0.309804 0 0 0 1 0"/>
<feBlend mode="normal" in2="effect1_innerShadow" result="effect2_innerShadow"/>
</filter>
<path id="path0_fill" d="M 0 329.661C 0 316.148 6.82332 303.547 18.1406 296.162L 472 0L 512 2308L 9.23843 1703.11C 3.26836 1695.93 0 1686.89 0 1677.55L 0 329.661Z"/>
<path id="path1_stroke_2x" d="M 18.1406 296.162L 29.0703 312.912L 18.1406 296.162ZM 472 0L 491.997 -0.346568L 491.37 -36.5213L 461.07 -16.7494L 472 0ZM 512 2308L 496.619 2320.78L 532.983 2364.53L 531.997 2307.65L 512 2308ZM 9.23843 1703.11L 24.6192 1690.33L 9.23843 1703.11ZM 29.0703 312.912L 482.93 16.7494L 461.07 -16.7494L 7.21094 279.413L 29.0703 312.912ZM 452.003 0.346568L 492.003 2308.35L 531.997 2307.65L 491.997 -0.346568L 452.003 0.346568ZM 527.381 2295.22L 24.6192 1690.33L -6.14236 1715.9L 496.619 2320.78L 527.381 2295.22ZM 20 1677.55L 20 329.661L -20 329.661L -20 1677.55L 20 1677.55ZM 7.21094 279.413C -9.76501 290.491 -20 309.391 -20 329.661L 20 329.661C 20 322.904 23.4117 316.604 29.0703 312.912L 7.21094 279.413ZM 24.6192 1690.33C 20.6238 1685.99 19.7002 1683.44 20 1677.55L -20 1677.55C -19.7002 1690.34 -14.0871 1705.87 -6.14236 1715.9L 24.6192 1690.33Z"/>
<path id="path2_fill" d="M 12 0C 5.37258 0 0 5.37258 0 12L 24 12C 24 5.37258 18.6274 0 12 0Z"/>
<path id="path3_fill" d="M 571.938 0L 311.938 0C 289.847 0 271.938 17.9086 271.938 40L 271.938 396C 271.938 418.091 254.03 436 231.938 436L 40 436C 17.9086 436 0 453.909 0 476L 0 720C 0 742.091 17.9086 760 40 760L 804 760C 826.091 760 844 742.091 844 720L 844 476C 844 453.909 826.091 436 804 436L 651.938 436C 629.847 436 611.938 418.091 611.938 396L 611.938 40C 611.938 17.9086 594.03 0 571.938 0Z"/>
<path id="path4_fill" d="M 0 0L 1200 0L 1200 1056L 0 1056L 0 0Z"/>
<path id="path5_fill" d="M 18 0C 8.05887 0 0 5.37258 0 12L 36 12C 36 5.37258 27.9411 0 18 0Z"/>
<path id="path6_fill" d="M 32 0C 14.3269 0 0 10.7452 0 24L 64 24C 64 10.7452 49.6731 0 32 0Z"/>
<path id="path7_fill" d="M 666 0L 404 0C 381.909 0 364 17.9086 364 40L 364 148C 364 170.091 346.091 188 324 188L 178 188C 155.909 188 138 205.909 138 228L 138 470C 138 492.091 120.091 510 98 510L 40 510C 17.9086 510 0 527.909 0 550L 0 748C 0 770.091 17.9086 788 40 788L 324 788C 346.091 788 364 805.909 364 828L 364 890C 364 912.091 381.909 930 404 930L 666 930C 688.091 930 706 912.091 706 890L 706 828C 706 805.909 723.909 788 746 788L 768 788C 790.091 788 808 770.091 808 748L 808 400C 808 377.909 790.091 360 768 360L 746 360C 723.909 360 706 342.091 706 320L 706 40C 706 17.9086 688.091 0 666 0Z"/>
<path id="path8_fill" d="M 0 0L 12 0C 18.6274 0 24 5.37258 24 12L 24 12L 12 12C 5.37258 12 0 6.62742 0 0L 0 0Z"/>
<path id="path9_stroke" d="M 4 0C 4 -2.20914 2.20914 -4 0 -4C -2.20914 -4 -4 -2.20914 -4 0L 4 0ZM -4 30C -4 32.2091 -2.20914 34 0 34C 2.20914 34 4 32.2091 4 30L -4 30ZM -4 0L -4 30L 4 30L 4 0L -4 0Z"/>
<path id="path10_stroke" d="M 40 0C 40 -22.0914 22.0914 -40 0 -40C -22.0914 -40 -40 -22.0914 -40 0L 40 0ZM -40 30C -40 52.0914 -22.0914 70 0 70C 22.0914 70 40 52.0914 40 30L -40 30ZM -40 0L -40 30L 40 30L 40 0L -40 0Z"/>
<path id="path11_fill" d="M 0 0L 432.612 254.477C 438.759 258.093 445.761 260 452.892 260L 754.935 260C 762.176 260 769.281 258.035 775.492 254.314L 1200 0L 1200 1600L 0 1600L 0 0Z"/>
<path id="path12_stroke_2x" d="M 0 0L 10.1404 -17.2387L -20 -34.9683L -20 0L 0 0ZM 1200 0L 1220 0L 1220 -35.2959L 1189.72 -17.1568L 1200 0ZM 1200 1600L 1200 1620L 1220 1620L 1220 1600L 1200 1600ZM 0 1600L -20 1600L -20 1620L 0 1620L 0 1600ZM 775.492 254.314L 765.214 237.157L 775.492 254.314ZM 1180 0L 1180 1600L 1220 1600L 1220 0L 1180 0ZM 1200 1580L 0 1580L 0 1620L 1200 1620L 1200 1580ZM 20 1600L 20 0L -20 0L -20 1600L 20 1600ZM -10.1404 17.2387L 422.471 271.716L 442.752 237.239L 10.1404 -17.2387L -10.1404 17.2387ZM 452.892 280L 754.935 280L 754.935 240L 452.892 240L 452.892 280ZM 785.77 271.47L 1210.28 17.1568L 1189.72 -17.1568L 765.214 237.157L 785.77 271.47ZM 422.471 271.716C 430.992 276.524 443.11 279.824 452.892 280L 452.892 240C 448.411 240.176 446.525 239.663 442.752 237.239L 422.471 271.716ZM 754.935 280C 764.866 279.818 777.157 276.418 785.77 271.47L 765.214 237.157C 761.404 239.651 759.485 240.182 754.935 240L 754.935 280Z"/>
<path id="path13_fill" d="M 0 304L 431.76 7.04267C 438.43 2.45571 446.333 0 454.428 0L 753.384 0C 761.595 0 769.608 2.52698 776.333 7.23782L 1200 304L 1200 1340L 0 1340L 0 304Z"/>
<path id="path14_stroke_2x" d="M 0 304L -11.3337 287.521L -20 293.482L -20 304L 0 304ZM 1200 304L 1220 304L 1220 293.591L 1211.47 287.619L 1200 304ZM 1200 1340L 1200 1360L 1220 1360L 1220 1340L 1200 1340ZM 0 1340L -20 1340L -20 1360L 0 1360L 0 1340ZM 431.76 7.04267L 420.427 -9.43599L 431.76 7.04267ZM 776.333 7.23782L 764.859 23.6189L 776.333 7.23782ZM 1180 304L 1180 1340L 1220 1340L 1220 304L 1180 304ZM 1200 1320L 0 1320L 0 1360L 1200 1360L 1200 1320ZM 20 1340L 20 304L -20 304L -20 1340L 20 1340ZM 11.3337 320.479L 443.094 23.5213L 420.427 -9.43599L -11.3337 287.521L 11.3337 320.479ZM 454.428 20L 753.384 20L 753.384 -20L 454.428 -20L 454.428 20ZM 764.859 23.6189L 1188.53 320.381L 1211.47 287.619L 787.807 -9.14327L 764.859 23.6189ZM 443.094 23.5213C 447.162 20.4484 449.334 19.7736 454.428 20L 454.428 -20C 443.332 -19.7736 429.697 -15.537 420.427 -9.43599L 443.094 23.5213ZM 753.384 20C 758.552 19.7671 760.76 20.4633 764.859 23.6189L 787.807 -9.14327C 778.456 -15.4093 764.639 -19.7671 753.384 -20L 753.384 20Z"/>
<path id="path15_fill" d="M 150 20C 150 31.0457 116.421 40 75 40C 33.5786 40 0 31.0457 0 20C 0 8.95431 33.5786 0 75 0C 116.421 0 150 8.95431 150 20Z"/>
<path id="path16_fill" d="M 75 10C 75 15.5228 58.2107 20 37.5 20C 16.7893 20 0 15.5228 0 10C 0 4.47715 16.7893 0 37.5 0C 58.2107 0 75 4.47715 75 10Z"/>
<path id="path17_fill" d="M 0 30C 0 13.4315 13.4315 0 30 0L 370 0C 386.569 0 400 13.4315 400 30L 400 220C 400 236.569 386.569 250 370 250L 30 250C 13.4315 250 0 236.569 0 220L 0 30Z"/>
<path id="path18_fill" d="M 0 30C 0 13.4315 13.4315 0 30 0L 330 0C 346.569 0 360 13.4315 360 30L 360 200C 360 216.569 346.569 230 330 230L 30 230C 13.4315 230 0 216.569 0 200L 0 30Z"/>
<path id="path19_fill" d="M 0 30C 0 13.4315 13.4315 0 30 0L 180 0C 196.569 0 210 13.4315 210 30L 210 110C 210 126.569 196.569 140 180 140L 30 140C 13.4315 140 0 126.569 0 110L 0 30Z"/>
<path id="path20_stroke_2x" d="M 30 4L 180 4L 180 -4L 30 -4L 30 4ZM 206 30L 206 110L 214 110L 214 30L 206 30ZM 180 136L 30 136L 30 144L 180 144L 180 136ZM 4 110L 4 30L -4 30L -4 110L 4 110ZM 30 -4C 11.2223 -4 -4 11.2223 -4 30L 4 30C 4 15.6406 15.6406 4 30 4L 30 -4ZM 180 4C 194.359 4 206 15.6406 206 30L 214 30C 214 11.2223 198.778 -4 180 -4L 180 4ZM 206 110C 206 124.359 194.359 136 180 136L 180 144C 198.778 144 214 128.778 214 110L 206 110ZM 30 136C 15.6406 136 4 124.359 4 110L -4 110C -4 128.778 11.2223 144 30 144L 30 136Z"/>
<path id="path21_stroke" d="M 78.4142 1.41421C 79.1953 0.633165 79.1953 -0.633165 78.4142 -1.41421C 77.6332 -2.19526 76.3668 -2.19526 75.5858 -1.41421L 78.4142 1.41421ZM -1.41421 75.5858C -2.19526 76.3668 -2.19526 77.6332 -1.41421 78.4142C -0.633165 79.1953 0.633165 79.1953 1.41421 78.4142L -1.41421 75.5858ZM 75.5858 -1.41421L -1.41421 75.5858L 1.41421 78.4142L 78.4142 1.41421L 75.5858 -1.41421Z"/>
<path id="path22_stroke" d="M 70.6131 15.9622C 71.6968 16.1759 72.7485 15.4706 72.9622 14.3869C 73.1759 13.3032 72.4706 12.2515 71.3869 12.0378L 70.6131 15.9622ZM 0.386916 -1.96222C -0.696787 -2.1759 -1.74853 -1.47062 -1.96222 -0.386916C -2.1759 0.696787 -1.47062 1.74853 -0.386916 1.96222L 0.386916 -1.96222ZM 71.3869 12.0378L 0.386916 -1.96222L -0.386916 1.96222L 70.6131 15.9622L 71.3869 12.0378Z"/>
<path id="path23_fill" d="M 0 10C 0 4.47715 4.47715 0 10 0L 130 0C 135.523 0 140 4.47715 140 10L 140 110C 140 115.523 135.523 120 130 120L 10 120C 4.47715 120 0 115.523 0 110L 0 10Z"/>
<path id="path24_fill" fill-rule="evenodd" d="M 5 0C 2.23858 0 0 2.23857 0 5L 0 115C 0 117.761 2.23858 120 5 120L 30 120L 30 40C 30 34.4772 34.4772 30 40 30L 100 30C 105.523 30 110 34.4772 110 40L 110 120L 135 120C 137.761 120 140 117.761 140 115L 140 5C 140 2.23857 137.761 0 135 0L 5 0Z"/>
<path id="path25_fill" d="M 0 0L 56 0L 56 14L 0 14L 0 0Z"/>
<path id="path26_stroke_2x" d="M 0 0L 0 -2L -2 -2L -2 0L 0 0ZM 56 0L 58 0L 58 -2L 56 -2L 56 0ZM 56 14L 56 16L 58 16L 58 14L 56 14ZM 0 14L -2 14L -2 16L 0 16L 0 14ZM 0 2L 56 2L 56 -2L 0 -2L 0 2ZM 54 0L 54 14L 58 14L 58 0L 54 0ZM 56 12L 0 12L 0 16L 56 16L 56 12ZM 2 14L 2 0L -2 0L -2 14L 2 14Z"/>
<path id="path27_fill" d="M 0 0L 38 0L 38 14L 0 14L 0 0Z"/>
<path id="path28_stroke_2x" d="M 0 0L 0 -2L -2 -2L -2 0L 0 0ZM 38 0L 40 0L 40 -2L 38 -2L 38 0ZM 38 14L 38 16L 40 16L 40 14L 38 14ZM 0 14L -2 14L -2 16L 0 16L 0 14ZM 0 2L 38 2L 38 -2L 0 -2L 0 2ZM 36 0L 36 14L 40 14L 40 0L 36 0ZM 38 12L 0 12L 0 16L 38 16L 38 12ZM 2 14L 2 0L -2 0L -2 14L 2 14Z"/>
<path id="path29_fill" d="M 0 0L 64 0L 64 14L 0 14L 0 0Z"/>
<path id="path30_stroke_2x" d="M 0 0L 0 -2L -2 -2L -2 0L 0 0ZM 64 0L 66 0L 66 -2L 64 -2L 64 0ZM 64 14L 64 16L 66 16L 66 14L 64 14ZM 0 14L -2 14L -2 16L 0 16L 0 14ZM 0 2L 64 2L 64 -2L 0 -2L 0 2ZM 62 0L 62 14L 66 14L 66 0L 62 0ZM 64 12L 0 12L 0 16L 64 16L 64 12ZM 2 14L 2 0L -2 0L -2 14L 2 14Z"/>
</defs>
</svg>
