<svg width="17" height="14" viewBox="0 0 17 14" version="1.1" xmlns="http://www.w3.org/2000/svg" xmlns:xlink="http://www.w3.org/1999/xlink">
<title>heart</title>
<desc>Created using Figma</desc>
<g id="Canvas" transform="translate(-876 -83)">
<g id="heart">
<use xlink:href="#path0_fill" transform="translate(877 83)" fill="#DE5833"/>
<mask id="mask0_outline_out">
<rect id="mask0_outline_inv" fill="white" x="-1" y="0" width="17" height="15" transform="translate(877 83)"/>
<use xlink:href="#path0_fill" fill="black" transform="translate(877 83)"/>
</mask>
<g mask="url(#mask0_outline_out)">
<use xlink:href="#path1_stroke_2x" transform="translate(877 83)" fill="#FFFFFF"/>
</g>
</g>
</g>
<defs>
<path id="path0_fill" d="M 7.64375 12.8594C 7.55 12.9531 7.43542 13 7.3 13C 7.16458 13 7.05 12.9531 6.95625 12.8594L 2.08125 8.15625C 2.02917 8.11458 1.95625 8.04688 1.8625 7.95312C 1.77396 7.85937 1.63073 7.6901 1.43281 7.44531C 1.2349 7.19531 1.05781 6.9401 0.901563 6.67969C 0.745313 6.41927 0.604688 6.10417 0.479688 5.73438C 0.359896 5.36458 0.3 5.00521 0.3 4.65625C 0.3 3.51042 0.630729 2.61458 1.29219 1.96875C 1.95365 1.32292 2.86771 1 4.03438 1C 4.35729 1 4.68542 1.05729 5.01875 1.17188C 5.35729 1.28125 5.66979 1.43229 5.95625 1.625C 6.24792 1.8125 6.49792 1.98958 6.70625 2.15625C 6.91458 2.32292 7.1125 2.5 7.3 2.6875C 7.4875 2.5 7.68542 2.32292 7.89375 2.15625C 8.10208 1.98958 8.34948 1.8125 8.63594 1.625C 8.9276 1.43229 9.2401 1.28125 9.57344 1.17188C 9.91198 1.05729 10.2427 1 10.5656 1C 11.7323 1 12.6464 1.32292 13.3078 1.96875C 13.9693 2.61458 14.3 3.51042 14.3 4.65625C 14.3 5.80729 13.7036 6.97917 12.5109 8.17188L 7.64375 12.8594Z"/>
<path id="path1_stroke_2x" d="M 7.64375 12.8594L 6.95006 12.1391L 6.94329 12.1456L 6.93665 12.1523L 7.64375 12.8594ZM 6.95625 12.8594L 7.66336 12.1523L 7.65701 12.1459L 7.65056 12.1397L 6.95625 12.8594ZM 2.08125 8.15625L 2.77556 7.43657L 2.74217 7.40436L 2.70595 7.37538L 2.08125 8.15625ZM 1.8625 7.95312L 1.13549 8.63975L 1.14529 8.65013L 1.15539 8.66023L 1.8625 7.95312ZM 1.43281 7.44531L 0.648726 8.06605L 0.655183 8.07404L 1.43281 7.44531ZM 0.901563 6.67969L 0.0440695 7.19418L 0.0440699 7.19418L 0.901563 6.67969ZM 0.479688 5.73438L -0.471718 6.04258L -0.467653 6.0546L 0.479688 5.73438ZM 5.01875 1.17188L 4.69367 2.11756L 4.70247 2.12059L 4.71132 2.12345L 5.01875 1.17188ZM 5.95625 1.625L 5.39807 2.45472L 5.40672 2.46054L 5.41549 2.46618L 5.95625 1.625ZM 6.70625 2.15625L 7.33095 1.37538L 7.33095 1.37538L 6.70625 2.15625ZM 7.3 2.6875L 6.59289 3.39461L 7.3 4.10171L 8.00711 3.39461L 7.3 2.6875ZM 8.63594 1.625L 9.1836 2.46171L 9.1872 2.45933L 8.63594 1.625ZM 9.57344 1.17188L 9.88522 2.12207L 9.89403 2.11909L 9.57344 1.17188ZM 13.3078 1.96875L 14.0064 1.25324L 14.0064 1.25324L 13.3078 1.96875ZM 12.5109 8.17188L 13.2046 8.89215L 13.2114 8.88563L 13.218 8.87898L 12.5109 8.17188ZM 6.93665 12.1523C 6.97693 12.112 7.03472 12.0696 7.10887 12.0393C 7.18259 12.0091 7.2501 12 7.3 12L 7.3 14C 7.69428 14 8.06512 13.8522 8.35086 13.5665L 6.93665 12.1523ZM 7.3 12C 7.3499 12 7.41741 12.0091 7.49113 12.0393C 7.56528 12.0696 7.62307 12.112 7.66336 12.1523L 6.24914 13.5665C 6.53488 13.8522 6.90572 14 7.3 14L 7.3 12ZM 7.65056 12.1397L 2.77556 7.43657L 1.38694 8.87593L 6.26194 13.5791L 7.65056 12.1397ZM 2.70595 7.37538C 2.70947 7.3781 2.70499 7.37478 2.69679 7.36754C 2.6872 7.3592 2.68124 7.3538 2.66795 7.34142C 2.6392 7.31481 2.61085 7.2873 2.56961 7.24602L 1.15539 8.66023C 1.26235 8.76695 1.37615 8.87193 1.45655 8.93712L 2.70595 7.37538ZM 2.58951 7.2665C 2.51944 7.19284 2.40129 7.05273 2.21044 6.81659L 0.655183 8.07404C 0.860173 8.32748 1.02848 8.52591 1.13549 8.63975L 2.58951 7.2665ZM 2.21686 6.82461C 2.03811 6.59962 1.89781 6.39752 1.75906 6.16519L 0.0440699 7.19418C 0.217812 7.48269 0.43168 7.791 0.648767 8.06602L 2.21686 6.82461ZM 1.75906 6.16519C 1.63227 5.95741 1.53598 5.73988 1.42703 5.41415L -0.467653 6.0546C -0.3266 6.46845 -0.141642 6.88113 0.0440695 7.19418L 1.75906 6.16519ZM 1.43102 5.4262C 1.33142 5.12765 1.29659 4.92273 1.3 4.65625L -0.7 4.65625C -0.696592 5.08769 -0.611629 5.60152 -0.471641 6.04255L 1.43102 5.4262ZM 1.3 4.65625C 1.3 3.7112 1.56615 3.09886 1.99079 2.68426L 0.593582 1.25324C -0.304696 2.1303 -0.7 3.30963 -0.7 4.65625L 1.3 4.65625ZM 1.99079 2.68426C 2.41973 2.26546 3.05703 2 4.03438 2L 4.03438 2.38419e-07C 2.67839 2.38419e-07 1.48757 0.380376 0.593582 1.25324L 1.99079 2.68426ZM 4.03438 2C 4.27097 1.99627 4.4361 2.02571 4.69367 2.11756L 5.34383 0.226189C 4.93474 0.0888701 4.44361 0.00373293 4.03438 2.38419e-07L 4.03438 2ZM 4.71132 2.12345C 4.98511 2.20941 5.17187 2.29951 5.39807 2.45472L 6.51443 0.795279C 6.16772 0.565072 5.72947 0.35309 5.32618 0.220304L 4.71132 2.12345ZM 5.41549 2.46618C 5.68839 2.64131 5.8963 2.78837 6.08155 2.93712L 7.33095 1.37538C 7.09953 1.1908 6.80744 0.983688 6.49701 0.783821L 5.41549 2.46618ZM 6.08155 2.93712C 6.26859 3.08626 6.42529 3.22645 6.59289 3.39461L 8.00711 1.98039C 7.79971 1.77355 7.56057 1.55957 7.33095 1.37538L 6.08155 2.93712ZM 8.00711 3.39461C 8.17471 3.22645 8.33141 3.08626 8.51845 2.93712L 7.26906 1.37538C 7.03943 1.55957 6.80029 1.77355 6.59289 1.98039L 8.00711 3.39461ZM 8.51845 2.93712C 8.70567 2.78688 8.91445 2.63761 9.1836 2.4617L 8.08828 0.788298C 7.7845 0.987392 7.4985 1.19229 7.26906 1.37538L 8.51845 2.93712ZM 9.1872 2.45933C 9.42192 2.30157 9.6144 2.20856 9.88521 2.12203L 9.26167 0.221718C 8.86581 0.353942 8.43329 0.563009 8.08468 0.790666L 9.1872 2.45933ZM 9.89403 2.11909C 10.1584 2.02646 10.3284 1.99632 10.5656 2L 10.5656 2.38419e-07C 10.1571 0.00367555 9.6656 0.0881176 9.25284 0.224659L 9.89403 2.11909ZM 10.5656 2C 11.543 2 12.1803 2.26546 12.6092 2.68426L 14.0064 1.25324C 13.1124 0.380376 11.9216 2.38419e-07 10.5656 2.38419e-07L 10.5656 2ZM 12.6092 2.68426C 13.0338 3.09886 13.3 3.7112 13.3 4.65625L 15.3 4.65625C 15.3 3.30963 14.9047 2.1303 14.0064 1.25324L 12.6092 2.68426ZM 13.3 4.65625C 13.3 5.44017 12.8961 6.37255 11.8038 7.46477L 13.218 8.87898C 14.5112 7.58579 15.3 6.17441 15.3 4.65625L 13.3 4.65625ZM 11.8173 7.4516L 6.95006 12.1391L 8.33744 13.5797L 13.2046 8.89215L 11.8173 7.4516Z"/>
</defs>
</svg>
