<svg width="48" height="48" viewBox="0 0 48 48" version="1.1" xmlns="http://www.w3.org/2000/svg" xmlns:xlink="http://www.w3.org/1999/xlink">
<title>shield</title>
<desc>Created using Figma</desc>
<g id="Canvas" transform="translate(-1304 -257)">
<g id="shield">
<g id="backing">
<use xlink:href="#path0_fill" transform="translate(1304 257)" fill="#FFFFFF"/>
</g>
<g id="Vector">
<use xlink:href="#path1_fill" transform="translate(1306.65 259.651)" fill="#DE5833"/>
</g>
<g id="Group">
<mask id="mask0_alpha" mask-type="alpha">
<g id="Vector">
<use xlink:href="#path1_fill" transform="translate(1306.65 259.651)" fill="#DE5833"/>
</g>
</mask>
<g id="Group" mask="url(#mask0_alpha)">
<g id="Group">
<g id="Group">
<g id="Group">
<g id="Group">
<g id="Group">
<g id="Group">
<g id="Group">
<g id="Group">
<g id="Group">
<g id="Group">
<g id="Group">
<g id="Vector">
<use xlink:href="#path2_fill" transform="translate(1315.91 264.392)" fill="#D5D7D8"/>
</g>
<g id="Vector">
<use xlink:href="#path3_fill" transform="translate(1316.77 264.25)" fill="#FFFFFF"/>
</g>
<g id="Vector">
<use xlink:href="#path4_fill" transform="translate(1320.36 275.966)" fill="#2D4F8E"/>
</g>
<g id="Vector">
<use xlink:href="#path5_fill" transform="translate(1322.23 276.609)" fill="#FFFFFF"/>
</g>
<g id="Vector">
<use xlink:href="#path6_fill" transform="translate(1331.15 275.253)" fill="#2D4F8E"/>
</g>
<g id="Vector">
<use xlink:href="#path7_fill" transform="translate(1332.76 275.806)" fill="#FFFFFF"/>
</g>
<g id="Vector">
<use xlink:href="#path8_fill" transform="translate(1318.81 272.36)" fill="url(#paint9_linear)"/>
</g>
<g id="Vector">
<use xlink:href="#path9_fill" transform="translate(1330.06 271.81)" fill="url(#paint10_linear)"/>
</g>
</g>
</g>
</g>
</g>
</g>
</g>
</g>
</g>
</g>
</g>
</g>
<g id="Vector">
<use xlink:href="#path10_fill" transform="translate(1326.75 278.415)" fill="#FDD20A"/>
</g>
</g>
<g id="Group" mask="url(#mask0_alpha)">
<g id="Vector">
<use xlink:href="#path11_fill" transform="translate(1322.66 294.118)" fill="#65BC46"/>
</g>
<g id="Vector">
<use xlink:href="#path12_fill" transform="translate(1330.74 293.236)" fill="#65BC46"/>
</g>
<g id="Vector">
<use xlink:href="#path13_fill" transform="translate(1327.2 295.621)" fill="#43A244"/>
</g>
<g id="Vector">
<use xlink:href="#path14_fill" transform="translate(1327.57 295.163)" fill="#65BC46"/>
</g>
</g>
</g>
</g>
</g>
<defs>
<linearGradient id="paint9_linear" x1="0" y1="0" x2="1" y2="0" gradientUnits="userSpaceOnUse" gradientTransform="matrix(3.57633 0 0 -3.57633 4.52968e-05 2.92084)">
<stop offset="0.0056" stop-color="#6176B9"/>
<stop offset="0.691" stop-color="#394A9F"/>
</linearGradient>
<linearGradient id="paint10_linear" x1="0" y1="0" x2="1" y2="0" gradientUnits="userSpaceOnUse" gradientTransform="matrix(3.25761 0 0 -3.25761 0.000166957 2.22263)">
<stop offset="0.0056" stop-color="#6176B9"/>
<stop offset="0.691" stop-color="#394A9F"/>
</linearGradient>
<path id="path0_fill" d="M 48 24C 48 37.2548 37.2548 48 24 48C 10.7452 48 0 37.2548 0 24C 0 10.7452 10.7452 0 24 0C 37.2548 0 48 10.7452 48 24Z"/>
<path id="path1_fill" d="M 21.3496 42.6991C 33.1406 42.6991 42.6991 33.1406 42.6991 21.3496C 42.6991 9.55853 33.1406 0 21.3496 0C 9.55852 0 0 9.55853 0 21.3496C 0 33.1406 9.55852 42.6991 21.3496 42.6991Z"/>
<path id="path2_fill" d="M 20.8402 48.41C 20.0885 44.9519 15.7222 37.1241 14.066 33.8142C 12.411 30.5035 10.7527 25.8379 11.5078 22.8276C 11.6447 22.28 10.0736 18.1078 10.5252 17.8127C 14.038 15.5216 14.9629 18.0627 16.3696 17.0355C 17.0933 16.5042 18.0767 17.4725 18.3267 16.5931C 19.2274 13.4347 17.072 7.92802 14.6658 5.52134C 13.879 4.73707 12.6744 4.24413 11.3141 3.98242C 10.7907 3.26743 9.94716 2.57999 8.75217 1.94597C 7.42152 1.23766 4.52775 0.302284 3.02681 0.0531018C 1.98667 -0.118029 1.75168 0.172893 1.30758 0.245519C 1.72163 0.28225 3.68629 1.2531 4.06862 1.30945C 3.68629 1.56781 2.56309 1.29776 1.84643 1.61915C 1.48538 1.78277 1.21533 2.4026 1.21784 2.69602C 3.26723 2.489 6.46611 2.68935 8.35523 3.53081C 6.85178 3.70194 4.56531 3.89268 3.58194 4.40941C 0.723646 5.91536 -0.538963 9.43272 0.213593 13.6475C 0.966567 17.8528 4.27815 33.2023 5.33164 38.3275C 6.38556 43.4464 3.07439 46.7542 0.967819 47.6578L 3.22507 47.8093L 2.47335 49.4651C 5.17971 49.7652 8.18952 48.8645 8.18952 48.8645C 7.58931 50.5195 3.52476 51.1234 3.52476 51.1234C 3.52476 51.1234 5.48274 51.7236 8.64114 50.5195C 11.8041 49.3161 13.7596 48.5627 13.7596 48.5627L 15.2639 52.4749L 18.1247 49.6171L 19.3289 52.6269C 19.3347 52.6265 21.5928 51.8722 20.8402 48.41Z"/>
<path id="path3_fill" d="M 20.8874 47.8506C 20.1382 44.3908 15.7718 36.563 14.1139 33.2506C 12.4569 29.9382 10.8019 25.2734 11.5553 22.2645C 11.6952 21.7181 11.6977 19.4813 12.1518 19.1845C 15.6625 16.8914 15.4125 19.1077 16.8211 18.0805C 17.5474 17.55 18.1288 16.9093 18.3814 16.0303C 19.2846 12.8698 17.1267 7.36527 14.7196 4.95734C 13.9353 4.17306 12.7295 3.67929 11.3709 3.41884C 10.8483 2.70176 10.0056 2.01599 8.81224 1.38113C 6.56209 0.18656 3.77266 -0.290936 1.18818 0.177794C 1.60139 0.215359 2.5472 1.07018 2.92786 1.12652C 2.35145 1.5172 0.818786 1.4667 0.828804 2.33529C 2.8807 2.12993 5.12918 2.45425 7.02038 3.29404C 5.51694 3.46517 4.11743 3.83665 3.13406 4.35546C 0.273256 5.85932 -0.478883 8.8683 0.273256 13.0848C 1.02748 17.2992 4.33948 32.6492 5.3888 37.7635C 6.44355 42.8807 3.13406 46.1898 1.02748 47.0938L 3.28473 47.2437L 2.53301 48.902C 5.23938 49.2029 8.24918 48.3013 8.24918 48.3013C 7.64898 49.9601 3.58442 50.5578 3.58442 50.5578C 3.58442 50.5578 5.54032 51.1584 8.7008 49.9546C 11.865 48.7513 13.8218 47.9979 13.8218 47.9979L 15.3261 51.9101L 18.1864 49.0497L 19.3931 52.0612C 19.3864 52.0641 21.642 51.3111 20.8874 47.8506Z"/>
<path id="path4_fill" d="M 0 1.58066C 0 0.707061 0.706643 0 1.58149 0C 2.45384 0 3.16132 0.707061 3.16132 1.58066C 3.16132 2.45468 2.45384 3.1609 1.58149 3.1609C 0.706643 3.16132 0 2.45468 0 1.58066Z"/>
<path id="path5_fill" d="M 0 0.410295C 0 0.182817 0.184069 0 0.409043 0C 0.635686 0 0.819755 0.182817 0.819755 0.410295C 0.819755 0.636938 0.635686 0.821008 0.409043 0.821008C 0.184487 0.821425 0 0.636938 0 0.410295Z"/>
<path id="path6_fill" d="M 0 1.35652C 0 0.608139 0.609809 0 1.35736 0C 2.10908 0 2.71638 0.608139 2.71638 1.35652C 2.71638 2.10824 2.10908 2.71638 1.35736 2.71638C 0.609809 2.71638 0 2.10824 0 1.35652Z"/>
<path id="path7_fill" d="M 0 0.351861C 0 0.158609 0.158191 0 0.349774 0C 0.549704 0 0.702887 0.158609 0.702887 0.351861C 0.702887 0.547617 0.549704 0.703304 0.349774 0.703304C 0.158191 0.703304 0 0.547617 0 0.351861Z"/>
<path id="path8_fill" d="M 3.57609 0.606135C 3.57609 0.606135 2.38485 0.067283 1.22659 0.795213C 0.0704175 1.52231 0.112991 2.26568 0.112991 2.26568C 0.112991 2.26568 -0.501826 0.895387 1.13685 0.223805C 2.7772 -0.447778 3.57609 0.606135 3.57609 0.606135Z"/>
<path id="path9_fill" d="M 3.25774 1.04748C 3.25774 1.04748 2.40167 0.558303 1.73718 0.566651C 0.371896 0.584599 1.1863e-14 1.18773 1.1863e-14 1.18773C 1.1863e-14 1.18773 0.229148 -0.250181 1.9751 0.0382352C 2.92174 0.195591 3.25774 1.04748 3.25774 1.04748Z"/>
<path id="path10_fill" d="M 0.0275895 5.22708C 0.185781 4.27083 2.65674 2.46186 4.40644 2.3525C 6.1599 2.24189 6.70627 2.26694 8.16714 1.91716C 9.63218 1.56739 13.3991 0.628257 14.4418 0.146587C 15.4869 -0.335917 19.9113 0.385335 16.7921 2.12419C 15.4431 2.87925 11.8072 4.26582 9.20728 5.0405C 6.61152 5.81727 5.03754 4.29921 4.17354 5.57518C 3.48651 6.59028 4.03413 7.98019 7.1366 8.26861C 11.326 8.65678 15.3425 6.38158 15.7845 7.59035C 16.2286 8.79869 12.1845 10.3067 9.72192 10.3547C 7.26223 10.4011 2.30446 8.72857 1.55983 8.21059C 0.814372 7.69386 -0.178602 6.48676 0.0275895 5.22708Z"/>
<path id="path11_fill" d="M 6.01476 2.16975C 6.01476 2.16975 0.128711 -0.969454 0.0327114 0.304008C -0.0666277 1.57956 0.0327114 6.77733 0.718485 7.17052C 1.40551 7.56203 6.30986 4.62109 6.30986 4.62109L 6.01476 2.16975Z"/>
<path id="path12_fill" d="M 0.189078 2.85362C 0.189078 2.85362 4.21064 -0.187074 5.0951 0.00909986C 5.97621 0.20903 6.1728 6.48283 5.38769 6.78294C 4.60257 7.07094 0 5.19143 0 5.19143L 0.189078 2.85362Z"/>
<path id="path13_fill" d="M 0.0475633 0.999552C 0.0475633 3.05812 -0.248367 3.94174 0.636085 4.13791C 1.51636 4.33534 3.18384 4.13791 3.77403 3.7464C 4.36255 3.35489 3.87087 0.708213 3.6772 0.213187C 3.4781 -0.27683 0.0475633 0.116353 0.0475633 0.999552Z"/>
<path id="path14_fill" d="M 0.0473491 0.999388C 0.0473491 3.05838 -0.247747 3.942 0.635453 4.13775C 1.51448 4.33769 3.18321 4.13775 3.77382 3.74624C 4.36234 3.35348 3.87024 0.708049 3.67531 0.212605C 3.47789 -0.276995 0.0473491 0.117857 0.0473491 0.999388Z"/>
</defs>
</svg>
